<?xml version="1.0" encoding="UTF-8"?>
<svg width="400px" height="400px" viewBox="0 0 400 400" version="1.1" xmlns="http://www.w3.org/2000/svg" xmlns:xlink="http://www.w3.org/1999/xlink">
    <!-- Generator: Sketch 60.1 (88133) - https://sketch.com -->
    <title>nhs-bot-icon</title>
    <desc>Created with Sketch.</desc>
    <g id="nhs-bot-icon" stroke="none" stroke-width="1" fill="none" fill-rule="evenodd">
        <g id="nhs-logo" transform="translate(-1.000000, 0.000000)" fill-rule="nonzero">
            <rect id="Rectangle" fill="#005EB8" x="0.61" y="0" width="400" height="400"></rect>
            <g id="Group" transform="translate(65.000000, 151.000000)" fill="#FFFFFF">
                <polygon id="Path" points="20.3301083 1 51.7509472 1 71.0126522 66.8804348 71.3049391 66.8804348 84.5163058 1 108.25 1 88.2868065 96 57.012111 96 37.3119756 30.2670807 37.0489175 30.2670807 23.9836942 96 0.25 96"></polygon>
                <polygon id="Path" points="117.816491 1 143.094757 1 135.654804 37.3478261 165.531781 37.3478261 172.971734 1 198.25 1 178.654218 96 153.229496 96 161.606766 55.3152174 131.876245 55.3152174 123.498975 96 98.25 96"></polygon>
                <path d="M265.212132,23.0951666 C258.69719,20.0992093 251.58929,18.610808 244.418303,18.7409186 C234.374825,18.7409186 226.216339,20.241369 226.216339,27.8318823 C226.216339,41.277094 263.032609,36.2461723 263.032609,65.0195137 C263.032609,91.2038427 238.704418,98 216.703015,98 C206.703885,97.7678227 196.787935,96.123587 187.25,93.1161813 L193.140603,73.845692 C198.177069,77.111378 208.220547,79.288502 216.496844,79.288502 C224.773142,79.288502 236.731066,77.7880516 236.731066,68.0204143 C236.731066,52.809967 199.914797,58.5175623 199.914797,31.774242 C199.914797,7.3551486 221.386045,0 242.179874,0 C253.96108,0 264.858696,1.23566497 271.25,4.207145 L265.212132,23.0951666 Z" id="Path"></path>
            </g>
        </g>
    </g>
</svg>