<svg xmlns="http://www.w3.org/2000/svg" width="12" height="16" viewBox="0 0 12 16">
  <path fill="#38486C" fill-rule="evenodd" d="M2.7,5.7 C2.46522952,6.0130273 2.06945774,6.16037132 1.68714073,6.07708287 C1.30482371,5.99379441 1.00620559,5.69517629 0.922917133,5.31285927 C0.839628678,4.93054226 0.986972699,4.53477048 1.3,4.3 L5.3,0.3 C5.68884351,-0.0811428762 6.31115649,-0.0811428762 6.7,0.3 L10.7,4.3 C11.0130273,4.53477048 11.1603713,4.93054226 11.0770829,5.31285927 C10.9937944,5.69517629 10.6951763,5.99379441 10.3128593,6.07708287 C9.93054226,6.16037132 9.53477048,6.0130273 9.3,5.7 L6,2.42 L2.7,5.72 L2.7,5.7 Z M9.3,10.3 C9.6981203,10.0014098 10.2552148,10.0410013 10.6071068,10.3928932 C10.9589987,10.7447852 10.9985902,11.3018797 10.7,11.7 L6.7,15.7 C6.31115649,16.0811429 5.68884351,16.0811429 5.3,15.7 L1.3,11.7 C1.00140977,11.3018797 1.04100126,10.7447852 1.39289322,10.3928932 C1.74478517,10.0410013 2.3018797,10.0014098 2.7,10.3 L6,13.59 L9.3,10.29 L9.3,10.3 Z"/>
</svg>
