<svg id="Layer_1" data-name="Layer 1" xmlns="http://www.w3.org/2000/svg" viewBox="0 0 1597.12 220.98"><defs><style>.cls-1,.cls-2,.cls-6{fill:#39486c;}.cls-2{fill-rule:evenodd;}.cls-3{fill:#50baae;}.cls-4{fill:#fff;}.cls-5{opacity:0.5;}.cls-6{stroke:#39486c;stroke-miterlimit:10;}</style></defs><path class="cls-1" d="M258.38,185.54q-.31,6.81-.31,12.71t.31,12.7q.45,12.56,7.63,20.34t20.65,7.79a36,36,0,0,0,12.24-1.82,25.54,25.54,0,0,0,8.25-4.68,20.34,20.34,0,0,0,5-6.58,39.36,39.36,0,0,0,2.64-7.49,3.66,3.66,0,0,1,1.51-2.49,4.23,4.23,0,0,1,2.42-.83h7a3.16,3.16,0,0,1,2.34,1,3.2,3.2,0,0,1,1,2.34,31.46,31.46,0,0,1-2.57,10.89,35.3,35.3,0,0,1-7.49,11.12,40.7,40.7,0,0,1-13,8.69q-7.95,3.48-19.28,3.48a46.67,46.67,0,0,1-17.55-3.1A39.72,39.72,0,0,1,255.88,241a37.61,37.61,0,0,1-8.54-12.92A47.72,47.72,0,0,1,244,211.71q-.45-13.46,0-26.92a48,48,0,0,1,3.33-16.33,37.61,37.61,0,0,1,8.54-13,39.54,39.54,0,0,1,13.23-8.54,46.67,46.67,0,0,1,17.55-3.1q11.34,0,19.28,3.48a40.37,40.37,0,0,1,13,8.69,35.19,35.19,0,0,1,7.49,11.12A31.47,31.47,0,0,1,329,178a3.21,3.21,0,0,1-1,2.35,3.16,3.16,0,0,1-2.34,1h-7a4.3,4.3,0,0,1-2.42-.83,3.68,3.68,0,0,1-1.51-2.5,39.28,39.28,0,0,0-2.64-7.48,20.34,20.34,0,0,0-5-6.58,25.55,25.55,0,0,0-8.25-4.69,36,36,0,0,0-12.24-1.81q-13.47,0-20.65,7.79T258.38,185.54Z" transform="translate(-72 -114.99)"/><path class="cls-1" d="M415.19,204.75a44,44,0,0,0-3.25-13.68,31.7,31.7,0,0,0-7.18-10.67,32.68,32.68,0,0,0-10.89-6.88,43.55,43.55,0,0,0-29,0A32.68,32.68,0,0,0,354,180.4a31.7,31.7,0,0,0-7.18,10.67,44.23,44.23,0,0,0-3.26,13.68c-.1.91-.17,2-.22,3.25s-.08,2.57-.08,3.93,0,2.68.08,3.94.12,2.29.22,3.1a43.72,43.72,0,0,0,3.26,13.76A31.81,31.81,0,0,0,354,243.31a32.37,32.37,0,0,0,10.89,6.88,43.39,43.39,0,0,0,29,0,32.37,32.37,0,0,0,10.89-6.88,31.06,31.06,0,0,0,7.11-10.58A48.27,48.27,0,0,0,415.19,219a25.82,25.82,0,0,0,.16-3.1V208A30,30,0,0,0,415.19,204.75Zm-13.76,13.46a32.76,32.76,0,0,1-2,8.47,20.33,20.33,0,0,1-4.24,6.8,19.4,19.4,0,0,1-6.65,4.54,26.46,26.46,0,0,1-18.45,0,19.4,19.4,0,0,1-6.65-4.54,20.33,20.33,0,0,1-4.24-6.8,32.36,32.36,0,0,1-2-8.47,52.81,52.81,0,0,1-.31-6.28,56.84,56.84,0,0,1,.31-6.42,32.26,32.26,0,0,1,2-8.47,20.48,20.48,0,0,1,4.24-6.81,19.52,19.52,0,0,1,6.65-4.53,26.31,26.31,0,0,1,18.45,0,19.52,19.52,0,0,1,6.65,4.53,20.48,20.48,0,0,1,4.24,6.81,32.66,32.66,0,0,1,2,8.47,59.3,59.3,0,0,1,.31,6.42A55,55,0,0,1,401.43,218.21Z" transform="translate(-72 -114.99)"/><path class="cls-1" d="M504.27,247.09a4.13,4.13,0,0,1-4.09,4.09h-5.59a4.13,4.13,0,0,1-4.08-4.09V207.17q0-11.64-5.6-17.39T469.33,184q-9.52,0-15.35,5.75t-5.82,17.39v39.92a4.13,4.13,0,0,1-4.08,4.09h-5.6a4.13,4.13,0,0,1-4.08-4.09V176.62a4.13,4.13,0,0,1,4.08-4.08h5.6a4.13,4.13,0,0,1,4.08,4.08v4.69a28.22,28.22,0,0,1,8.55-7Q462.38,171,471.6,171a36.16,36.16,0,0,1,13.16,2.34,28.79,28.79,0,0,1,17.09,17.32,39.7,39.7,0,0,1,2.42,14.21Z" transform="translate(-72 -114.99)"/><path class="cls-1" d="M596.06,247.09a4.13,4.13,0,0,1-4.08,4.09h-5.6a4.13,4.13,0,0,1-4.08-4.09V207.17q0-11.64-5.6-17.39T561.13,184q-9.52,0-15.35,5.75T540,207.17v39.92a4.11,4.11,0,0,1-4.08,4.09h-5.59a4.13,4.13,0,0,1-4.09-4.09V176.62a4.13,4.13,0,0,1,4.09-4.08h5.59a4.11,4.11,0,0,1,4.08,4.08v4.69a28.22,28.22,0,0,1,8.55-7q5.67-3.25,14.9-3.25a36.15,36.15,0,0,1,13.15,2.34,28.79,28.79,0,0,1,17.09,17.32,39.7,39.7,0,0,1,2.42,14.21Z" transform="translate(-72 -114.99)"/><path class="cls-1" d="M681.5,193.41a33.92,33.92,0,0,0-7-12.1,30.12,30.12,0,0,0-11-7.64A38.14,38.14,0,0,0,649,171a35.16,35.16,0,0,0-13.69,2.57,31.21,31.21,0,0,0-10.51,7.11,37,37,0,0,0-7.11,10.58,39.89,39.89,0,0,0-3.32,13,63.42,63.42,0,0,0,0,13.91,43,43,0,0,0,3.32,13.69,36.17,36.17,0,0,0,7.19,10.88A32.42,32.42,0,0,0,635.38,250,33.52,33.52,0,0,0,649,252.69a46.57,46.57,0,0,0,14-1.89,36.75,36.75,0,0,0,10-4.69,22.45,22.45,0,0,0,6.12-6.05,16,16,0,0,0,2.57-6,2.93,2.93,0,0,0-1.06-2.87,4.42,4.42,0,0,0-3-1.22H673a6.35,6.35,0,0,0-2.72.46,8.84,8.84,0,0,0-2.12,1.66,26,26,0,0,1-6.73,5.22q-4.15,2.34-12.47,2.34a21.07,21.07,0,0,1-14.9-5.52q-6-5.52-6.27-15.8v-.91h52a4.13,4.13,0,0,0,4.08-4.08v-4.08A49.15,49.15,0,0,0,681.5,193.41Zm-11.19,11.34H627.82v-.45a22.25,22.25,0,0,1,1.81-8.32,19.07,19.07,0,0,1,4.54-6.43,20.46,20.46,0,0,1,6.65-4.08A22.75,22.75,0,0,1,649,184q9.68,0,15.5,5.52t5.82,14.75Z" transform="translate(-72 -114.99)"/><path class="cls-1" d="M712.35,217.15A30.61,30.61,0,0,0,715,227.43a22.78,22.78,0,0,0,5,7,18.93,18.93,0,0,0,6.57,4,22,22,0,0,0,7.42,1.28,26.16,26.16,0,0,0,12.4-2.72,18.37,18.37,0,0,0,8-9.07,8.09,8.09,0,0,1,2.19-3.25,4.58,4.58,0,0,1,2.8-.83h4.54a4.2,4.2,0,0,1,3,1.2,3.4,3.4,0,0,1,1.13,2.88,19.56,19.56,0,0,1-2.34,7.94,26.54,26.54,0,0,1-6.5,8A37.79,37.79,0,0,1,734,252.69,37.64,37.64,0,0,1,719.23,250a32.35,32.35,0,0,1-10.89-7.41,34,34,0,0,1-7-11,41.77,41.77,0,0,1-2.79-13.61c-.1-1.61-.18-3.61-.23-6a45.43,45.43,0,0,1,.23-6.12,47.52,47.52,0,0,1,3.1-13.61,34.35,34.35,0,0,1,6.88-11,31.43,31.43,0,0,1,10.73-7.41A36.93,36.93,0,0,1,734,171a37.86,37.86,0,0,1,25.18,8.84,26.7,26.7,0,0,1,6.5,8,19.52,19.52,0,0,1,2.34,7.94,3.37,3.37,0,0,1-1.13,2.87,4.17,4.17,0,0,1-3,1.21h-4.54a4.64,4.64,0,0,1-2.8-.83,8.09,8.09,0,0,1-2.19-3.25,18.33,18.33,0,0,0-8-9.07A26.16,26.16,0,0,0,734,184a22.61,22.61,0,0,0-7.49,1.29,18.72,18.72,0,0,0-6.65,4,22.85,22.85,0,0,0-5,6.95,28.54,28.54,0,0,0-2.49,10.29A62.25,62.25,0,0,0,712.35,217.15Z" transform="translate(-72 -114.99)"/><path class="cls-1" d="M806.71,224.71a26,26,0,0,0,.53,5.37,11,11,0,0,0,1.89,4.31,8.71,8.71,0,0,0,3.86,2.8,17.67,17.67,0,0,0,6.43,1h8a4.13,4.13,0,0,1,4.09,4.08v4.84a4.13,4.13,0,0,1-4.09,4.09h-9.52q-13.17,0-19.06-6.81T793,224.71V185.54H781.76a4.11,4.11,0,0,1-4.08-4.08v-4.84a4.13,4.13,0,0,1,4.08-4.08H793V147.89a4.13,4.13,0,0,1,4.09-4.08h5.59a4.13,4.13,0,0,1,4.08,4.08v24.65h19.21a4.13,4.13,0,0,1,4.08,4.08v4.84a4.11,4.11,0,0,1-4.08,4.08H806.71Z" transform="translate(-72 -114.99)"/><path class="cls-1" d="M910.15,193.41a33.92,33.92,0,0,0-7-12.1,30.12,30.12,0,0,0-11-7.64A38.14,38.14,0,0,0,877.64,171,35.12,35.12,0,0,0,864,173.6a31.11,31.11,0,0,0-10.51,7.11,37,37,0,0,0-7.11,10.58,39.89,39.89,0,0,0-3.32,13,63.42,63.42,0,0,0,0,13.91,43,43,0,0,0,3.32,13.69,36.17,36.17,0,0,0,7.19,10.88A32.42,32.42,0,0,0,864,250a33.52,33.52,0,0,0,13.61,2.65,46.57,46.57,0,0,0,14-1.89,36.61,36.61,0,0,0,10-4.69,22.45,22.45,0,0,0,6.12-6.05,16,16,0,0,0,2.57-6,2.93,2.93,0,0,0-1.06-2.87,4.42,4.42,0,0,0-3-1.22h-4.54a6.35,6.35,0,0,0-2.72.46,8.84,8.84,0,0,0-2.12,1.66,26,26,0,0,1-6.73,5.22q-4.15,2.34-12.47,2.34a21.07,21.07,0,0,1-14.9-5.52q-6-5.52-6.27-15.8v-.91h52a4.13,4.13,0,0,0,4.08-4.08v-4.08A49.15,49.15,0,0,0,910.15,193.41ZM899,204.75H856.47v-.45a22.06,22.06,0,0,1,1.81-8.32,19.07,19.07,0,0,1,4.54-6.43,20.46,20.46,0,0,1,6.65-4.08,22.75,22.75,0,0,1,8.17-1.44q9.68,0,15.5,5.52T899,204.3Z" transform="translate(-72 -114.99)"/><path class="cls-1" d="M997.41,145a3.93,3.93,0,0,0-2.88-1.21h-5.59a4.11,4.11,0,0,0-4.08,4.08v33.42a28.43,28.43,0,0,0-8.47-7q-5.6-3.25-15-3.25a34.82,34.82,0,0,0-13.24,2.49,31.65,31.65,0,0,0-10.66,7.11,34.63,34.63,0,0,0-7.26,11.27,45.92,45.92,0,0,0-3.17,15c-.1,1.51-.15,3.15-.15,4.91s0,3.41.15,4.92a46,46,0,0,0,3.17,15A35.39,35.39,0,0,0,937.52,243a30.83,30.83,0,0,0,10.66,7.18,34.64,34.64,0,0,0,13.24,2.5q9.21,0,14.82-3.1a26.63,26.63,0,0,0,8.62-7.18v4.68a4.11,4.11,0,0,0,4.08,4.09h5.59a4.13,4.13,0,0,0,4.09-4.09v-99.2A4,4,0,0,0,997.41,145Zm-12.55,73.34q-.47,9.84-6.51,15.58t-15.42,5.74q-10,0-15.73-6.35t-6.35-17.24q-.15-4.23,0-8.47.6-10.87,6.35-17.24T962.93,184q9.52,0,15.5,5.82t6.43,16.56c.09,1.52.15,3.51.15,6S985,216.85,984.86,218.36Z" transform="translate(-72 -114.99)"/><path class="cls-2" d="M1522.05,203.07a18.21,18.21,0,0,0-3.77-6,17.37,17.37,0,0,0-5.91-4,23.46,23.46,0,0,0-16.4,0,17.37,17.37,0,0,0-5.91,4,18.21,18.21,0,0,0-3.77,6,28.77,28.77,0,0,0-1.74,7.53,52.32,52.32,0,0,0-.27,5.71,48.56,48.56,0,0,0,.27,5.58,28.77,28.77,0,0,0,1.74,7.53,18.11,18.11,0,0,0,3.77,6.05,17.23,17.23,0,0,0,5.91,4,23.46,23.46,0,0,0,16.4,0,17.23,17.23,0,0,0,5.91-4,18.11,18.11,0,0,0,3.77-6.05,29.18,29.18,0,0,0,1.75-7.53,51,51,0,0,0,.27-5.58,55,55,0,0,0-.27-5.71A29.18,29.18,0,0,0,1522.05,203.07Z" transform="translate(-72 -114.99)"/><path class="cls-2" d="M1315.65,196.69c-3.55-3.45-8.13-5.18-13.78-5.18q-8.88,0-14,5.65t-5.65,15.32q-.13,3.77,0,7.53.54,9.68,5.65,15.32t14,5.65c5.65,0,10.23-1.75,13.78-5.24s5.44-8.38,5.71-14.65c.09-1.35.13-3,.13-4.84s0-3.5-.13-4.84Q1321,201.86,1315.65,196.69Z" transform="translate(-72 -114.99)"/><path class="cls-2" d="M1553.83,127.4c-49.87-7.93-132.81-8.59-194.91-8.59-64.84,0-190.35-8.58-241.64,0-95.11,15.91-93.45,57.83-93.45,90.19,0,26.22,12.41,73.71,78.76,90.19,59.72,14.83,168.66,0,256.33,0,66.06,0,151,20.34,202.92,11.45,93.49-16,107.28-64.67,107.28-96.7C1669.12,180.85,1652.56,143.09,1553.83,127.4ZM1146.41,250.32a2.82,2.82,0,0,1-2.08.88H1136a5.89,5.89,0,0,1-3.09-.74,10,10,0,0,1-1.75-1.28l-38-36.29v34.68a3.67,3.67,0,0,1-3.63,3.63H1084a3.69,3.69,0,0,1-3.63-3.63V160.73a3.69,3.69,0,0,1,3.63-3.63h5.51a3.67,3.67,0,0,1,3.63,3.63v31.32L1129,159.12a9.55,9.55,0,0,1,1.75-1.28,5.89,5.89,0,0,1,3.09-.74h7.8a2.83,2.83,0,0,1,2.08.87,2.88,2.88,0,0,1,.88,2.09,2.63,2.63,0,0,1-.27,1,5.18,5.18,0,0,1-1.08,1.41l-43.15,39.65,45.84,43.69a5.39,5.39,0,0,1,1.08,1.41,2.73,2.73,0,0,1,.26,1A2.83,2.83,0,0,1,1146.41,250.32Zm25.2-2.75a3.67,3.67,0,0,1-3.62,3.63h-5a3.69,3.69,0,0,1-3.63-3.63V184.92a3.67,3.67,0,0,1,3.63-3.62h5a3.52,3.52,0,0,1,2.55,1.07,3.48,3.48,0,0,1,1.07,2.55Zm82.27,0a3.67,3.67,0,0,1-3.63,3.63h-5a3.67,3.67,0,0,1-3.63-3.63V212.08q0-10.35-5-15.46t-13.84-5.11q-8.47,0-13.65,5.11T1204,212.08v35.49a3.67,3.67,0,0,1-3.63,3.63h-5a3.67,3.67,0,0,1-3.63-3.63V184.92a3.48,3.48,0,0,1,1.07-2.55,3.52,3.52,0,0,1,2.56-1.07h5a3.65,3.65,0,0,1,3.63,3.62v4.17a25,25,0,0,1,7.59-6.25q5-2.88,13.24-2.89a32.09,32.09,0,0,1,11.7,2.09,25.52,25.52,0,0,1,15.19,15.39,35.3,35.3,0,0,1,2.15,12.63Zm79.71,2.68q0,14-7.93,22.25t-23.79,8.27a43.19,43.19,0,0,1-13.78-1.94,30.9,30.9,0,0,1-9.41-4.88,20.42,20.42,0,0,1-5.51-6.41,15.94,15.94,0,0,1-2-6.69,3,3,0,0,1,1-2.53,3.69,3.69,0,0,1,2.62-1.08h4a4.11,4.11,0,0,1,2.49.74,7,7,0,0,1,2,2.86c.27.53.69,1.26,1.28,2.19a10.36,10.36,0,0,0,2.82,2.79,17.91,17.91,0,0,0,5.11,2.39,27.12,27.12,0,0,0,8,1,37.27,37.27,0,0,0,8.27-.87,18.4,18.4,0,0,0,6.66-2.9,13.22,13.22,0,0,0,4.36-5.37,19.57,19.57,0,0,0,1.55-8.2V243.4a23.52,23.52,0,0,1-7.66,6.38q-5,2.76-13.18,2.76a30.85,30.85,0,0,1-11.76-2.22,28,28,0,0,1-9.48-6.31,31,31,0,0,1-6.45-10,40.92,40.92,0,0,1-2.82-13.31c-.09-1.34-.13-2.82-.13-4.43s0-3.09.13-4.44a41,41,0,0,1,2.82-13.31,30.83,30.83,0,0,1,6.45-10,28,28,0,0,1,9.48-6.32,30.85,30.85,0,0,1,11.76-2.22q8.34,0,13.31,2.89a25.15,25.15,0,0,1,7.53,6.25v-4.17a3.67,3.67,0,0,1,3.63-3.62h5a3.65,3.65,0,0,1,3.63,3.62Zm70.24-10.61a19.89,19.89,0,0,1-5.58,6.58,29.41,29.41,0,0,1-8.81,4.57,36.49,36.49,0,0,1-11.76,1.75,39,39,0,0,1-11.69-1.61,36,36,0,0,1-8.74-4,19.92,19.92,0,0,1-5.58-5.11,10.07,10.07,0,0,1-2.08-5.17,3.06,3.06,0,0,1,.94-2.56,3.67,3.67,0,0,1,2.69-1.07h4.84a10.86,10.86,0,0,1,1.88.2,3.4,3.4,0,0,1,2,1.55,13.88,13.88,0,0,0,5.91,4.57,25.3,25.3,0,0,0,9.81,1.61,25.67,25.67,0,0,0,5.85-.67,20.1,20.1,0,0,0,5.11-1.89,11.49,11.49,0,0,0,3.56-2.88,5.83,5.83,0,0,0,1.34-3.7,6.4,6.4,0,0,0-1.41-4.24,11.18,11.18,0,0,0-4.23-2.88,47.3,47.3,0,0,0-7.19-2.29q-4.37-1.08-10.15-2.29-10.89-2.28-15.26-7.59a19,19,0,0,1-4.37-12.44,18.61,18.61,0,0,1,1.62-7.66,18.34,18.34,0,0,1,4.84-6.45,23.09,23.09,0,0,1,8.13-4.44A37,37,0,0,1,1377,180a40.29,40.29,0,0,1,11.5,1.48,30.41,30.41,0,0,1,8.26,3.76,18.69,18.69,0,0,1,5.11,4.91,10.25,10.25,0,0,1,1.88,5,3,3,0,0,1-1,2.56,3.73,3.73,0,0,1-2.62,1.07h-4.43a7.2,7.2,0,0,1-2-.33,4.19,4.19,0,0,1-2.09-1.55,13.15,13.15,0,0,0-5.17-3.83,23.61,23.61,0,0,0-9.48-1.55,19.39,19.39,0,0,0-10,2.29,7.48,7.48,0,0,0-2.76,10.41,8.51,8.51,0,0,0,3.5,2.69,32.84,32.84,0,0,0,6.38,2.09c2.64.62,5.94,1.39,9.88,2.28a44.6,44.6,0,0,1,10.35,3.43,24.82,24.82,0,0,1,6.72,4.7,15.3,15.3,0,0,1,3.63,5.79,20.38,20.38,0,0,1,1.08,6.65A16.76,16.76,0,0,1,1403.83,239.64Zm58.27,7.93a3.69,3.69,0,0,1-3.63,3.63H1450q-11.68,0-16.94-6t-5.24-17.48V192.86h-10a3.69,3.69,0,0,1-3.63-3.63v-4.31a3.67,3.67,0,0,1,3.63-3.62h10V159.39a3.67,3.67,0,0,1,3.63-3.63h5a3.52,3.52,0,0,1,2.56,1.07,3.48,3.48,0,0,1,1.07,2.56V181.3h17.08a3.67,3.67,0,0,1,3.63,3.62v4.31a3.69,3.69,0,0,1-3.63,3.63h-17.08v34.81a23.24,23.24,0,0,0,.47,4.77,9.73,9.73,0,0,0,1.69,3.84,7.61,7.61,0,0,0,3.42,2.48,15.88,15.88,0,0,0,5.72.88h7.12a3.45,3.45,0,0,1,2.55,1.07,3.49,3.49,0,0,1,1.08,2.56Zm74.07-31.26v3.5a22.57,22.57,0,0,1-.14,2.75,42.9,42.9,0,0,1-3,12.24,27.61,27.61,0,0,1-6.32,9.41,29.05,29.05,0,0,1-9.67,6.11,38.62,38.62,0,0,1-25.81,0,29.1,29.1,0,0,1-9.68-6.11,28.51,28.51,0,0,1-6.39-9.41,39,39,0,0,1-2.89-12.24c-.09-.71-.15-1.63-.2-2.75s-.07-2.29-.07-3.5,0-2.37.07-3.49.11-2.09.2-2.89a39.38,39.38,0,0,1,2.89-12.17,28.51,28.51,0,0,1,6.39-9.48,29.1,29.1,0,0,1,9.68-6.11,38.62,38.62,0,0,1,25.81,0,29.05,29.05,0,0,1,9.67,6.11,28.51,28.51,0,0,1,6.39,9.48,39.38,39.38,0,0,1,2.89,12.17,26.32,26.32,0,0,1,.14,2.89Zm79,31.26a3.69,3.69,0,0,1-3.63,3.63h-5a3.69,3.69,0,0,1-3.63-3.63V212.08q0-10.35-5-15.46t-13.85-5.11q-8.46,0-13.64,5.11t-5.17,15.46v35.49a3.69,3.69,0,0,1-3.63,3.63h-5a3.69,3.69,0,0,1-3.63-3.63V184.92a3.67,3.67,0,0,1,3.63-3.62h5a3.67,3.67,0,0,1,3.63,3.62v4.17a25,25,0,0,1,7.59-6.25q5-2.88,13.24-2.89a32.13,32.13,0,0,1,11.7,2.09,26.28,26.28,0,0,1,9.2,5.91,26.59,26.59,0,0,1,6,9.48,35.3,35.3,0,0,1,2.15,12.63Z" transform="translate(-72 -114.99)"/><path class="cls-3" d="M191.64,183.83c6-6.36,9-13.74,6.89-23.74-2.35-11.36-14.79-21.3-26.4-21-24.06.67-35.89,28-22.48,44.9-11.83,6.07-20,19.64-19.76,32.94.1,6.49,10.19,6.51,10.1,0-.18-12.1,8.77-23.94,20.69-26.06,3.58-.64,4.3-4,3.12-6.59a4.92,4.92,0,0,0-2.11-2.76c-15.45-10-5.52-35.18,12.83-32.2,8.24,1.35,14.55,9.25,14.47,17.34-.06,7.27-4.71,10.88-10,15.06a4.81,4.81,0,0,0-1,1.09c-2.22,2.6-2,7.2,2.22,8.06,13,2.62,22.92,10.5,23.94,24.34.47,6.44,10.57,6.49,10.09,0C213.14,200.19,204.54,189.22,191.64,183.83Z" transform="translate(-72 -114.99)"/><path class="cls-1" d="M141.14,190.27l-7.8-5.42c6.61-6.6,10.08-14.28,7.84-24.76-2.45-11.52-14.87-21.24-26.6-21-24.21.58-35.44,28-22.17,44.9C78,191.27,71.43,208,72,224.19c.89,24,20.49,33.26,42.43,31.38,6.43-.55,6.48-10.64,0-10.09-17,1.46-31.94-3.67-32.37-22.57-.3-13.38,5.68-28.73,21.1-32,3.19-.68,4.1-3.48,3.4-5.92a4.89,4.89,0,0,0-2.25-3.43c-15.45-10.14-5.43-35.68,13.19-32.08a17.6,17.6,0,0,1,14.11,18c-.46,7-4.85,10.2-10,14.28-2.75,2.18-1.35,6.28,1,7.93L135,198.26A38.53,38.53,0,0,1,141.14,190.27Z" transform="translate(-72 -114.99)"/><path class="cls-3" d="M1165.3,172.52c10.82,0,10.84-16.82,0-16.82s-10.84,16.82,0,16.82Z" transform="translate(-72 -114.99)"/><path class="cls-2" d="M1553.83,127.4c-49.87-7.93-132.81-8.59-194.91-8.59-64.84,0-190.35-8.58-241.64,0-95.11,15.91-93.45,57.83-93.45,90.19,0,26.22,12.41,73.71,78.76,90.19,59.72,14.83,168.66,0,256.33,0,66.06,0,151,20.34,202.92,11.45,93.49-16,107.28-64.67,107.28-96.7C1669.12,180.85,1652.56,143.09,1553.83,127.4Z" transform="translate(-72 -114.99)"/><path class="cls-4" d="M1095.89,254.49a2.89,2.89,0,0,1-.85-2.15V175.65h-25a2.91,2.91,0,0,1-3-3v-5.48a3.12,3.12,0,0,1,.85-2.21A2.8,2.8,0,0,1,1070,164h62.86a2.93,2.93,0,0,1,3.13,3.13v5.48a2.82,2.82,0,0,1-.91,2.15,3.13,3.13,0,0,1-2.22.85H1108v76.69a2.82,2.82,0,0,1-.91,2.15,3.13,3.13,0,0,1-2.22.85H1098A2.89,2.89,0,0,1,1095.89,254.49Z" transform="translate(-72 -114.99)"/><path class="cls-4" d="M1154.44,248.56q-7.89-8.09-8.41-21.52l-.13-5.61.13-5.61q.53-13.31,8.48-21.45t22.17-8.15q14.22,0,22.17,8.15t8.48,21.45c.08,1,.13,2.83.13,5.61s0,4.65-.13,5.61q-.52,13.43-8.41,21.52t-22.24,8.08Q1162.32,256.64,1154.44,248.56Zm35.22-7.18q4.75-5.2,5.15-15c.08-.86.13-2.52.13-4.95s0-4.09-.13-5q-.39-9.78-5.15-15t-13-5.21q-8.22,0-13,5.21t-5.09,15l-.13,5,.13,4.95q.26,9.8,5.09,15t13,5.22Q1184.9,246.6,1189.66,241.38Z" transform="translate(-72 -114.99)"/><path class="cls-4" d="M1234.32,280.44q-6.52-3.58-9.26-8.15a19.21,19.21,0,0,1-3-8.21,2.58,2.58,0,0,1,.85-2.22,3.08,3.08,0,0,1,2.15-.91h6.26a3.17,3.17,0,0,1,2,.58,4.38,4.38,0,0,1,1.3,2.15,17.52,17.52,0,0,0,5.15,7.24c2.4,2,6.11,3.07,11.16,3.07q9.64,0,14.21-4.11t4.57-14.54v-8.87a24.58,24.58,0,0,1-8.61,6.85,28.1,28.1,0,0,1-12.39,2.54q-13.83,0-20.67-8.8t-7.24-22.37l-.13-3.65.13-3.52q.39-13.44,7.3-22.37t20.61-8.93q13.69,0,21.39,10v-5.61a3.16,3.16,0,0,1,.84-2.22,2.86,2.86,0,0,1,2.16-.91h6a3.12,3.12,0,0,1,3.13,3.13V253.9q0,30.14-30.65,30.13Q1240.85,284,1234.32,280.44Zm30.39-40.88a24.08,24.08,0,0,0,5-14c.08-.78.13-2.3.13-4.56s0-3.65-.13-4.44a24.32,24.32,0,0,0-4.89-13.95q-4.5-5.86-13.5-5.87-9.27,0-13.44,5.74t-4.56,15.13l-.13,3.39.13,3.52q.39,9.25,4.56,15.06t13.44,5.81Q1260.15,245.43,1264.71,239.56Z" transform="translate(-72 -114.99)"/><path class="cls-4" d="M1307.29,248.36q-8-8.28-8.8-22.63l-.13-4.43.13-4.31q.9-14.09,8.93-22.43t21.19-8.34q14.48,0,22.44,9.19t8,24.84v2.22a2.91,2.91,0,0,1-3,3h-45.12v1.18a24.12,24.12,0,0,0,5.15,14.41,15.34,15.34,0,0,0,12.58,5.93,18.27,18.27,0,0,0,9.85-2.41,19.29,19.29,0,0,0,5.67-5,7.48,7.48,0,0,1,1.76-1.89,4.89,4.89,0,0,1,2.16-.33h6.39a3,3,0,0,1,2,.65,2.25,2.25,0,0,1,.78,1.83c0,1.91-1.19,4.22-3.58,6.91a29.53,29.53,0,0,1-10,7,35.56,35.56,0,0,1-14.81,2.93Q1315.32,256.64,1307.29,248.36Zm39.32-31.89v-.39q0-9-4.89-14.67t-13.11-5.67q-8.2,0-13,5.67t-4.76,14.67v.39Z" transform="translate(-72 -114.99)"/><path class="cls-4" d="M1380.52,232.38V198h-10.17a2.89,2.89,0,0,1-3-3v-4.43a2.91,2.91,0,0,1,3-3h10.17V165.74a2.91,2.91,0,0,1,3-3h6.13a2.91,2.91,0,0,1,3,3v21.78h16.17a2.91,2.91,0,0,1,3,3V195a2.89,2.89,0,0,1-3,3h-16.17v33.52q0,6.53,2.22,9.85c1.47,2.21,3.91,3.32,7.3,3.32h8a2.89,2.89,0,0,1,3,3v4.7a2.89,2.89,0,0,1-3,3h-9Q1380.52,255.34,1380.52,232.38Z" transform="translate(-72 -114.99)"/><path class="cls-4" d="M1426.62,254.49a2.89,2.89,0,0,1-.85-2.15v-86.6a2.91,2.91,0,0,1,3-3h6.52a2.89,2.89,0,0,1,3,3v30.39a25.9,25.9,0,0,1,8.87-7.37,28.09,28.09,0,0,1,12.65-2.54q12.53,0,19.5,8t7,21.32v36.78a2.91,2.91,0,0,1-3,3h-6.52a2.91,2.91,0,0,1-3-3V216.21q0-9.26-4.5-14.34t-13-5.09q-8.22,0-13.11,5.15t-4.89,14.28v36.13a2.89,2.89,0,0,1-3,3h-6.52A2.9,2.9,0,0,1,1426.62,254.49Z" transform="translate(-72 -114.99)"/><path class="cls-4" d="M1510.74,248.36q-8-8.28-8.8-22.63l-.13-4.43.13-4.31q.9-14.09,8.93-22.43t21.19-8.34q14.48,0,22.44,9.19t8,24.84v2.22a2.91,2.91,0,0,1-3,3h-45.12v1.18a24.12,24.12,0,0,0,5.15,14.41,15.34,15.34,0,0,0,12.58,5.93,18.27,18.27,0,0,0,9.85-2.41,19.29,19.29,0,0,0,5.67-5,7.48,7.48,0,0,1,1.76-1.89,4.89,4.89,0,0,1,2.16-.33h6.39a3,3,0,0,1,1.95.65,2.26,2.26,0,0,1,.79,1.83c0,1.91-1.2,4.22-3.59,6.91a29.53,29.53,0,0,1-10,7,35.56,35.56,0,0,1-14.81,2.93Q1518.77,256.64,1510.74,248.36Zm39.32-31.89v-.39q0-9-4.89-14.67t-13.11-5.67q-8.2,0-13,5.67t-4.76,14.67v.39Z" transform="translate(-72 -114.99)"/><path class="cls-4" d="M1579,254.49a2.89,2.89,0,0,1-.85-2.15V190.65a3.13,3.13,0,0,1,.85-2.22,2.82,2.82,0,0,1,2.15-.91h6a3.11,3.11,0,0,1,3.13,3.13v5.74q5.34-8.87,18.26-8.87h5.09a2.89,2.89,0,0,1,3,3v5.35a2.7,2.7,0,0,1-.84,2.08,3,3,0,0,1-2.15.79h-7.83q-7.05,0-11.09,4.1t-4,11.15v38.35a2.79,2.79,0,0,1-.91,2.15,3.13,3.13,0,0,1-2.22.85h-6.39A2.89,2.89,0,0,1,1579,254.49Z" transform="translate(-72 -114.99)"/><g class="cls-5"><path class="cls-6" d="M84.18,325a1,1,0,0,1-.3-.76V294a1.09,1.09,0,0,1,.3-.81,1,1,0,0,1,.76-.3h2.32A1,1,0,0,1,88.37,294V305.5l12.35-11.84a2.41,2.41,0,0,1,1.8-.74H105a.91.91,0,0,1,.65.27.92.92,0,0,1,.28.65.94.94,0,0,1-.19.6l-14.29,14,15.22,15.31a1,1,0,0,1,.23.65,1,1,0,0,1-.93.93H103.4a2.48,2.48,0,0,1-1.8-.79l-13.23-13v12.72A1,1,0,0,1,88,325a1.06,1.06,0,0,1-.78.31H84.94A1,1,0,0,1,84.18,325Z" transform="translate(-72 -114.99)"/><path class="cls-6" d="M111.7,322.82a12.09,12.09,0,0,1-3.12-8l0-1.58,0-1.52a12.19,12.19,0,0,1,3.17-8,11.18,11.18,0,0,1,15.47.3q2.84,3.25,2.83,8.81v.79a1,1,0,0,1-.3.76,1.06,1.06,0,0,1-.77.3H113v.42a8.58,8.58,0,0,0,1.82,5.11,5.46,5.46,0,0,0,4.47,2.1,6.47,6.47,0,0,0,3.49-.85,6.77,6.77,0,0,0,2-1.78,2.75,2.75,0,0,1,.63-.67,1.67,1.67,0,0,1,.76-.12h2.27a1.06,1.06,0,0,1,.69.23.79.79,0,0,1,.28.65,4.09,4.09,0,0,1-1.27,2.45,10.53,10.53,0,0,1-3.57,2.48,12.58,12.58,0,0,1-5.25,1A10.12,10.12,0,0,1,111.7,322.82Zm14-11.31v-.14a7.7,7.7,0,0,0-1.73-5.2,5.84,5.84,0,0,0-4.65-2,5.68,5.68,0,0,0-4.6,2,7.78,7.78,0,0,0-1.69,5.2v.14Z" transform="translate(-72 -114.99)"/><path class="cls-6" d="M137.61,322.82a12,12,0,0,1-3.12-8l-.05-1.58.05-1.52a12.14,12.14,0,0,1,3.17-8,11.18,11.18,0,0,1,15.47.3q2.82,3.25,2.82,8.81v.79a1,1,0,0,1-.3.76,1,1,0,0,1-.76.3h-16v.42a8.53,8.53,0,0,0,1.83,5.11,5.43,5.43,0,0,0,4.46,2.1,6.47,6.47,0,0,0,3.49-.85,7,7,0,0,0,2-1.78,2.59,2.59,0,0,1,.62-.67,1.67,1.67,0,0,1,.76-.12h2.27a1,1,0,0,1,.69.23.79.79,0,0,1,.28.65,4,4,0,0,1-1.27,2.45,10.48,10.48,0,0,1-3.56,2.48,12.65,12.65,0,0,1-5.25,1A10.1,10.1,0,0,1,137.61,322.82Zm13.95-11.31v-.14a7.65,7.65,0,0,0-1.74-5.2,5.83,5.83,0,0,0-4.65-2,5.68,5.68,0,0,0-4.6,2,7.78,7.78,0,0,0-1.69,5.2v.14Z" transform="translate(-72 -114.99)"/><path class="cls-6" d="M161.85,333.78a1,1,0,0,1-.3-.76V302.31a1,1,0,0,1,.3-.77,1,1,0,0,1,.76-.3h2.13a1,1,0,0,1,.76.3,1,1,0,0,1,.3.77v2a8.81,8.81,0,0,1,7.59-3.56q4.86,0,7.28,3.05a13.15,13.15,0,0,1,2.62,7.87c0,.34,0,.86,0,1.57s0,1.23,0,1.57a13,13,0,0,1-2.64,7.84q-2.44,3.07-7.26,3.08a8.92,8.92,0,0,1-7.49-3.47V333a1.09,1.09,0,0,1-.28.76,1,1,0,0,1-.74.3h-2.27A1,1,0,0,1,161.85,333.78ZM177.21,320a9.61,9.61,0,0,0,1.64-5.37c0-.31,0-.75,0-1.34q0-8.75-6.47-8.74a5.63,5.63,0,0,0-4.79,2.1,8.8,8.8,0,0,0-1.73,5l-.05,1.76.05,1.8a7.73,7.73,0,0,0,1.75,4.77,5.83,5.83,0,0,0,4.77,2A5.59,5.59,0,0,0,177.21,320Z" transform="translate(-72 -114.99)"/><path class="cls-6" d="M189,296.45a1,1,0,0,1-.3-.76v-2.5a1.09,1.09,0,0,1,.3-.78,1,1,0,0,1,.76-.33h2.92a1.13,1.13,0,0,1,1.11,1.11v2.5a1,1,0,0,1-.33.76,1,1,0,0,1-.78.3h-2.92A1,1,0,0,1,189,296.45Zm.37,28.54a1,1,0,0,1-.3-.76V302.31a1,1,0,0,1,1.06-1.07h2.22a1,1,0,0,1,1.07,1.07v21.92a1,1,0,0,1-1.07,1.07h-2.22A1,1,0,0,1,189.37,325Z" transform="translate(-72 -114.99)"/><path class="cls-6" d="M200.56,325a1,1,0,0,1-.3-.76V302.31a1,1,0,0,1,1.07-1.07h2.17a1.06,1.06,0,0,1,.77.3,1,1,0,0,1,.3.77v2a9.46,9.46,0,0,1,3.16-2.64,10.14,10.14,0,0,1,4.56-.92,8.71,8.71,0,0,1,6.92,2.84,11.13,11.13,0,0,1,2.47,7.57v13a1,1,0,0,1-.3.76,1,1,0,0,1-.76.31H218.3a1,1,0,0,1-.76-.31,1,1,0,0,1-.3-.76V311.42a7.4,7.4,0,0,0-1.6-5.09,5.81,5.81,0,0,0-4.6-1.8,6,6,0,0,0-4.62,1.82,7.1,7.1,0,0,0-1.72,5.07v12.81a1,1,0,0,1-.3.76,1,1,0,0,1-.76.31h-2.31A1,1,0,0,1,200.56,325Z" transform="translate(-72 -114.99)"/><path class="cls-6" d="M232,334.2a8.45,8.45,0,0,1-3.28-2.89,6.86,6.86,0,0,1-1.07-2.91.89.89,0,0,1,.31-.79,1.07,1.07,0,0,1,.76-.33H231a1.09,1.09,0,0,1,.69.21,1.51,1.51,0,0,1,.46.77,6.19,6.19,0,0,0,1.83,2.56,6,6,0,0,0,4,1.09q3.42,0,5-1.46t1.62-5.15v-3.15a8.61,8.61,0,0,1-3.05,2.43,10,10,0,0,1-4.4.9q-4.9,0-7.33-3.12a13.17,13.17,0,0,1-2.57-7.93l0-1.3,0-1.25a13.22,13.22,0,0,1,2.59-7.93c1.64-2.11,4.07-3.17,7.31-3.17a9,9,0,0,1,7.59,3.56v-2a1.09,1.09,0,0,1,.3-.78,1,1,0,0,1,.76-.33h2.13a1.11,1.11,0,0,1,1.11,1.11v22.44q0,10.68-10.87,10.68A12.64,12.64,0,0,1,232,334.2Zm10.78-14.5a8.51,8.51,0,0,0,1.76-4.95c0-.28,0-.82,0-1.62s0-1.3,0-1.57a8.54,8.54,0,0,0-1.74-4.95,5.64,5.64,0,0,0-4.78-2.08,5.5,5.5,0,0,0-4.77,2,9.68,9.68,0,0,0-1.62,5.37l0,1.2,0,1.25a9.68,9.68,0,0,0,1.62,5.34,5.49,5.49,0,0,0,4.77,2.06A5.66,5.66,0,0,0,242.82,319.7Z" transform="translate(-72 -114.99)"/><path class="cls-6" d="M269.42,322.91a11.26,11.26,0,0,1-2.41-7.56v-13a1,1,0,0,1,1.07-1.07h2.31a1,1,0,0,1,.76.3,1,1,0,0,1,.3.77v12.81q0,6.88,6,6.89a6,6,0,0,0,4.62-1.83,7.09,7.09,0,0,0,1.71-5.06V302.31a1,1,0,0,1,1.07-1.07h2.31a1,1,0,0,1,.74.3,1.07,1.07,0,0,1,.28.77v21.92a1.05,1.05,0,0,1-.28.76.92.92,0,0,1-.74.31H285a1,1,0,0,1-1.07-1.07v-2a8.59,8.59,0,0,1-3.14,2.66,10.44,10.44,0,0,1-4.58.9A8.4,8.4,0,0,1,269.42,322.91Z" transform="translate(-72 -114.99)"/><path class="cls-6" d="M298,324.72a9.23,9.23,0,0,1-3.28-2.39,3.88,3.88,0,0,1-1.09-2.22.84.84,0,0,1,.35-.71,1.2,1.2,0,0,1,.71-.26h2.09a1.08,1.08,0,0,1,.83.47,9.21,9.21,0,0,0,2.4,2,7,7,0,0,0,3.47.74,7.14,7.14,0,0,0,3.91-.95,3,3,0,0,0,1.51-2.61,2.68,2.68,0,0,0-.63-1.83,5.11,5.11,0,0,0-2.13-1.25,43,43,0,0,0-4.46-1.18C299,314,297.07,313.13,296,312a5.76,5.76,0,0,1-1.69-4.3,6,6,0,0,1,1-3.36,7.55,7.55,0,0,1,3.05-2.59,10.85,10.85,0,0,1,4.84-1,11.83,11.83,0,0,1,5,1,8.47,8.47,0,0,1,3.12,2.29,3.93,3.93,0,0,1,1,2.2.89.89,0,0,1-.3.69,1,1,0,0,1-.72.28h-1.94a1.15,1.15,0,0,1-.93-.46,14.12,14.12,0,0,0-1.27-1.37,4.57,4.57,0,0,0-1.52-.85,7.29,7.29,0,0,0-2.52-.37,5.45,5.45,0,0,0-3.43.94,3,3,0,0,0-1.2,2.48,2.63,2.63,0,0,0,.51,1.64,4.4,4.4,0,0,0,2,1.23,31.72,31.72,0,0,0,4.24,1.15q4.39.93,6.22,2.66a5.83,5.83,0,0,1,1.83,4.42,6.07,6.07,0,0,1-1.16,3.61,7.57,7.57,0,0,1-3.4,2.54,13.94,13.94,0,0,1-5.34.93A12.75,12.75,0,0,1,298,324.72Z" transform="translate(-72 -114.99)"/><path class="cls-6" d="M332.9,324.72a9.23,9.23,0,0,1-3.28-2.39,3.94,3.94,0,0,1-1.09-2.22.84.84,0,0,1,.35-.71,1.2,1.2,0,0,1,.72-.26h2.08a1.06,1.06,0,0,1,.83.47,9.08,9.08,0,0,0,2.41,2,7,7,0,0,0,3.47.74,7.19,7.19,0,0,0,3.91-.95,2.94,2.94,0,0,0,1.5-2.61,2.68,2.68,0,0,0-.63-1.83,5,5,0,0,0-2.12-1.25,43.33,43.33,0,0,0-4.47-1.18,11.66,11.66,0,0,1-5.71-2.54,5.76,5.76,0,0,1-1.69-4.3,6.11,6.11,0,0,1,1-3.36,7.62,7.62,0,0,1,3-2.59,10.91,10.91,0,0,1,4.84-1,11.83,11.83,0,0,1,5,1,8.38,8.38,0,0,1,3.12,2.29,3.86,3.86,0,0,1,1,2.2.89.89,0,0,1-.3.69,1,1,0,0,1-.71.28h-1.95a1.13,1.13,0,0,1-.92-.46,15.51,15.51,0,0,0-1.27-1.37,4.73,4.73,0,0,0-1.53-.85,7.21,7.21,0,0,0-2.52-.37,5.42,5.42,0,0,0-3.42.94,3,3,0,0,0-1.21,2.48,2.63,2.63,0,0,0,.51,1.64,4.44,4.44,0,0,0,2,1.23,31.08,31.08,0,0,0,4.23,1.15q4.4.93,6.22,2.66a5.83,5.83,0,0,1,1.83,4.42,6.07,6.07,0,0,1-1.16,3.61,7.51,7.51,0,0,1-3.4,2.54,13.86,13.86,0,0,1-5.34.93A12.75,12.75,0,0,1,332.9,324.72Z" transform="translate(-72 -114.99)"/><path class="cls-6" d="M356.1,324.83a7.66,7.66,0,0,1-3.07-2.52,5.93,5.93,0,0,1-1.14-3.54,6.12,6.12,0,0,1,2.52-5,14.15,14.15,0,0,1,6.83-2.56l6.89-1v-1.35q0-4.71-5.41-4.71a5.74,5.74,0,0,0-5.28,2.86,1.3,1.3,0,0,1-.34.6.81.81,0,0,1-.58.19h-2a1,1,0,0,1-1-1,4.93,4.93,0,0,1,1-2.52,8.09,8.09,0,0,1,3.08-2.45,11.46,11.46,0,0,1,5.13-1q5.19,0,7.45,2.43a8.51,8.51,0,0,1,2.27,6v15a1,1,0,0,1-1.07,1.07h-2.12a1,1,0,0,1-1.07-1.07v-2a8,8,0,0,1-3,2.5,10.57,10.57,0,0,1-4.95,1A9.64,9.64,0,0,1,356.1,324.83Zm10.11-4.51a7.77,7.77,0,0,0,1.92-5.66v-1.3l-5.37.79a12.32,12.32,0,0,0-4.95,1.55,3.25,3.25,0,0,0-.13,5.59,6.38,6.38,0,0,0,3.6,1A6.59,6.59,0,0,0,366.21,320.32Z" transform="translate(-72 -114.99)"/><path class="cls-6" d="M381.61,325a1,1,0,0,1-.3-.76V304.94h-3.93a1,1,0,0,1-1.06-1.06v-1.57a1,1,0,0,1,.3-.77,1,1,0,0,1,.76-.3h3.93v-2.31q0-7.86,8-7.86h2.78a1,1,0,0,1,.76.3,1,1,0,0,1,.3.76v1.57a1,1,0,0,1-.3.76,1,1,0,0,1-.76.31h-2.69a3.45,3.45,0,0,0-2.91,1.08,5.4,5.4,0,0,0-.83,3.31v2.08h6a1,1,0,0,1,1.07,1.07v1.57a1,1,0,0,1-.3.76,1,1,0,0,1-.77.3h-6v19.29a1,1,0,0,1-.31.76,1,1,0,0,1-.76.31h-2.17A1,1,0,0,1,381.61,325Z" transform="translate(-72 -114.99)"/><path class="cls-6" d="M398.27,322.82a12,12,0,0,1-3.13-8l0-1.58,0-1.52a12.24,12.24,0,0,1,3.17-8,11.19,11.19,0,0,1,15.48.3q2.82,3.25,2.82,8.81v.79a1,1,0,0,1-.3.76,1,1,0,0,1-.77.3h-16v.42a8.53,8.53,0,0,0,1.83,5.11,5.43,5.43,0,0,0,4.46,2.1,6.47,6.47,0,0,0,3.49-.85,6.77,6.77,0,0,0,2-1.78A2.75,2.75,0,0,1,412,319a1.67,1.67,0,0,1,.76-.12H415a1,1,0,0,1,.69.23.79.79,0,0,1,.28.65,4,4,0,0,1-1.27,2.45,10.58,10.58,0,0,1-3.56,2.48,12.65,12.65,0,0,1-5.25,1A10.09,10.09,0,0,1,398.27,322.82Zm13.94-11.31v-.14a7.65,7.65,0,0,0-1.73-5.2,5.84,5.84,0,0,0-4.65-2,5.68,5.68,0,0,0-4.6,2,7.78,7.78,0,0,0-1.69,5.2v.14Z" transform="translate(-72 -114.99)"/><path class="cls-6" d="M436,324.83a7.69,7.69,0,0,1-3.08-2.52,6,6,0,0,1-1.13-3.54,6.12,6.12,0,0,1,2.52-5,14.11,14.11,0,0,1,6.82-2.56l6.9-1v-1.35q0-4.71-5.42-4.71a6,6,0,0,0-3.33.85,5.88,5.88,0,0,0-1.94,2,1.3,1.3,0,0,1-.35.6.79.79,0,0,1-.57.19h-2a1,1,0,0,1-1-1,4.93,4.93,0,0,1,1-2.52,8,8,0,0,1,3.08-2.45,11.43,11.43,0,0,1,5.13-1c3.45,0,5.94.81,7.45,2.43a8.5,8.5,0,0,1,2.26,6v15a1,1,0,0,1-.3.76,1,1,0,0,1-.76.31h-2.13a1,1,0,0,1-.76-.31,1,1,0,0,1-.3-.76v-2a8,8,0,0,1-3,2.5,10.63,10.63,0,0,1-4.95,1A9.61,9.61,0,0,1,436,324.83Zm10.11-4.51a7.77,7.77,0,0,0,1.92-5.66v-1.3l-5.37.79a12.32,12.32,0,0,0-4.95,1.55,3.25,3.25,0,0,0-.14,5.59,6.41,6.41,0,0,0,3.61,1A6.61,6.61,0,0,0,446.1,320.32Z" transform="translate(-72 -114.99)"/><path class="cls-6" d="M459.33,325a1,1,0,0,1-.31-.76V302.31a1.06,1.06,0,0,1,.31-.77,1,1,0,0,1,.76-.3h2.17a1,1,0,0,1,1.07,1.07v2a9.4,9.4,0,0,1,3.17-2.64,10.07,10.07,0,0,1,4.55-.92,8.71,8.71,0,0,1,6.92,2.84,11.13,11.13,0,0,1,2.47,7.57v13a1,1,0,0,1-.3.76,1,1,0,0,1-.76.31h-2.31a1,1,0,0,1-1.07-1.07V311.42a7.44,7.44,0,0,0-1.59-5.09,5.84,5.84,0,0,0-4.61-1.8,6,6,0,0,0-4.62,1.82,7.14,7.14,0,0,0-1.71,5.07v12.81a1,1,0,0,1-1.07,1.07h-2.31A1,1,0,0,1,459.33,325Z" transform="translate(-72 -114.99)"/><path class="cls-6" d="M488.58,322.61a13.26,13.26,0,0,1-2.59-7.95l0-1.39,0-1.39a13.29,13.29,0,0,1,2.59-7.93q2.46-3.17,7.27-3.17a9.12,9.12,0,0,1,7.49,3.38V293.52a1,1,0,0,1,.3-.77,1,1,0,0,1,.76-.3h2.22a1,1,0,0,1,1.07,1.07v30.71a1,1,0,0,1-1.07,1.07h-2.08a1,1,0,0,1-.76-.31,1,1,0,0,1-.3-.76v-1.94a9.09,9.09,0,0,1-7.63,3.47Q491,325.76,488.58,322.61Zm13-2.7a8.82,8.82,0,0,0,1.73-5c0-.34.05-.93.05-1.76s0-1.46-.05-1.8a7.74,7.74,0,0,0-1.76-4.77,5.79,5.79,0,0,0-4.76-2,5.55,5.55,0,0,0-4.79,2,9.53,9.53,0,0,0-1.64,5.37l-.05,1.34q0,8.75,6.48,8.74A5.66,5.66,0,0,0,501.61,319.91Z" transform="translate(-72 -114.99)"/><path class="cls-6" d="M530.31,325a2.23,2.23,0,0,1-.56-.88l-6.57-21.46-.09-.47a.9.9,0,0,1,.3-.69,1,1,0,0,1,.67-.28h2a1.13,1.13,0,0,1,.76.26,1.18,1.18,0,0,1,.39.53l5.14,17.44,5.5-17.26a1.43,1.43,0,0,1,.42-.67,1.25,1.25,0,0,1,.88-.3h1.57a1.25,1.25,0,0,1,.88.3,1.43,1.43,0,0,1,.42.67l5.5,17.26L552.7,302a1,1,0,0,1,.34-.51,1.07,1.07,0,0,1,.77-.28h2.08a.9.9,0,0,1,.65.28,1,1,0,0,1,.27.69l-.09.47-6.52,21.46a2.23,2.23,0,0,1-.56.88,1.48,1.48,0,0,1-1,.28h-1.8a1.41,1.41,0,0,1-1.53-1.16L540,307.58l-5.37,16.56A1.52,1.52,0,0,1,533,325.3h-1.81A1.38,1.38,0,0,1,530.31,325Z" transform="translate(-72 -114.99)"/><path class="cls-6" d="M563.31,322.82a12,12,0,0,1-3.12-8l-.05-1.58.05-1.52a12.14,12.14,0,0,1,3.17-8,11.18,11.18,0,0,1,15.47.3q2.82,3.25,2.82,8.81v.79a1,1,0,0,1-1.06,1.06h-16v.42a8.66,8.66,0,0,0,1.83,5.11,5.45,5.45,0,0,0,4.47,2.1,6.49,6.49,0,0,0,3.49-.85,6.77,6.77,0,0,0,2-1.78A3,3,0,0,1,577,319a1.72,1.72,0,0,1,.77-.12H580a1.09,1.09,0,0,1,.7.23.82.82,0,0,1,.28.65,4.06,4.06,0,0,1-1.28,2.45,10.48,10.48,0,0,1-3.56,2.48,12.61,12.61,0,0,1-5.25,1A10.1,10.1,0,0,1,563.31,322.82Zm14-11.31v-.14a7.65,7.65,0,0,0-1.74-5.2,5.81,5.81,0,0,0-4.64-2,5.7,5.7,0,0,0-4.61,2,7.83,7.83,0,0,0-1.69,5.2v.14Z" transform="translate(-72 -114.99)"/><path class="cls-6" d="M587.55,325a1,1,0,0,1-.3-.76V293.52a1,1,0,0,1,.3-.77,1,1,0,0,1,.76-.3h2.18a1,1,0,0,1,.76.3,1,1,0,0,1,.3.77v30.71a1,1,0,0,1-.3.76,1,1,0,0,1-.76.31h-2.18A1,1,0,0,1,587.55,325Z" transform="translate(-72 -114.99)"/><path class="cls-6" d="M598.79,325a1,1,0,0,1-.3-.76V293.52a1,1,0,0,1,1.06-1.07h2.18a1,1,0,0,1,.76.3,1,1,0,0,1,.3.77v30.71a1,1,0,0,1-.3.76,1,1,0,0,1-.76.31h-2.18A1,1,0,0,1,598.79,325Z" transform="translate(-72 -114.99)"/><path class="cls-6" d="M622.13,317.15V304.94h-3.61a1,1,0,0,1-1.06-1.06v-1.57a1,1,0,0,1,.3-.77,1,1,0,0,1,.76-.3h3.61v-7.72a1,1,0,0,1,.3-.77,1,1,0,0,1,.76-.3h2.18a1,1,0,0,1,1.06,1.07v7.72h5.74a1,1,0,0,1,1.06,1.07v1.57a1,1,0,0,1-.3.76,1,1,0,0,1-.76.3h-5.74v11.89a6.26,6.26,0,0,0,.79,3.49,2.86,2.86,0,0,0,2.59,1.18h2.82a1,1,0,0,1,.76.3,1,1,0,0,1,.3.77v1.66a1,1,0,0,1-.3.76,1,1,0,0,1-.76.31h-3.19Q622.12,325.3,622.13,317.15Z" transform="translate(-72 -114.99)"/><path class="cls-6" d="M638.48,325a1,1,0,0,1-.3-.76V293.52a1,1,0,0,1,.3-.77,1,1,0,0,1,.76-.3h2.31a1,1,0,0,1,1.07,1.07v10.77a9.17,9.17,0,0,1,3.14-2.61,10,10,0,0,1,4.49-.9,8.71,8.71,0,0,1,6.92,2.84,11.13,11.13,0,0,1,2.47,7.57v13a1,1,0,0,1-.3.76,1,1,0,0,1-.76.31h-2.32a1,1,0,0,1-.76-.31,1,1,0,0,1-.3-.76V311.42a7.44,7.44,0,0,0-1.59-5.09,5.84,5.84,0,0,0-4.61-1.8,6.15,6.15,0,0,0-4.65,1.82,7.1,7.1,0,0,0-1.73,5.07v12.81a1,1,0,0,1-1.07,1.07h-2.31A1,1,0,0,1,638.48,325Z" transform="translate(-72 -114.99)"/><path class="cls-6" d="M666.6,325a1,1,0,0,1-.3-.76V302.35a1.09,1.09,0,0,1,.3-.78,1,1,0,0,1,.77-.33h2.13a1.05,1.05,0,0,1,.78.33,1,1,0,0,1,.32.78v2q1.9-3.15,6.48-3.15h1.8a1,1,0,0,1,1.07,1.07v1.89a1,1,0,0,1-.3.74,1.07,1.07,0,0,1-.77.28h-2.77a5.25,5.25,0,0,0-3.93,1.46,5.37,5.37,0,0,0-1.44,3.95v13.6a1,1,0,0,1-.32.76,1.09,1.09,0,0,1-.79.31h-2.26A1,1,0,0,1,666.6,325Z" transform="translate(-72 -114.99)"/><path class="cls-6" d="M685.38,322.89a11.12,11.12,0,0,1-3-7.63l0-2,0-2a11.08,11.08,0,0,1,3-7.61q2.82-2.9,7.86-2.89t7.86,2.89a11,11,0,0,1,3,7.61c0,.34.05,1,.05,2s0,1.65-.05,2a11.12,11.12,0,0,1-3,7.63q-2.8,2.87-7.89,2.87T685.38,322.89Zm12.49-2.54A8.11,8.11,0,0,0,699.7,315c0-.31,0-.9,0-1.76s0-1.45,0-1.76a8.09,8.09,0,0,0-1.83-5.32,5.92,5.92,0,0,0-4.6-1.85,6,6,0,0,0-4.62,1.85,7.83,7.83,0,0,0-1.81,5.32l0,1.76,0,1.76a7.85,7.85,0,0,0,1.81,5.32,6,6,0,0,0,4.62,1.85A5.92,5.92,0,0,0,697.87,320.35Z" transform="translate(-72 -114.99)"/><path class="cls-6" d="M712.14,322.91a11.31,11.31,0,0,1-2.4-7.56v-13a1,1,0,0,1,.3-.77,1,1,0,0,1,.76-.3h2.31a1,1,0,0,1,1.07,1.07v12.81q0,6.88,6,6.89a6,6,0,0,0,4.63-1.83,7.09,7.09,0,0,0,1.71-5.06V302.31a1,1,0,0,1,.3-.77,1,1,0,0,1,.76-.3h2.32a1,1,0,0,1,.74.3,1.11,1.11,0,0,1,.27.77v21.92a1.09,1.09,0,0,1-.27.76,1,1,0,0,1-.74.31h-2.18A1,1,0,0,1,727,325a1,1,0,0,1-.3-.76v-2a8.62,8.62,0,0,1-3.15,2.66,10.41,10.41,0,0,1-4.58.9A8.42,8.42,0,0,1,712.14,322.91Z" transform="translate(-72 -114.99)"/><path class="cls-6" d="M741.56,334.2a8.45,8.45,0,0,1-3.28-2.89,6.86,6.86,0,0,1-1.07-2.91.91.91,0,0,1,.3-.79,1.11,1.11,0,0,1,.77-.33h2.22a1.09,1.09,0,0,1,.69.21,1.59,1.59,0,0,1,.47.77,6.17,6.17,0,0,0,1.82,2.56,6,6,0,0,0,4,1.09q3.42,0,5-1.46t1.62-5.15v-3.15a8.61,8.61,0,0,1-3.05,2.43,10,10,0,0,1-4.4.9q-4.9,0-7.33-3.12a13.17,13.17,0,0,1-2.57-7.93l0-1.3,0-1.25a13.22,13.22,0,0,1,2.59-7.93c1.64-2.11,4.07-3.17,7.31-3.17a9,9,0,0,1,7.59,3.56v-2a1.09,1.09,0,0,1,.3-.78,1,1,0,0,1,.76-.33h2.13a1.13,1.13,0,0,1,1.11,1.11v22.44q0,10.68-10.87,10.68A12.64,12.64,0,0,1,741.56,334.2Zm10.78-14.5a8.51,8.51,0,0,0,1.76-4.95c0-.28,0-.82,0-1.62s0-1.3,0-1.57a8.54,8.54,0,0,0-1.74-4.95,5.64,5.64,0,0,0-4.78-2.08,5.5,5.5,0,0,0-4.77,2,9.68,9.68,0,0,0-1.62,5.37l0,1.2,0,1.25a9.68,9.68,0,0,0,1.62,5.34,5.49,5.49,0,0,0,4.77,2.06A5.66,5.66,0,0,0,752.34,319.7Z" transform="translate(-72 -114.99)"/><path class="cls-6" d="M765.78,325a1,1,0,0,1-.3-.76V293.52a1,1,0,0,1,.3-.77,1,1,0,0,1,.76-.3h2.31a1,1,0,0,1,1.07,1.07v10.77a9.17,9.17,0,0,1,3.14-2.61,10,10,0,0,1,4.49-.9,8.71,8.71,0,0,1,6.92,2.84,11.13,11.13,0,0,1,2.47,7.57v13a1,1,0,0,1-.3.76,1,1,0,0,1-.76.31h-2.32a1,1,0,0,1-.76-.31,1,1,0,0,1-.3-.76V311.42a7.4,7.4,0,0,0-1.6-5.09,5.81,5.81,0,0,0-4.6-1.8,6.15,6.15,0,0,0-4.65,1.82,7.1,7.1,0,0,0-1.73,5.07v12.81a1,1,0,0,1-1.07,1.07h-2.31A1,1,0,0,1,765.78,325Z" transform="translate(-72 -114.99)"/><path class="cls-6" d="M807.78,322.43q-3.21-3.33-3.45-9.21c0-.83,0-2.19,0-4.07s0-3.3,0-4.16q.24-5.83,3.47-9.18t9.39-3.36a15.31,15.31,0,0,1,7,1.46,10.67,10.67,0,0,1,4.35,3.82,10.49,10.49,0,0,1,1.62,5v.09a.78.78,0,0,1-.31.63,1,1,0,0,1-.67.25h-2.54c-.62,0-1-.35-1.16-1.06a7.66,7.66,0,0,0-2.82-4.88,9.44,9.44,0,0,0-5.46-1.42q-8,0-8.23,8.84c0,.83-.05,2.11-.05,3.84s0,3,.05,3.93q.27,8.83,8.23,8.84a9.53,9.53,0,0,0,5.48-1.41,7.46,7.46,0,0,0,2.8-4.89,1.54,1.54,0,0,1,.42-.83,1.13,1.13,0,0,1,.74-.23h2.54a1.08,1.08,0,0,1,.72.26.72.72,0,0,1,.26.67,10.61,10.61,0,0,1-1.62,5.09,10.72,10.72,0,0,1-4.35,3.81,15.31,15.31,0,0,1-7,1.46Q811,325.76,807.78,322.43Z" transform="translate(-72 -114.99)"/><path class="cls-6" d="M838.63,322.59q-3.3-3.16-3.49-9.55c0-.93,0-2.24,0-3.93s0-3,0-3.89q.18-6.24,3.61-9.51t9.25-3.26a12.84,12.84,0,0,1,9.21,3.26q3.42,3.27,3.6,9.51c.06,1.79.1,3.08.1,3.89s0,2.08-.1,3.93q-.18,6.38-3.49,9.55T848,325.76Q841.94,325.76,838.63,322.59Zm15.2-3c1.45-1.48,2.23-3.75,2.36-6.8.06-1.85.09-3.09.09-3.7s0-1.92-.09-3.7c-.13-3.06-.92-5.32-2.39-6.8a8.72,8.72,0,0,0-11.65,0c-1.47,1.48-2.26,3.74-2.38,6.8,0,.89,0,2.12,0,3.7s0,2.77,0,3.7q.18,4.57,2.38,6.8a8.79,8.79,0,0,0,11.68,0Z" transform="translate(-72 -114.99)"/><path class="cls-6" d="M874.64,324.09l-10.31-29.74-.09-.51a.92.92,0,0,1,.92-.92h2.41a1.28,1.28,0,0,1,1.25.83l9,26.23,9.06-26.23a1.29,1.29,0,0,1,.42-.56,1.18,1.18,0,0,1,.79-.27h2.4a1,1,0,0,1,.67.27.86.86,0,0,1,.3.65l-.09.51L881,324.09a1.68,1.68,0,0,1-1.67,1.21h-3A1.71,1.71,0,0,1,874.64,324.09Z" transform="translate(-72 -114.99)"/><path class="cls-6" d="M897.33,325a1,1,0,0,1-.3-.76V294a1,1,0,0,1,.3-.76,1,1,0,0,1,.77-.3h2.45a1,1,0,0,1,1.06,1.06v30.25a1,1,0,0,1-.3.76,1,1,0,0,1-.76.31H898.1A1,1,0,0,1,897.33,325Z" transform="translate(-72 -114.99)"/><path class="cls-6" d="M910,325a1,1,0,0,1-.3-.76V294a1.09,1.09,0,0,1,.3-.81,1,1,0,0,1,.76-.3h10.51q7,0,10.08,3.12t3.24,9.41c0,.9,0,2.1,0,3.61s0,2.73,0,3.65a17.89,17.89,0,0,1-1.46,7.15A8.45,8.45,0,0,1,929,324a17.51,17.51,0,0,1-7.49,1.35H910.72A1,1,0,0,1,910,325Zm11.27-3.63a12.21,12.21,0,0,0,5.06-.87,5.44,5.44,0,0,0,2.73-2.8,13.84,13.84,0,0,0,1-5.16c.06-1.85.09-3,.09-3.47s0-1.64-.09-3.42c-.06-3.06-.79-5.28-2.18-6.69s-3.65-2.1-6.8-2.1h-6.8v24.51Z" transform="translate(-72 -114.99)"/><path class="cls-6" d="M941,313.06a1,1,0,0,1-.3-.76v-1.76a1,1,0,0,1,.3-.76,1,1,0,0,1,.76-.3h13.88a1,1,0,0,1,1.07,1.06v1.76a1,1,0,0,1-1.07,1.06H941.76A1,1,0,0,1,941,313.06Z" transform="translate(-72 -114.99)"/><path class="cls-6" d="M970.19,325a1,1,0,0,1-.3-.76v-25.9l-7.68,5.92a1.09,1.09,0,0,1-.69.28,1,1,0,0,1-.79-.47l-1.2-1.52a1.08,1.08,0,0,1-.23-.65,1,1,0,0,1,.46-.88l10.08-7.77a2.17,2.17,0,0,1,1.21-.32h2.35a1,1,0,0,1,.77.3,1,1,0,0,1,.3.76v30.25a1,1,0,0,1-1.07,1.07H971A1,1,0,0,1,970.19,325Z" transform="translate(-72 -114.99)"/><path class="cls-6" d="M986.24,325a1,1,0,0,1-.25-.71,1.06,1.06,0,0,1,.18-.6l7.08-9.86a10.06,10.06,0,0,1-2.5.28,11.52,11.52,0,0,1-5.8-1.53,10.07,10.07,0,0,1-3.87-3.93,10.73,10.73,0,0,1-1.34-5.22,11.28,11.28,0,0,1,1.32-5.3,10.27,10.27,0,0,1,4-4.09,12.26,12.26,0,0,1,6.39-1.58,12.61,12.61,0,0,1,6.4,1.53,10.19,10.19,0,0,1,4,4,11.14,11.14,0,0,1,1.34,5.32,10.6,10.6,0,0,1-.88,4.42,27.88,27.88,0,0,1-2.45,4.19l-8.93,12.44a4.62,4.62,0,0,1-.63.67,1.27,1.27,0,0,1-.85.26h-2.5A.81.81,0,0,1,986.24,325ZM995,309.5a6.57,6.57,0,0,0,2.62-2.45,7.47,7.47,0,0,0,0-7.36,6.57,6.57,0,0,0-2.62-2.45,7.63,7.63,0,0,0-3.58-.86,7.49,7.49,0,0,0-3.56.86,6.44,6.44,0,0,0-2.57,2.45,7.6,7.6,0,0,0,0,7.36,6.44,6.44,0,0,0,2.57,2.45,7.49,7.49,0,0,0,3.56.85A7.62,7.62,0,0,0,995,309.5Z" transform="translate(-72 -114.99)"/></g></svg>