<svg width="82" height="200" viewBox="0 0 82 200" fill="none" xmlns="http://www.w3.org/2000/svg">
<path opacity="0.72" d="M48.1329 17.7155C48.1329 17.7155 46.6016 15.7398 46.4562 15.4799L46.596 10.3103L43.5221 4.30228L37.4191 3.57294C37.0936 3.50308 36.7694 3.6945 36.673 4.01306L35.9548 6.38692L36.3964 9.19111L36.8155 15.4785L39.7497 17.4346C39.6351 17.4668 39.6211 17.6847 39.684 18.0424L48.1972 17.9139L48.1329 17.7155Z" fill="url(#paint0_linear)"/>
<path d="M80.5651 149.423C80.1418 149.073 79.6192 148.864 79.0715 148.807C78.1493 148.712 76.217 148.465 73.9563 147.902C70.4186 147.293 65.1148 142.577 63.413 139.563C63.413 139.563 57.8465 101.055 56.8196 93.1857L56.793 93.2374V93.1815C58.879 92.29 62.2128 89.6815 63.2928 88.4128L52.1822 62.5645C51.8092 56.4 56.3739 35.1792 56.3739 35.1792L51.7631 20.0894H39.7862C41.312 24.2516 45.09 31.58 45.1962 31.9656C45.6154 33.5025 43.3575 43.5359 41.2309 45.0099C41.4587 44.6606 41.583 44.3994 41.5634 44.261C40.8648 39.3708 40.306 35.5984 38.6293 33.9217C36.3002 31.5926 30.8287 32.6209 28.5988 33.4033C26.8383 34.0223 26.1257 37.5503 26.2333 38.6694C26.3381 39.7536 32.7624 44.7752 34.3036 51.9499L22.7962 62.5114C18.6534 67.1822 13.4782 73.1748 9.67637 77.6012C6.59832 81.185 4.51648 83.7727 3.82906 84.7004C3.0564 85.7413 2.58415 87.1805 4.05121 88.6042C5.8103 90.3116 13.773 97.6427 18.6492 101.407L19.767 100.568L23.2153 102.142L25.8211 103.369C25.1616 105.999 24.9283 133.951 24.9283 133.951L11.4131 163.152L13.052 163.903C11.9203 167.404 6.24064 182.172 6.24064 183.834L5.29054 189.01C5.20112 189.498 5.29054 190.002 5.53784 190.431C9.76999 197.796 16.8832 196.295 19.7698 195.299C20.5452 195.031 21.1083 194.359 21.2327 193.547L21.8866 189.249L26.5043 169.367L26.4834 169.359L39.3251 140.993C39.3251 140.993 43.3686 124.947 45.9227 115.035C46.1044 114.332 45.98 115.048 45.98 115.048L55.4713 142.323C55.5509 142.321 55.6291 142.317 55.7074 142.314L55.6948 142.318C56.4591 147.213 52.1459 151.344 54.4289 153.692C54.9319 154.209 56.0427 154.513 56.8741 154.361C58.0421 154.146 78.31 160.231 80.4925 155.468C81.2274 153.869 82.5743 151.087 80.5651 149.423ZM23.8217 95.5399L22.0053 94.2825L22.5642 92.8853L19.2109 87.017L29.2708 78.0749L38.0732 87.995L23.8217 95.5399Z" fill="url(#paint1_linear)"/>
<path opacity="0.72" d="M30.1384 81.8525C30.1426 81.8595 30.1468 81.8651 30.151 81.8721L30.1454 81.8623L30.1384 81.8525Z" fill="url(#paint2_linear)"/>
<path opacity="0.72" d="M32.1685 85.6836C32.1713 85.6906 32.1754 85.699 32.1782 85.7059L32.1754 85.6962L32.1685 85.6836Z" fill="url(#paint3_linear)"/>
<path d="M28.6739 31.2419C31.316 30.3128 33.8855 30.4595 37.6021 31.6583C38.2644 31.8721 38.724 32.4771 38.7506 33.1729L38.7953 34.3535C33.2204 29.8797 35.2464 39.839 30.5406 38.4362C27.5324 37.9695 29.1937 40.9288 30.113 41.6609C31.0324 42.3931 31.2783 45.6094 31.2783 45.6094C31.2783 45.6094 30.936 45.5088 30.5043 45.316C30.0558 45.1148 29.1378 44.0935 28.0661 43.8895C26.9945 43.6869 26.6773 44.419 26.7374 45.9657C26.8603 49.108 27.3158 55.0504 22.1769 59.2881C22.1769 59.2881 15.8741 59.8679 14.6501 51.8829C21.0214 55.4835 18.2494 41.6581 24.3426 41.4681C28.5384 41.0447 25.9955 38.8064 25.8683 37.4805C25.7412 36.1587 26.5865 31.9755 28.6739 31.2419Z" fill="#05194C"/>
<path d="M28.7846 31.6462C30.3508 31.0985 31.9143 30.9504 33.5714 31.1404C34.5159 31.2494 35.4716 31.4702 36.3952 31.7301C36.6509 31.8027 36.9065 31.8782 37.1608 31.9578C37.3816 32.0263 37.5632 32.0724 37.7449 32.1827C38.0383 32.3616 38.2339 32.6508 38.3079 32.9931C38.3471 33.1748 38.3401 33.45 38.3485 33.6778C38.3568 33.9041 38.3652 34.1291 38.3736 34.3554C38.6125 34.2562 38.8501 34.1584 39.089 34.0592C38.4127 33.5185 37.6247 32.9358 36.7431 32.8059C36.1004 32.7109 35.5051 32.8841 35.0301 33.3326C34.6026 33.7378 34.3203 34.2828 34.0772 34.8109C33.8089 35.3921 33.5798 35.9915 33.2906 36.5644C33.155 36.8341 33.0055 37.0981 32.8281 37.3426C32.8071 37.372 32.7848 37.3999 32.7638 37.4293C32.8225 37.3496 32.7862 37.3999 32.7499 37.4446C32.7051 37.4991 32.659 37.5522 32.6101 37.6025C32.5626 37.6528 32.5137 37.7017 32.462 37.7478C32.4397 37.7688 32.4159 37.7883 32.3922 37.8079C32.3796 37.8191 32.3656 37.8289 32.353 37.84C32.2958 37.8903 32.4327 37.7842 32.374 37.8247C32.2594 37.9001 32.1491 37.9686 32.0275 38.0315C31.9325 38.0804 32.1127 38.0021 32.0149 38.037C31.9828 38.0482 31.9507 38.0608 31.9171 38.072C31.8473 38.0943 31.7746 38.1139 31.7033 38.1279C31.6712 38.1349 31.6391 38.1376 31.6069 38.1446C31.5259 38.1614 31.7145 38.139 31.6307 38.1404C31.6153 38.1404 31.6014 38.1432 31.586 38.1446C31.5008 38.1502 31.4155 38.1544 31.3303 38.1516C31.2562 38.1502 31.1822 38.1418 31.1081 38.1349C31.0159 38.1279 31.2101 38.153 31.1165 38.1362C31.0998 38.1335 31.0816 38.1307 31.0648 38.1279C31.0103 38.1181 30.9572 38.1083 30.9041 38.0957C30.0574 37.9071 28.7469 37.8163 28.4506 38.8865C28.2383 39.6578 28.684 40.5325 29.1115 41.1486C29.3155 41.4434 29.5433 41.7229 29.8171 41.9562C29.8842 42.0135 29.9429 42.075 29.9988 42.1434C29.9233 42.0512 30.0169 42.1756 30.0337 42.2007C30.0644 42.2482 30.0924 42.2971 30.1203 42.3474C30.1441 42.3907 30.165 42.4341 30.1874 42.4788C30.1986 42.5025 30.2642 42.6548 30.2279 42.5668C30.2754 42.6842 30.3201 42.8029 30.3592 42.9245C30.5199 43.4121 30.6261 43.9179 30.7113 44.4237C30.7295 44.5313 30.7463 44.6403 30.7616 44.7478C30.7686 44.7953 30.7756 44.8442 30.7826 44.8917C30.798 44.9979 30.7714 44.7981 30.784 44.9015C30.7882 44.9309 30.791 44.9588 30.7952 44.9882C30.8147 45.1391 30.8315 45.2886 30.8455 45.4395C30.851 45.4967 30.8566 45.5526 30.8608 45.6099C31.0383 45.4758 31.2143 45.3403 31.3918 45.2061C31.1263 45.1279 30.8413 45.0385 30.6037 44.8945C30.5493 44.861 30.4976 44.8247 30.4459 44.7884C30.4165 44.7674 30.3872 44.745 30.3592 44.7241C30.355 44.7213 30.2558 44.6444 30.3201 44.6947C30.1496 44.5634 29.982 44.4307 29.8101 44.3021C29.1856 43.8369 28.3906 43.359 27.5788 43.4512C26.0544 43.6245 26.3101 45.6518 26.3534 46.7416C26.4009 47.953 26.4107 49.1672 26.2948 50.3758C26.2808 50.5267 26.264 50.6776 26.2459 50.8285C26.2249 50.9989 26.2123 51.0884 26.1788 51.3021C26.1229 51.6584 26.0544 52.0133 25.972 52.3654C25.8882 52.7287 25.789 53.0892 25.6758 53.4441C25.5682 53.7822 25.4187 54.1888 25.2999 54.4696C24.5455 56.2455 23.3676 57.767 21.8838 58.9952C21.983 58.9546 22.0808 58.9127 22.18 58.8722C21.9732 58.8904 21.7622 58.8834 21.5554 58.8708C21.4464 58.8638 21.3389 58.8554 21.2299 58.8443C21.2019 58.8415 21.079 58.8443 21.0608 58.8233C21.0594 58.8219 21.181 58.8415 21.1195 58.8317C21.1013 58.8289 21.0832 58.8261 21.0664 58.8233C21.0301 58.8177 20.9924 58.8121 20.956 58.8065C20.6668 58.759 20.3818 58.6948 20.1009 58.6123C19.943 58.5662 19.7852 58.5131 19.6301 58.4558C19.5518 58.4265 19.4764 58.3958 19.3995 58.365C19.3185 58.3329 19.4708 58.3986 19.4177 58.3734C19.3981 58.3636 19.3786 58.3566 19.359 58.3483C19.3115 58.3273 19.264 58.3063 19.2179 58.284C18.8672 58.1205 18.5319 57.9263 18.2147 57.7055C18.1337 57.6496 18.054 57.591 17.9758 57.5309C18.068 57.6007 17.9409 57.5015 17.9185 57.4834C17.871 57.4443 17.8235 57.4051 17.7774 57.3646C17.6083 57.2193 17.4462 57.0656 17.2925 56.9035C17.1291 56.7317 16.974 56.5514 16.8273 56.3642C16.8846 56.4369 16.7812 56.3013 16.7644 56.2804C16.7295 56.2315 16.6945 56.1826 16.6596 56.1337C16.5814 56.0219 16.5073 55.9087 16.4361 55.7942C16.2698 55.5273 16.1189 55.2492 15.982 54.9656C15.8367 54.6624 15.7486 54.4486 15.6285 54.1091C15.3602 53.3532 15.18 52.568 15.057 51.7758C14.8516 51.9337 14.6462 52.0916 14.4408 52.2494C15.2414 52.6993 16.1999 53.0696 17.1277 52.8279C17.8878 52.6295 18.4424 52.0301 18.8267 51.3734C19.2864 50.5868 19.5686 49.6981 19.8285 48.8305C20.1163 47.8664 20.3678 46.8911 20.6794 45.9327C20.7576 45.6937 20.8387 45.4576 20.9253 45.2215C20.9686 45.1055 21.0119 44.9909 21.058 44.8764C21.079 44.8247 21.0999 44.773 21.1223 44.7199C21.1502 44.65 21.0902 44.7925 21.1293 44.7045C21.1419 44.6752 21.1544 44.6444 21.1684 44.6151C21.3542 44.1917 21.5666 43.7796 21.8237 43.3953C21.8852 43.3045 21.9494 43.2165 22.0151 43.1285C21.9439 43.2249 22.0305 43.1089 22.0584 43.0768C22.0947 43.0321 22.1325 42.9887 22.1702 42.9454C22.3071 42.7917 22.4538 42.6478 22.6131 42.5165C22.6341 42.4983 22.6564 42.4816 22.6788 42.4648C22.6369 42.4997 22.6215 42.5067 22.6704 42.4732C22.7123 42.4424 22.7542 42.4131 22.7961 42.3838C22.8814 42.3265 22.9708 42.272 23.0616 42.2231C23.1077 42.1979 23.1538 42.1742 23.1999 42.1518C23.2223 42.142 23.2433 42.1309 23.2656 42.1211C23.2768 42.1155 23.288 42.1113 23.2991 42.1057C23.3452 42.082 23.2167 42.1365 23.2656 42.1197C23.3662 42.0848 23.464 42.0442 23.5674 42.0135C23.6722 41.9828 23.7798 41.9562 23.8874 41.9367C23.9433 41.9255 23.9991 41.9185 24.055 41.9087C23.9293 41.9297 24.0983 41.9045 24.1431 41.9017C24.5636 41.8668 24.9814 41.8235 25.3936 41.7285C25.9888 41.5915 26.6496 41.3414 26.9794 40.7909C27.4991 39.9233 26.8704 38.9061 26.5085 38.1097C26.4862 38.0608 26.4652 38.0105 26.4429 37.9616C26.4317 37.9364 26.4778 38.0496 26.447 37.9714C26.4373 37.9448 26.4261 37.9197 26.4163 37.8931C26.3814 37.8023 26.3492 37.7087 26.3241 37.6137C26.3129 37.5732 26.3045 37.5313 26.2962 37.4907C26.292 37.4712 26.2864 37.3859 26.2906 37.467C26.2948 37.5494 26.2906 37.4628 26.2906 37.4432C26.285 37.3426 26.2808 37.242 26.2822 37.1414C26.285 36.883 26.3101 36.6259 26.3395 36.3688C26.3492 36.285 26.3297 36.4289 26.3423 36.345C26.3478 36.3101 26.352 36.2766 26.3576 36.2416C26.3702 36.1592 26.3842 36.0754 26.3981 35.9929C26.4261 35.8323 26.4582 35.6716 26.4932 35.5109C26.5686 35.1714 26.658 34.8346 26.7642 34.5035C26.8187 34.3331 26.8774 34.1654 26.9417 33.9977C27.0157 33.8049 27.0381 33.749 27.1135 33.5869C27.256 33.274 27.4195 32.9694 27.6109 32.6829C27.657 32.6145 27.7045 32.5474 27.7534 32.4804C27.7995 32.4161 27.7297 32.5069 27.78 32.4468C27.8065 32.4133 27.8345 32.3798 27.8624 32.3476C27.963 32.2303 28.072 32.1171 28.188 32.0137C28.2145 31.9899 28.2411 31.9676 28.2676 31.9452C28.3459 31.8796 28.2453 31.9564 28.3053 31.9159C28.3612 31.8768 28.4157 31.8376 28.473 31.8027C28.5345 31.765 28.5974 31.7301 28.663 31.6979C28.677 31.6909 28.7664 31.6504 28.7189 31.6714C28.663 31.6937 28.772 31.6518 28.7846 31.6462C28.997 31.5694 29.1409 31.3612 29.078 31.1307C29.0221 30.9253 28.7762 30.7604 28.5624 30.8372C27.2309 31.3179 26.5057 32.7165 26.0572 33.9712C25.8281 34.6125 25.6604 35.2776 25.5542 35.9496C25.4746 36.4526 25.3977 36.9836 25.4508 37.4935C25.4997 37.956 25.7023 38.3738 25.8993 38.7887C25.9482 38.8907 25.9972 38.9941 26.0447 39.0975C26.067 39.145 26.088 39.1925 26.1089 39.24C26.1187 39.2638 26.1299 39.2875 26.1397 39.3113C26.1089 39.2386 26.1229 39.2694 26.1425 39.3183C26.2207 39.5181 26.2808 39.7165 26.3241 39.9261C26.3409 40.0057 26.3227 39.8814 26.3213 39.9051C26.3199 39.9261 26.3255 39.9512 26.3269 39.9722C26.3297 40.0239 26.3283 40.0742 26.3283 40.1259C26.3255 40.2432 26.3506 40.0504 26.3241 40.1636C26.3129 40.2125 26.2975 40.26 26.2836 40.3075C26.2626 40.3788 26.3045 40.274 26.292 40.2879C26.2794 40.3019 26.271 40.3299 26.2612 40.3466C26.25 40.3662 26.2375 40.3844 26.2263 40.4039C26.1942 40.457 26.1802 40.4444 26.2291 40.4025C26.1886 40.4361 26.1564 40.4836 26.1173 40.5185C26.0977 40.5367 26.0768 40.552 26.0572 40.5702C26.0237 40.5995 26.088 40.5464 26.088 40.5464C26.0726 40.5562 26.0572 40.5688 26.0419 40.5786C25.986 40.6135 25.9301 40.6484 25.8714 40.6792C25.8421 40.6945 25.8127 40.7085 25.7834 40.7225C25.6995 40.7644 25.8057 40.7169 25.7387 40.7434C25.5724 40.8063 25.4047 40.8594 25.2315 40.9013C24.8696 40.9893 24.5063 41.0299 24.1361 41.0606C23.1874 41.1402 22.3281 41.5496 21.6714 42.2412C21.0077 42.9385 20.576 43.8159 20.2253 44.7017C19.8564 45.6337 19.5882 46.6019 19.3157 47.5646C19.1816 48.0411 19.046 48.5175 18.8979 48.9884C18.8295 49.2077 18.7568 49.4257 18.68 49.6423C18.6422 49.7484 18.6031 49.8546 18.5626 49.9594C18.5444 50.0069 18.5263 50.0544 18.5067 50.1019C18.4955 50.1285 18.4844 50.1564 18.4732 50.183C18.4662 50.1997 18.4285 50.2892 18.4564 50.2249C18.4816 50.1662 18.4257 50.2947 18.4145 50.3213C18.3921 50.373 18.3684 50.4233 18.3446 50.475C18.3027 50.563 18.2594 50.651 18.2147 50.7377C18.1253 50.9067 18.0289 51.0716 17.9199 51.2295C17.8961 51.2644 17.871 51.2979 17.8472 51.3315C17.7969 51.4013 17.8668 51.3077 17.857 51.3203C17.8416 51.3385 17.8277 51.358 17.8123 51.3762C17.7578 51.4433 17.7005 51.5075 17.6391 51.569C17.5832 51.6263 17.5231 51.6794 17.4616 51.7325C17.4448 51.7464 17.4267 51.759 17.4099 51.7744C17.4365 51.7492 17.4896 51.7171 17.4351 51.7548C17.4015 51.7772 17.3694 51.8009 17.3345 51.8233C17.2674 51.8666 17.1961 51.9043 17.1249 51.9407C17.1081 51.949 17.09 51.9546 17.0746 51.9644C17.0536 51.977 17.178 51.9267 17.1067 51.9504C17.0662 51.9644 17.0257 51.9812 16.9838 51.9938C16.9083 52.0175 16.8315 52.0343 16.7532 52.0496C16.6275 52.0748 16.8329 52.0454 16.7197 52.0538C16.6764 52.0566 16.6331 52.0608 16.5898 52.0622C16.4989 52.065 16.4081 52.0622 16.3173 52.0552C16.2628 52.051 16.1552 52.0245 16.2754 52.0524C16.2237 52.0399 16.1692 52.0357 16.1161 52.0245C15.9023 51.9812 15.6941 51.9141 15.4915 51.8345C15.4454 51.8163 15.4007 51.7967 15.4734 51.8289C15.4468 51.8177 15.4203 51.8051 15.3937 51.794C15.3393 51.7688 15.2848 51.7437 15.2303 51.7171C15.1045 51.657 14.983 51.5914 14.8614 51.5229C14.5163 51.3287 14.1921 51.6472 14.2452 51.9965C14.6309 54.4822 15.6704 56.9455 17.7872 58.4279C18.9245 59.2243 20.3161 59.6686 21.7007 59.7161C21.8349 59.7203 21.9704 59.7217 22.1059 59.7147C22.1283 59.7133 22.1506 59.7119 22.1744 59.7105C22.3784 59.6924 22.5055 59.5624 22.6522 59.4367C22.8269 59.2872 22.9987 59.1335 23.165 58.9756C24.3317 57.8676 25.2888 56.5361 25.9441 55.0662C27.0115 52.6728 27.277 50.06 27.2113 47.4654C27.1987 46.9848 27.1764 46.5055 27.1582 46.0263C27.1512 45.846 27.1471 45.6658 27.1498 45.4842C27.1512 45.3878 27.1554 45.2913 27.1638 45.1949C27.1666 45.1642 27.168 45.1349 27.1708 45.1041C27.1736 45.0748 27.1764 45.0454 27.1806 45.0161C27.175 45.0566 27.175 45.0524 27.1834 45.0021C27.2057 44.8652 27.2463 44.7367 27.2812 44.6025C27.3077 44.5005 27.2407 44.671 27.2882 44.5816C27.3035 44.5536 27.3147 44.5257 27.3315 44.4991C27.3441 44.4782 27.358 44.4572 27.3706 44.4363C27.4223 44.3496 27.3273 44.467 27.3832 44.4195C27.4013 44.4041 27.4265 44.3804 27.4419 44.3608C27.495 44.2951 27.3678 44.3957 27.4433 44.3594C27.4712 44.3454 27.6025 44.2882 27.4894 44.3259C27.5453 44.3077 27.5997 44.2937 27.657 44.2798C27.548 44.3049 27.6417 44.2812 27.6696 44.2812C27.7031 44.2812 27.7367 44.2784 27.7702 44.2798C27.8051 44.2798 27.8401 44.284 27.8764 44.2854C27.9952 44.2909 27.794 44.2658 27.9155 44.2896C27.9952 44.3063 28.0748 44.3217 28.1544 44.344C28.3445 44.3985 28.4954 44.4642 28.67 44.5592C28.976 44.7241 29.3253 44.977 29.5572 45.1572C29.785 45.3333 30.0113 45.5414 30.2712 45.6714C30.5534 45.8125 30.8636 45.9271 31.1668 46.0165C31.4127 46.0892 31.7187 45.8838 31.6978 45.6127C31.6447 44.9309 31.5427 44.2448 31.3988 43.577C31.2898 43.0726 31.1473 42.5752 30.9321 42.1043C30.8371 41.8989 30.7211 41.7075 30.5744 41.5329C30.4738 41.4127 30.3467 41.3219 30.2363 41.2115C30.1818 41.157 30.1287 41.1011 30.0784 41.0438C30.0532 41.0145 30.0281 40.9852 30.0029 40.9544C29.989 40.9376 29.975 40.9195 29.961 40.9027C29.8926 40.8217 30.0001 40.9586 29.9512 40.8901C29.8437 40.742 29.7403 40.5939 29.6467 40.4361C29.5964 40.3508 29.5489 40.2656 29.5041 40.1776C29.4846 40.1384 29.465 40.0993 29.4469 40.0588C29.4343 40.0309 29.3686 39.873 29.4133 39.9862C29.3477 39.8157 29.2876 39.6438 29.254 39.4636C29.2512 39.4468 29.2485 39.4301 29.2457 39.4133C29.2275 39.3281 29.2429 39.4929 29.2485 39.437C29.2526 39.4021 29.2415 39.363 29.2401 39.3281C29.2387 39.2889 29.2401 39.2498 29.2415 39.2107C29.2415 39.1967 29.2457 39.18 29.2443 39.1646C29.2415 39.0877 29.2163 39.268 29.2443 39.1772C29.254 39.1464 29.261 39.1143 29.268 39.0822C29.2918 38.9816 29.2219 39.1534 29.2736 39.064C29.2918 39.0347 29.3127 39.0039 29.3281 38.9732C29.2848 39.0556 29.3029 39.0081 29.3463 38.9606C29.3574 38.948 29.3784 38.9382 29.3882 38.9243C29.4133 38.8879 29.2988 38.9746 29.3672 38.9424C29.4021 38.9257 29.4399 38.9033 29.472 38.8824C29.5209 38.8516 29.3938 38.9033 29.493 38.8754C29.5489 38.8586 29.6047 38.8432 29.6606 38.8307C29.6816 38.8265 29.7011 38.8237 29.7221 38.8195C29.6117 38.8418 29.7207 38.8195 29.7431 38.8181C29.7906 38.8139 29.8395 38.8111 29.887 38.8097C30.0323 38.8055 30.179 38.8139 30.3243 38.8307C30.4626 38.846 30.682 38.9159 30.8664 38.9452C31.0578 38.976 31.252 38.9983 31.4477 38.9941C31.7956 38.9857 32.1267 38.9075 32.4411 38.7622C32.9944 38.5051 33.4093 38.0175 33.7251 37.5089C34.365 36.4806 34.6431 35.258 35.3347 34.2618C35.3542 34.2338 35.3738 34.2073 35.3934 34.1808C35.4507 34.1011 35.3473 34.2352 35.3878 34.1877C35.4339 34.1346 35.4772 34.0788 35.5247 34.0271C35.5624 33.9865 35.603 33.946 35.6435 33.9083C35.6658 33.8873 35.6896 33.8678 35.7119 33.8482C35.7916 33.7784 35.677 33.8692 35.7119 33.8468C35.7622 33.8147 35.8097 33.7784 35.86 33.749C35.8824 33.735 35.9061 33.7225 35.9299 33.7113C35.9425 33.7043 35.9564 33.6987 35.969 33.6917C36.0389 33.6554 35.9523 33.7197 35.9341 33.7057C35.9425 33.7127 36.078 33.6554 36.0948 33.6512C36.1213 33.6442 36.1479 33.6372 36.1744 33.6317C36.1898 33.6289 36.2052 33.6261 36.2191 33.6233C36.3169 33.6009 36.1898 33.633 36.1912 33.6261C36.1954 33.5925 36.5447 33.6261 36.5782 33.6261C36.6327 33.6261 36.4636 33.6037 36.5419 33.6205C36.5558 33.6233 36.5712 33.6247 36.5852 33.6275C36.6215 33.6344 36.6592 33.6414 36.6956 33.6498C36.7738 33.668 36.8507 33.6889 36.9275 33.7141C36.968 33.7281 37.0085 33.742 37.0491 33.7574C37.077 33.7686 37.2153 33.8273 37.0994 33.7756C37.1874 33.8147 37.2754 33.8566 37.362 33.8999C37.5549 33.9991 37.7407 34.1123 37.9209 34.2325C38.1403 34.3792 38.3331 34.5245 38.4952 34.653C38.6293 34.7606 38.7858 34.8137 38.9535 34.7396C39.1002 34.6754 39.2175 34.5245 39.2105 34.3568C39.1952 33.939 39.1966 33.5171 39.1616 33.1007C39.1225 32.6173 38.9325 32.1688 38.6014 31.8125C38.2423 31.4255 37.7742 31.2718 37.2838 31.1209C35.4004 30.541 33.4135 30.1093 31.4309 30.2462C30.4501 30.3147 29.486 30.5159 28.5582 30.84C28.3445 30.9141 28.2019 31.1265 28.2648 31.3556C28.3263 31.561 28.5708 31.7217 28.7846 31.6462Z" fill="#05194C"/>
<path d="M29.9385 51.6668C30.3018 51.1429 30.6483 50.6133 30.9152 50.0321C31.3483 49.0876 31.6026 48.0872 31.6445 47.0477C31.6753 46.3113 31.5914 45.5708 31.4391 44.8513C31.3707 44.5285 30.9753 44.3119 30.6651 44.4125C30.3242 44.5229 30.1537 44.8401 30.2263 45.1866C30.2585 45.3417 30.2892 45.4968 30.313 45.6533C30.3186 45.6854 30.3437 45.8754 30.3297 45.7581C30.3395 45.8363 30.3479 45.9159 30.3563 45.9942C30.3842 46.2834 30.3968 46.574 30.3912 46.8632C30.387 47.1217 30.3647 47.3788 30.3367 47.6359C30.3269 47.7295 30.3549 47.5241 30.3395 47.6149C30.3353 47.6387 30.3325 47.6638 30.3283 47.6876C30.3186 47.7505 30.3074 47.8147 30.2962 47.8776C30.2739 48.0006 30.2473 48.1221 30.218 48.2423C30.1663 48.4561 30.1048 48.6684 30.0335 48.8766C30.0014 48.9688 29.9693 49.0597 29.9329 49.1505C29.9204 49.184 29.8701 49.265 29.8729 49.3C29.8729 49.2902 29.9343 49.1589 29.8896 49.2595C29.8784 49.2832 29.8687 49.307 29.8575 49.3307C29.7122 49.6577 29.5417 49.9734 29.3545 50.278C29.1952 50.5365 29.022 50.7852 28.8501 51.0353C28.6615 51.3064 28.7914 51.7451 29.0751 51.896C29.3992 52.0623 29.7373 51.9561 29.9385 51.6668Z" fill="#05194C"/>
<path d="M38.3485 34.0608C38.4086 34.0371 38.4477 34.0804 38.2158 34.0748C38.2982 34.0762 38.0621 34.0511 38.0789 34.0539C38.1948 34.0762 37.9 33.9616 38.0034 34.0203C38.118 34.086 37.8861 33.9058 37.9531 33.9798C37.9797 34.0091 38.0104 34.0357 38.037 34.065C38.0523 34.0818 38.0663 34.1 38.0817 34.1181C38.1515 34.1978 38.0453 34.0748 38.03 34.0497C38.0593 34.0972 38.0956 34.1405 38.1278 34.1866C38.199 34.2914 38.2647 34.4004 38.3276 34.5107C38.4896 34.793 38.635 35.0864 38.7733 35.3812C38.8557 35.5559 38.934 35.7333 39.0108 35.9107C39.0276 35.9499 39.0443 35.989 39.0611 36.0295C39.1282 36.186 39.008 35.901 39.0737 36.0602C39.117 36.1636 39.1589 36.2684 39.2008 36.3718C39.898 38.1058 40.4723 39.9179 40.7978 41.7609C40.816 41.8642 40.8328 41.9676 40.8495 42.0696C40.8579 42.1255 40.8663 42.1828 40.8747 42.2387C40.8775 42.2611 40.8803 42.2834 40.8845 42.3058C40.9026 42.4329 40.8649 42.1437 40.8803 42.2708C40.904 42.472 40.9278 42.6746 40.9417 42.8772C40.9669 43.2321 40.9753 43.5898 40.9403 43.9447C40.9376 43.9782 40.9334 44.0104 40.9292 44.0439C40.9208 44.1221 40.9585 43.8497 40.932 44.0201C40.9194 44.0956 40.9054 44.1696 40.8873 44.2437C40.8719 44.3052 40.8551 44.3666 40.8342 44.4281C40.8258 44.4533 40.816 44.4784 40.8062 44.505C40.7978 44.5301 40.7671 44.6014 40.816 44.484C40.8425 44.4211 40.8481 44.4086 40.8328 44.4449C40.8118 44.4868 40.8258 44.47 40.8733 44.396C40.8677 44.4449 40.7433 44.5273 40.707 44.5623C40.6386 44.6279 40.5673 44.6908 40.4946 44.7523C40.4667 44.776 40.4374 44.7998 40.408 44.8235C40.3144 44.9004 40.3857 44.8417 40.4052 44.8263C40.327 44.885 40.2473 44.9423 40.1649 44.9968C39.9064 45.1714 39.6354 45.3237 39.3587 45.4676C38.9382 45.6856 38.4533 45.87 38.1138 46.2124C37.8469 46.482 37.7701 46.809 37.7575 47.175C37.7449 47.4964 37.7813 47.8205 37.8204 48.1391C37.8819 48.6211 37.9601 49.1018 38.0537 49.5782C38.2535 50.5898 38.505 51.5916 38.804 52.578C39.0653 53.4387 39.3531 54.3148 39.7737 55.1126C39.8421 55.2425 39.9162 55.3697 40 55.4898C40.1887 55.7581 40.5589 55.9104 40.8607 55.7148C41.1276 55.5429 41.2883 55.1419 41.0857 54.8541C40.8942 54.5802 40.7531 54.2742 40.619 53.9683C40.5645 53.8453 40.6735 54.1038 40.6148 53.9557C40.5938 53.904 40.5729 53.8537 40.5533 53.802C40.51 53.6944 40.4695 53.5854 40.429 53.4778C40.3465 53.2557 40.2697 53.0321 40.1956 52.8086C39.8687 51.8152 39.6004 50.7994 39.3783 49.778C39.2777 49.317 39.1869 48.8531 39.1156 48.3878C39.1002 48.2914 39.0932 48.1908 39.0723 48.0944C39.1198 48.3138 39.0779 48.1307 39.0709 48.0762C39.0653 48.0273 39.0597 47.9784 39.0541 47.9281C39.036 47.7619 39.022 47.5956 39.0164 47.4293C39.0122 47.298 39.0178 47.168 39.0248 47.0367C39.0304 46.9305 38.9871 47.2281 39.0136 47.1177C39.0192 47.0954 39.0234 47.0716 39.0276 47.0507C39.0304 47.0353 39.0387 47.0199 39.0415 47.0046C39.0527 46.9319 38.9647 47.1736 38.9926 47.1191C38.9996 47.1052 39.0066 47.0912 39.015 47.0786C39.0611 47.0074 38.8906 47.2058 38.9871 47.1164C39.0136 47.0912 39.0597 47.0591 39.0807 47.0297C39.0136 47.1233 38.9675 47.1108 39.0206 47.0772C39.0415 47.0633 39.0611 47.0493 39.0821 47.0353C39.131 47.0032 39.1813 46.9724 39.233 46.9431C39.4481 46.8201 39.6745 46.714 39.8952 46.6008C40.5086 46.2878 41.0968 45.9217 41.5984 45.4467C41.7256 45.3265 41.8513 45.205 41.9324 45.0485C41.9827 44.9507 42.0246 44.8347 42.0595 44.7285C42.1042 44.5902 42.1336 44.4477 42.1559 44.3038C42.2831 43.4682 42.202 42.6313 42.0763 41.8C41.7912 39.9165 41.2114 38.0624 40.5198 36.2922C40.225 35.5363 39.9092 34.7804 39.5222 34.065C39.2833 33.6235 38.9717 33.0101 38.4547 32.8509C38.3234 32.8103 38.1473 32.7936 38.016 32.8453C37.7114 32.964 37.4641 33.2728 37.5773 33.6193C37.6709 33.9183 38.0202 34.188 38.3485 34.0608Z" fill="#05194C"/>
<path d="M40.6357 17.5528C40.3521 17.0694 40.0684 16.5846 39.7848 16.1012C39.6353 15.8469 39.4956 15.5954 39.1686 15.5493C38.8487 15.5045 38.5301 15.4598 38.2101 15.4165C38.0802 15.3984 37.9517 15.3816 37.8259 15.3439C37.7812 15.3299 37.6219 15.2572 37.7435 15.3201C37.6848 15.2894 37.6261 15.2614 37.5702 15.2279C37.5353 15.2069 37.3942 15.0854 37.4976 15.1832C37.4445 15.1329 37.3872 15.0854 37.3369 15.0323C37.3145 15.0085 37.2936 14.982 37.2712 14.9582C37.2111 14.8926 37.3243 15.0449 37.2796 14.968C37.2517 14.9177 37.2153 14.8716 37.1874 14.8199C37.165 14.7794 37.1035 14.6145 37.1455 14.7417C37.1203 14.6634 37.0924 14.5866 37.0644 14.5097C36.9722 14.2443 36.8744 13.9802 36.771 13.7189C36.4287 12.861 36.0221 12.0409 35.4688 11.2989C34.7325 10.3111 33.8592 9.43647 33.0069 8.55064C32.965 8.88038 32.9217 9.20873 32.8798 9.53847C33.0041 9.46022 33.1313 9.38757 33.264 9.3233C33.2934 9.30932 33.3227 9.29535 33.352 9.28138C33.3716 9.2716 33.468 9.23527 33.3856 9.26601C33.3031 9.29535 33.3982 9.26182 33.4177 9.25483C33.4526 9.24226 33.489 9.22968 33.5239 9.21711C33.6385 9.17938 33.7558 9.14865 33.876 9.12629C33.9025 9.1207 33.9305 9.11791 33.957 9.11232C34.0409 9.09555 33.8257 9.1221 33.9095 9.1193C33.9682 9.11651 34.0269 9.10952 34.0856 9.10673C34.1932 9.10393 34.2994 9.11372 34.4069 9.1193C34.4894 9.1235 34.27 9.09415 34.3497 9.11092C34.3734 9.11651 34.3986 9.1193 34.4223 9.1235C34.4768 9.13328 34.5299 9.14585 34.583 9.15982C34.6836 9.18637 34.78 9.22409 34.8778 9.25623C34.9546 9.28138 34.7562 9.20034 34.8289 9.23527C34.8512 9.24645 34.8736 9.25483 34.896 9.26601C34.9463 9.28976 34.9952 9.31352 35.0441 9.34006C35.2313 9.44066 35.392 9.58318 35.575 9.68517C35.4157 9.59715 35.5708 9.68238 35.6099 9.71591C35.6491 9.74805 35.6882 9.78158 35.7259 9.81511C35.8069 9.88637 35.888 9.95903 35.9662 10.0345C36.2792 10.3335 36.567 10.6548 36.8576 10.9762C37.1343 11.2808 37.4095 11.5938 37.7351 11.8494C37.9838 12.0451 38.2926 12.1051 38.5608 11.8983C38.8291 11.6916 38.8473 11.3814 38.7229 11.0866C38.3485 10.2063 37.9726 9.32609 37.5982 8.44585C37.0016 7.04445 36.4035 5.64305 35.8069 4.24165C35.67 3.92169 35.5345 3.60173 35.3976 3.28177C35.4185 3.44385 35.4395 3.60453 35.4604 3.7666C35.6365 3.18257 35.8139 2.59993 35.99 2.0159C36.0375 1.85941 36.085 1.70293 36.1325 1.54644C36.1576 1.4654 36.2023 1.37039 36.2121 1.28376C36.2121 1.27818 36.2163 1.27259 36.2177 1.267C36.1786 1.40113 36.2205 1.27818 36.2373 1.24045C36.1996 1.32428 36.1926 1.29913 36.2289 1.25861C36.3239 1.14963 36.1562 1.30053 36.2317 1.25722C36.3071 1.2139 36.1241 1.28237 36.2093 1.26281C36.3505 1.23067 36.1744 1.24604 36.2275 1.25023C36.3644 1.26281 36.2345 1.25303 36.2317 1.24185C36.2317 1.24325 36.2401 1.24325 36.2401 1.24325C36.2554 1.25023 36.275 1.25023 36.2918 1.25442C37.601 1.55482 38.9213 1.8161 40.2361 2.09694C40.7153 2.19894 41.1932 2.30093 41.6724 2.40432C41.5467 2.30792 41.4223 2.21151 41.2966 2.1151C41.685 2.80951 42.0748 3.50393 42.4632 4.19694C43.1898 5.49215 43.9149 6.78737 44.6415 8.08258C45.0425 8.79934 45.4547 9.51052 45.8459 10.2315C45.8612 10.2594 45.8752 10.2874 45.8892 10.3153C45.9353 10.4075 45.864 10.2399 45.899 10.3377C45.9129 10.3768 45.9255 10.4159 45.9367 10.4564C45.9479 10.4956 45.9535 10.5389 45.966 10.5766C45.9968 10.6702 45.966 10.4956 45.9702 10.5934C45.973 10.6674 45.9772 10.7387 45.9758 10.8127C45.9744 10.8518 45.973 10.891 45.9716 10.9301C45.9618 11.1634 45.9535 11.3968 45.9437 11.6301C45.9157 12.3594 45.8864 13.0902 45.8584 13.8195C45.8403 14.2764 45.7816 14.7514 45.8165 15.2083C45.8557 15.7281 46.0457 16.178 46.3419 16.6C46.5417 16.885 46.7429 17.1686 46.9427 17.4536C46.9902 17.5207 47.0363 17.5878 47.0838 17.6534C47.2724 17.9217 47.6427 18.074 47.9445 17.8784C48.2113 17.7065 48.372 17.3055 48.1694 17.0177C48.0074 16.7872 47.8453 16.5566 47.6832 16.3261C47.4988 16.0634 47.2654 15.791 47.1397 15.492C47.1816 15.594 47.1145 15.3984 47.1048 15.362C47.095 15.3229 47.0866 15.2852 47.0782 15.2461C47.0517 15.1231 47.074 15.2083 47.0754 15.2363C47.0684 15.1524 47.067 15.0686 47.0698 14.9848C47.0712 14.9261 47.074 14.8674 47.0768 14.8087C47.088 14.5293 47.0992 14.2512 47.109 13.9718C47.1383 13.2047 47.169 12.4377 47.1984 11.6692C47.2082 11.4219 47.2179 11.1732 47.2277 10.9259C47.2459 10.4578 47.1565 10.0093 46.9301 9.59435C46.5165 8.83148 46.0806 8.07839 45.6559 7.3211C44.8958 5.96581 44.1371 4.61052 43.377 3.25522C43.1129 2.78297 42.8475 2.31071 42.5834 1.83846C42.4213 1.55063 42.3012 1.25861 41.9393 1.17339C40.6678 0.87578 39.3838 0.627077 38.1067 0.354621C37.6093 0.248434 37.1133 0.139452 36.6159 0.0360581C36.057 -0.0799101 35.5121 0.0807688 35.1768 0.562805C35.0231 0.783564 34.9602 1.06859 34.8834 1.32428C34.6836 1.98516 34.4838 2.64604 34.284 3.30692C34.2211 3.5165 34.2197 3.69674 34.3105 3.91191C34.3175 3.92868 34.3245 3.94405 34.3315 3.96081C34.386 4.08796 34.4391 4.21511 34.4936 4.34225C35.0273 5.59555 35.561 6.85024 36.0962 8.10353C36.5824 9.24505 37.0686 10.3866 37.5548 11.5267C37.5814 11.5896 37.6093 11.6538 37.6359 11.7167C37.9656 11.4624 38.294 11.2081 38.6237 10.9552C37.9712 10.4411 37.4794 9.74246 36.8842 9.16821C36.1493 8.46122 35.255 7.86461 34.2015 7.84505C33.5057 7.83248 32.8295 8.08537 32.2469 8.44864C31.8989 8.66521 31.8333 9.13886 32.1197 9.43647C32.7107 10.0512 33.3101 10.6604 33.8718 11.3045C33.978 11.4275 34.0842 11.5518 34.1862 11.6776C34.1988 11.693 34.3399 11.8676 34.3385 11.869C34.3385 11.869 34.2491 11.7516 34.3371 11.869C34.3692 11.9109 34.4 11.9528 34.4321 11.9962C34.6165 12.2477 34.7884 12.5075 34.9435 12.7772C35.1083 13.0622 35.2564 13.3556 35.392 13.656C35.4227 13.7231 35.452 13.7916 35.4814 13.8586C35.5443 14.0025 35.4297 13.7301 35.4884 13.8768C35.5065 13.9201 35.5233 13.9634 35.5415 14.0067C35.6225 14.2079 35.698 14.4105 35.772 14.6131C35.9411 15.0812 36.0892 15.5227 36.4301 15.9C36.7403 16.2423 37.1846 16.4994 37.6373 16.5902C38.062 16.6754 38.4994 16.7131 38.9283 16.7732C38.8026 16.6768 38.6782 16.5804 38.5525 16.484C38.885 17.0513 39.2161 17.6185 39.5487 18.1844C39.7149 18.468 40.1229 18.5938 40.4093 18.4093C40.6958 18.2291 40.8131 17.8574 40.6357 17.5528Z" fill="#05194C"/>
<path d="M54.2809 90.9987C54.429 92.1375 54.5855 93.2748 54.7419 94.4121C54.9585 95.9826 55.1779 97.5516 55.3972 99.1207C55.6655 101.036 55.9366 102.95 56.2076 104.865C56.5108 106.998 56.814 109.133 57.1186 111.267C57.4316 113.466 57.7459 115.664 58.0617 117.863C58.3677 119.999 58.6737 122.135 58.9811 124.272C59.2591 126.211 59.5386 128.149 59.818 130.088C60.0485 131.694 60.2805 133.301 60.5124 134.906C60.6759 136.043 60.8408 137.181 61.0042 138.318C61.0811 138.85 61.1384 139.388 61.2348 139.918C61.239 139.94 61.2418 139.964 61.2446 139.986C61.299 139.782 61.3521 139.578 61.4066 139.374C61.6372 139.194 61.4905 139.31 61.4234 139.359C61.3256 139.43 61.2264 139.499 61.1272 139.567C60.7779 139.803 60.4174 140.023 60.0485 140.228C58.8386 140.903 57.6775 141.375 56.3138 141.715C55.3861 141.946 54.4457 142.075 53.4901 142.095C53.6926 142.248 53.8938 142.402 54.0964 142.556C53.7639 141.6 53.4314 140.646 53.0988 139.69C52.3038 137.406 51.5088 135.121 50.7138 132.835C49.7497 130.065 48.7857 127.294 47.8216 124.523C46.9916 122.137 46.1603 119.75 45.3304 117.364C44.928 116.206 44.5409 115.042 44.1218 113.889C44.1162 113.874 44.1106 113.857 44.105 113.842C43.9932 113.522 43.6747 113.308 43.331 113.403C43.0194 113.488 42.7791 113.854 42.8922 114.177C43.2248 115.133 43.5573 116.087 43.8898 117.043C44.6848 119.327 45.4799 121.612 46.2749 123.897C47.2389 126.668 48.203 129.439 49.1671 132.209C49.997 134.596 50.8284 136.982 51.6583 139.369C52.0607 140.527 52.4449 141.692 52.8669 142.844C52.8725 142.859 52.8781 142.876 52.8837 142.891C52.9745 143.151 53.2008 143.359 53.4901 143.352C56.3837 143.293 59.2773 142.304 61.6819 140.704C61.8915 140.565 62.0968 140.418 62.2953 140.263C62.4811 140.118 62.4867 139.858 62.4573 139.651C62.4042 139.288 62.3525 138.923 62.2994 138.56C62.1555 137.558 62.0102 136.557 61.8663 135.556C61.6511 134.059 61.4346 132.564 61.2194 131.068C60.9497 129.2 60.6815 127.332 60.4132 125.462C60.1114 123.362 59.8096 121.262 59.5092 119.162C59.1962 116.976 58.8833 114.79 58.5703 112.604C58.2629 110.448 57.9555 108.291 57.6481 106.133C57.3673 104.152 57.0865 102.169 56.807 100.187C56.5723 98.5157 56.3376 96.8432 56.1056 95.1708C56.012 94.4931 55.9184 93.8155 55.8262 93.1393C55.7857 92.8472 55.7465 92.5566 55.7074 92.2646C55.699 92.2045 55.6907 92.143 55.6823 92.083C55.6781 92.0508 55.6739 92.0187 55.6697 91.9866C55.6585 91.9055 55.6934 92.1598 55.6739 92.0187C55.6571 91.8943 55.6404 91.7714 55.6236 91.647C55.5942 91.4305 55.5663 91.2125 55.5384 90.9959C55.495 90.6592 55.2813 90.3672 54.9096 90.3672C54.6036 90.37 54.2362 90.6592 54.2809 90.9987Z" fill="#05194C"/>
<path d="M45.0229 105.606C44.8468 105.996 44.7504 106.425 44.6372 106.836C44.4053 107.674 44.1832 108.516 43.9624 109.358C43.261 112.025 42.5778 114.696 41.8945 117.369C41.0674 120.605 40.2472 123.842 39.4285 127.081C38.6949 129.983 37.9628 132.885 37.2334 135.787C36.8143 137.453 36.3965 139.118 35.9788 140.784C35.9536 140.886 35.8865 141.029 35.8907 141.136C35.8893 141.109 35.9899 140.916 35.8949 141.125C35.6756 141.604 35.4604 142.084 35.2438 142.564C34.2602 144.736 33.2766 146.91 32.2915 149.083C30.953 152.039 29.6145 154.996 28.2759 157.952C27.0366 160.69 25.7973 163.427 24.558 166.164C23.8719 167.68 23.1859 169.194 22.4999 170.71C22.4678 170.78 22.4356 170.851 22.4035 170.921C22.6396 170.825 22.8771 170.729 23.1133 170.632C21.3248 169.887 19.535 169.144 17.7466 168.399C14.9089 167.219 12.0697 166.038 9.23201 164.857C8.57951 164.586 7.92702 164.315 7.27452 164.043C7.40027 164.35 7.52462 164.659 7.65037 164.966C8.06953 164.06 8.49009 163.153 8.90925 162.246C9.92502 160.051 10.9422 157.855 11.958 155.66C13.2378 152.895 14.5176 150.13 15.7975 147.364C16.9767 144.817 18.156 142.269 19.3352 139.722C20.0827 138.105 20.8316 136.49 21.5791 134.873C21.7105 134.59 21.9424 134.228 21.9634 133.909C21.9843 133.594 21.969 133.272 21.9717 132.956C21.9913 130.905 22.0165 128.854 22.0444 126.803C22.0863 123.728 22.1352 120.654 22.1981 117.579C22.261 114.517 22.3336 111.456 22.4454 108.396C22.5194 106.389 22.5656 104.365 22.7975 102.369C22.8017 102.335 22.8059 102.303 22.8101 102.27C22.824 102.141 22.7835 102.443 22.8031 102.32C22.8129 102.264 22.8185 102.208 22.8282 102.152C22.8436 102.063 22.859 101.972 22.8813 101.884C23.0755 101.099 21.8628 100.763 21.6686 101.55C21.5358 102.085 21.5037 102.652 21.459 103.2C21.3835 104.11 21.3346 105.022 21.2913 105.934C21.1656 108.551 21.0929 111.171 21.0272 113.79C20.9532 116.763 20.8959 119.737 20.8484 122.711C20.8079 125.217 20.7743 127.724 20.745 130.23C20.7352 131.053 20.7268 131.876 20.7184 132.701C20.7143 133.081 20.6751 133.48 20.7073 133.859C20.7087 133.876 20.7073 133.894 20.7073 133.911C20.7352 133.805 20.7646 133.7 20.7925 133.594C20.3189 134.616 19.8452 135.639 19.3715 136.662C18.2398 139.107 17.1081 141.552 15.9763 143.997C14.6085 146.954 13.2392 149.91 11.8713 152.867C10.6851 155.431 9.49748 157.994 8.31125 160.56C7.737 161.8 7.15157 163.036 6.58849 164.28C6.58011 164.297 6.57312 164.315 6.56474 164.332C6.37891 164.735 6.54238 165.091 6.94059 165.256C8.72901 166 10.5188 166.744 12.3073 167.488C15.145 168.669 17.9841 169.85 20.8218 171.03C21.4743 171.301 22.1268 171.572 22.7793 171.845C23.0113 171.941 23.3857 171.785 23.4891 171.556C23.9725 170.488 24.4546 169.422 24.938 168.355C26.0851 165.822 27.2308 163.29 28.3779 160.757C29.7346 157.761 31.0899 154.765 32.4466 151.77C33.5588 149.314 34.671 146.859 35.7817 144.402C36.1045 143.69 36.4273 142.977 36.7486 142.266C36.866 142.008 37.0141 141.743 37.0993 141.472C37.2111 141.12 37.2809 140.749 37.3704 140.39C37.5813 139.548 37.7923 138.707 38.0033 137.868C38.674 135.196 39.3474 132.526 40.0209 129.856C40.8382 126.619 41.6584 123.38 42.4814 120.144C43.2205 117.241 43.9624 114.337 44.7155 111.438C45.1486 109.771 45.5608 108.093 46.0526 106.443C46.075 106.37 46.0987 106.298 46.1197 106.224C46.1476 106.131 46.2133 106.002 46.1043 106.24C46.244 105.932 46.1923 105.564 45.8794 105.38C45.6139 105.223 45.164 105.296 45.0229 105.606Z" fill="#05194C"/>
<path d="M61.3061 140.137C61.8091 141.022 62.449 141.834 63.1183 142.6C63.8965 143.49 64.7419 144.32 65.6319 145.097C67.4007 146.638 69.389 148.094 71.6161 148.889C72.0856 149.056 72.5648 149.153 73.0469 149.269C73.7986 149.45 74.5544 149.608 75.3145 149.747C75.9209 149.857 76.5315 149.952 77.1421 150.034C77.4145 150.071 77.687 150.107 77.9608 150.138C78.0558 150.149 78.1509 150.159 78.2459 150.17C78.2934 150.176 78.3409 150.18 78.3884 150.185C78.2626 150.169 78.3898 150.188 78.4205 150.194C78.4778 150.205 78.5337 150.216 78.5896 150.23C78.6734 150.251 78.7558 150.275 78.8369 150.303C78.8746 150.315 79.059 150.395 78.9529 150.345C79.1191 150.424 79.2672 150.522 79.4251 150.616C79.5159 150.67 79.3217 150.525 79.4586 150.641C79.4824 150.662 79.5062 150.681 79.5299 150.702C79.583 150.748 79.6333 150.796 79.6836 150.845C79.7786 150.938 79.9058 151.047 79.9714 151.165C79.9644 151.151 79.889 151.052 79.9533 151.144C79.97 151.168 79.9882 151.191 80.0049 151.216C80.0427 151.271 80.0776 151.325 80.1125 151.383C80.1838 151.5 80.2495 151.622 80.3068 151.747C80.3151 151.766 80.3389 151.803 80.3417 151.826C80.3193 151.693 80.3165 151.764 80.3361 151.814C80.3584 151.875 80.3808 151.935 80.4018 151.996C80.4423 152.118 80.4758 152.242 80.5052 152.368C80.5205 152.438 80.5345 152.507 80.5471 152.577C80.5513 152.605 80.5555 152.633 80.561 152.661C80.5778 152.756 80.5708 152.632 80.5555 152.621C80.6016 152.654 80.5848 152.966 80.5876 153.026C80.5904 153.096 80.5988 153.807 80.5513 153.811C80.5499 153.811 80.5764 153.648 80.5568 153.769C80.5527 153.797 80.5485 153.825 80.5443 153.853C80.5345 153.914 80.5219 153.977 80.5093 154.039C80.4828 154.167 80.4521 154.296 80.4157 154.422C80.3822 154.539 80.3445 154.655 80.3026 154.771C80.2844 154.821 80.2648 154.87 80.2453 154.92C80.2062 155.022 80.2551 154.888 80.2634 154.88C80.2411 154.901 80.2285 154.958 80.2159 154.988C80.1209 155.194 80.0105 155.394 79.882 155.581C79.8499 155.629 79.8038 155.678 79.7772 155.728C79.7814 155.72 79.875 155.606 79.8107 155.685C79.7954 155.703 79.7814 155.721 79.766 155.739C79.6976 155.822 79.6235 155.9 79.5453 155.974C79.5103 156.007 79.474 156.041 79.4363 156.072C79.4195 156.086 79.4028 156.098 79.3874 156.112C79.2966 156.188 79.4181 156.086 79.4195 156.087C79.4237 156.093 79.1135 156.294 79.0828 156.312C78.9836 156.372 78.8802 156.427 78.7768 156.478C78.7209 156.506 78.6636 156.531 78.6077 156.558C78.5043 156.605 78.6343 156.551 78.6427 156.544C78.6203 156.564 78.5533 156.58 78.5253 156.592C78.2822 156.685 78.0321 156.761 77.7792 156.823C77.6479 156.856 77.5165 156.884 77.3838 156.909C77.3237 156.92 77.2636 156.931 77.2036 156.941C77.1658 156.946 77.1281 156.953 77.089 156.959C77.0694 156.962 76.9101 156.984 77.0121 156.97C77.1043 156.958 77.0024 156.972 76.98 156.974C76.9409 156.979 76.9018 156.984 76.8626 156.988C76.7998 156.995 76.7369 157.001 76.674 157.008C76.5147 157.023 76.3541 157.034 76.1948 157.041C75.9 157.057 75.6051 157.061 75.3103 157.058C74.7067 157.053 74.1031 157.015 73.5009 156.96C73.1936 156.932 72.8862 156.899 72.5788 156.863C72.4405 156.846 72.3007 156.829 72.1624 156.811C72.0814 156.801 72.0004 156.79 71.9207 156.779C71.8886 156.775 71.7964 156.763 71.9431 156.782C71.8956 156.776 71.8481 156.769 71.8006 156.762C71.2598 156.688 70.7205 156.607 70.1798 156.53C70.0568 156.512 69.9339 156.495 69.8095 156.478C69.7145 156.466 69.6181 156.452 69.5231 156.439C69.5231 156.439 69.3946 156.421 69.4658 156.431C69.5217 156.439 69.3554 156.414 69.3331 156.41C69.1598 156.382 68.9866 156.347 68.8189 156.295C68.7798 156.283 68.7407 156.269 68.7015 156.256C68.5255 156.2 68.7463 156.288 68.6526 156.237C68.5758 156.195 68.4989 156.156 68.4235 156.112C67.8772 155.794 67.3407 155.472 66.7552 155.229C66.0552 154.939 65.3105 154.804 64.5532 154.806C63.8379 154.807 63.1337 154.933 62.4281 155.038C62.3736 155.046 62.2045 155.067 62.347 155.05C62.266 155.06 62.185 155.07 62.1039 155.078C61.9614 155.092 61.8189 155.102 61.6764 155.105C61.5381 155.108 61.3997 155.099 61.2614 155.088C61.1874 155.083 61.2251 155.112 61.2922 155.092C61.2768 155.097 61.2223 155.08 61.2013 155.077C61.1161 155.06 61.0323 155.039 60.9498 155.015C60.7822 154.968 60.6173 154.911 60.4552 154.846C60.4203 154.832 60.3854 154.818 60.3518 154.804C60.4664 154.852 60.3546 154.804 60.3267 154.792C60.2456 154.756 60.166 154.718 60.0864 154.68C59.7832 154.536 59.4842 154.385 59.174 154.258C58.9085 154.149 58.6333 154.077 58.344 154.064C58.1107 154.054 57.8746 154.11 57.6482 154.159C57.053 154.289 56.4634 154.437 55.8696 154.57C55.5161 154.648 55.1612 154.715 54.8077 154.788C54.7183 154.806 54.8119 154.809 54.8315 154.786C54.8245 154.795 54.7504 154.795 54.7337 154.796C54.6582 154.803 54.5828 154.806 54.5073 154.806C54.4305 154.806 54.3536 154.804 54.2768 154.799C54.2418 154.796 54.2083 154.793 54.1734 154.791C54.1482 154.788 53.982 154.757 54.1329 154.786C53.9792 154.756 53.8255 154.729 53.6732 154.684C53.6075 154.665 53.5418 154.644 53.4776 154.621C53.4384 154.607 53.3993 154.591 53.3588 154.577C53.2862 154.55 53.4552 154.626 53.349 154.571C53.2219 154.507 53.0975 154.444 52.9802 154.363C52.9606 154.349 52.9257 154.329 52.9075 154.311C53.0095 154.419 52.948 154.343 52.9187 154.314C52.8726 154.269 52.8279 154.226 52.7846 154.18C52.7496 154.142 52.7189 154.102 52.684 154.064C52.6197 153.993 52.7664 154.184 52.6826 154.06C52.6225 153.972 52.5652 153.882 52.5149 153.787C52.4953 153.75 52.4786 153.712 52.4604 153.674C52.4157 153.589 52.4856 153.733 52.487 153.738C52.4814 153.715 52.4674 153.69 52.459 153.666C52.4255 153.574 52.3961 153.48 52.3738 153.384C52.364 153.343 52.3556 153.302 52.3472 153.262C52.3347 153.195 52.3458 153.038 52.3416 153.242C52.3444 153.149 52.3235 153.05 52.3207 152.955C52.3151 152.752 52.3319 152.554 52.3514 152.352C52.364 152.227 52.3305 152.484 52.3444 152.398C52.35 152.369 52.3528 152.34 52.3584 152.31C52.3654 152.263 52.3738 152.215 52.3822 152.169C52.4031 152.055 52.4283 151.94 52.4548 151.827C52.5093 151.594 52.575 151.362 52.6448 151.133C52.9606 150.1 53.37 149.1 53.7053 148.074C54.0854 146.912 54.3746 145.713 54.443 144.488C54.4794 143.836 54.4361 143.191 54.3383 142.547C54.288 142.221 53.8618 142.012 53.5642 142.108C53.2093 142.223 53.071 142.531 53.1255 142.882C53.1255 142.884 53.1506 143.055 53.1367 142.955C53.1227 142.856 53.145 143.026 53.145 143.027C53.1534 143.096 53.1604 143.166 53.166 143.236C53.1814 143.407 53.1911 143.579 53.1953 143.751C53.2037 144.056 53.1953 144.36 53.173 144.664C53.1618 144.813 53.1464 144.963 53.1297 145.112C53.1297 145.118 53.1073 145.28 53.1213 145.176C53.1353 145.073 53.1129 145.235 53.1115 145.241C53.0989 145.322 53.0864 145.404 53.0724 145.485C53.0207 145.784 52.9578 146.08 52.8866 146.375C52.6127 147.497 52.2033 148.577 51.8149 149.663C51.1917 151.404 50.4568 153.611 51.9546 155.131C52.4199 155.604 53.1017 155.879 53.7458 155.988C54.0951 156.048 54.4514 156.083 54.8063 156.044C55.1892 156.001 55.5678 155.917 55.9436 155.836C56.5766 155.699 57.2053 155.544 57.8369 155.401C57.9375 155.379 58.0381 155.356 58.1401 155.335C58.175 155.328 58.2085 155.323 58.2434 155.316C58.2672 155.312 58.3343 155.288 58.2407 155.314C58.1401 155.345 58.2546 155.317 58.2882 155.317C58.3203 155.317 58.351 155.32 58.3818 155.32C58.4558 155.321 58.3985 155.355 58.3287 155.312C58.3678 155.337 58.4572 155.338 58.5019 155.349C58.562 155.365 58.6207 155.384 58.678 155.405C58.7045 155.415 58.7311 155.425 58.7576 155.435C58.8009 155.451 58.9141 155.47 58.7702 155.439C58.8987 155.467 59.0371 155.562 59.1544 155.619C59.3011 155.69 59.4464 155.762 59.5945 155.83C59.9438 155.991 60.3029 156.142 60.6746 156.242C61.3341 156.42 61.9963 156.358 62.6628 156.265C62.8151 156.244 62.9688 156.218 63.1211 156.196C63.1993 156.184 63.279 156.172 63.3572 156.16C63.4019 156.153 63.4466 156.147 63.4914 156.14C63.6297 156.121 63.388 156.151 63.5417 156.133C63.8882 156.093 64.2347 156.062 64.584 156.063C64.7726 156.063 64.9612 156.073 65.1484 156.091C65.1904 156.096 65.2323 156.1 65.2742 156.105C65.1568 156.09 65.2868 156.108 65.3161 156.114C65.4223 156.132 65.5271 156.153 65.6319 156.179C65.7967 156.22 65.9588 156.269 66.1181 156.325C66.1866 156.348 66.255 156.375 66.3221 156.401C66.4339 156.445 66.3431 156.41 66.3207 156.4C66.3696 156.421 66.4171 156.443 66.466 156.464C67.0235 156.721 67.5181 157.099 68.0756 157.349C68.4976 157.537 68.9279 157.616 69.3834 157.676C69.4169 157.68 69.4504 157.684 69.484 157.69C69.3135 157.666 69.3974 157.679 69.4351 157.683C69.5021 157.693 69.5706 157.701 69.6377 157.711C69.7704 157.729 69.9031 157.748 70.0359 157.768C71.2473 157.943 72.4572 158.126 73.677 158.23C74.9331 158.338 76.1976 158.359 77.4467 158.165C78.5225 157.998 79.6501 157.618 80.4493 156.849C81.1856 156.142 81.6229 155.097 81.7724 154.1C81.9485 152.934 81.8129 151.7 81.1688 150.687C80.8069 150.12 80.3026 149.61 79.6976 149.304C79.3008 149.104 78.8914 148.985 78.4513 148.929C78.2431 148.903 78.0349 148.883 77.8267 148.858C77.7121 148.844 77.5962 148.83 77.4816 148.815C77.4509 148.81 77.2553 148.783 77.3559 148.798C77.4662 148.815 77.3209 148.794 77.3083 148.791C77.2636 148.785 77.2189 148.778 77.1742 148.771C76.878 148.729 76.5818 148.683 76.287 148.636C75.5451 148.514 74.8073 148.372 74.0738 148.208C73.487 148.078 72.8862 147.964 72.3105 147.786C72.0744 147.714 71.8425 147.63 71.6133 147.538C71.584 147.526 71.4079 147.447 71.496 147.49C71.584 147.532 71.4051 147.45 71.3772 147.437C71.2514 147.381 71.1271 147.322 71.0041 147.264C69.9437 146.748 68.9489 146.101 68.0057 145.398C67.9526 145.358 67.8995 145.319 67.8451 145.278C67.8185 145.259 67.792 145.238 67.7654 145.218C67.764 145.217 67.6341 145.116 67.7095 145.175C67.7864 145.234 67.655 145.133 67.6536 145.132C67.6271 145.111 67.6005 145.09 67.574 145.069C67.5083 145.017 67.4427 144.964 67.377 144.912C67.1283 144.712 66.8824 144.507 66.6393 144.299C66.174 143.896 65.7199 143.48 65.2826 143.048C64.8648 142.638 64.4596 142.211 64.0712 141.773C63.8896 141.566 63.7107 141.356 63.5375 141.143C63.4606 141.049 63.3852 140.953 63.3097 140.858C63.2217 140.746 63.3726 140.943 63.3181 140.869C63.2971 140.841 63.2762 140.814 63.2552 140.786C63.2147 140.732 63.1728 140.677 63.1323 140.621C62.8668 140.26 62.6167 139.885 62.3946 139.495C62.2325 139.209 61.8175 139.087 61.5339 139.27C61.2433 139.463 61.1329 139.831 61.3061 140.137Z" fill="#05194C"/>
<path d="M52.5373 150.927C52.8433 150.824 53.1548 150.768 53.472 150.713C53.4804 150.712 53.2862 150.736 53.3784 150.726C53.4035 150.723 53.4273 150.72 53.4524 150.718C53.4944 150.713 53.5349 150.708 53.5768 150.705C53.662 150.697 53.7472 150.69 53.8325 150.684C54.0211 150.671 54.2083 150.666 54.3969 150.664C54.8035 150.662 55.2087 150.683 55.6139 150.716C55.8291 150.734 56.0443 150.757 56.2594 150.78C56.3684 150.793 56.476 150.807 56.585 150.821C56.7582 150.843 56.4411 150.8 56.6157 150.825C56.6828 150.835 56.7498 150.843 56.8155 150.853C58.8918 151.156 60.9373 151.658 62.973 152.155C65.2099 152.702 67.4441 153.269 69.7034 153.715C71.7628 154.121 73.874 154.463 75.9796 154.426C77.6409 154.395 79.4503 154.123 80.8098 153.09C80.983 152.959 81.1507 152.823 81.3086 152.672C81.5461 152.445 81.5545 152.01 81.3086 151.784C81.0529 151.549 80.6728 151.541 80.4199 151.784C80.3585 151.844 80.2942 151.901 80.2285 151.957C80.1964 151.985 80.1629 152.011 80.1293 152.039C80.0175 152.132 80.2649 151.939 80.114 152.052C79.9714 152.158 79.8219 152.256 79.6668 152.344C79.509 152.435 79.3469 152.517 79.1806 152.591C79.1303 152.614 78.9682 152.664 79.182 152.593C79.1387 152.607 79.0968 152.628 79.0549 152.643C78.9599 152.679 78.8648 152.714 78.7684 152.746C78.3926 152.872 78.0056 152.964 77.6157 153.031C77.5151 153.048 77.4159 153.063 77.3153 153.079C77.2692 153.086 77.2064 153.079 77.3908 153.069C77.3601 153.07 77.3293 153.077 77.2986 153.08C77.2413 153.087 77.1854 153.094 77.1281 153.1C76.9102 153.124 76.6922 153.14 76.4742 153.151C75.5213 153.202 74.5656 153.154 73.6169 153.061C73.3557 153.034 73.0944 153.005 72.8331 152.971C72.7702 152.963 72.7074 152.954 72.6445 152.946C72.5369 152.932 72.6878 152.952 72.6976 152.953C72.6598 152.948 72.6207 152.943 72.583 152.938C72.4489 152.92 72.3147 152.9 72.1806 152.879C71.6371 152.797 71.0964 152.704 70.5557 152.602C68.3215 152.182 66.1153 151.631 63.9091 151.091C61.8385 150.583 59.7636 150.064 57.658 149.72C56.0219 149.453 54.2656 149.213 52.6267 149.594C52.4828 149.628 52.3417 149.668 52.2019 149.714C51.8918 149.821 51.6542 150.152 51.7632 150.488C51.8638 150.796 52.2033 151.04 52.5373 150.927Z" fill="#05194C"/>
<path d="M8.22745 165.273C7.96477 166.085 7.67555 166.888 7.38773 167.69C6.96717 168.867 6.53822 170.04 6.11068 171.214C5.61188 172.582 5.11307 173.95 4.61706 175.32C4.12245 176.687 3.63063 178.055 3.1486 179.425C2.73083 180.614 2.31866 181.806 1.92744 183.005C1.65778 183.833 1.38532 184.668 1.18133 185.516C1.11426 185.791 1.05279 186.076 1.03602 186.358C1.01925 186.649 1.10588 186.945 1.21486 187.212C1.59351 188.141 2.20269 188.96 2.84261 189.724C3.68932 190.733 4.66038 191.628 5.71247 192.421C6.86377 193.287 8.13803 193.998 9.50449 194.462C10.9422 194.95 12.4694 195.105 13.97 194.862C14.7762 194.73 15.553 194.465 16.2879 194.111C16.6638 193.931 17.0257 193.721 17.3722 193.491C17.7788 193.22 18.2063 192.928 18.557 192.586C18.7121 192.433 18.74 192.288 18.7833 192.099C18.8281 191.906 18.8728 191.712 18.9175 191.519C19.081 190.814 19.2458 190.107 19.4093 189.401C19.6454 188.384 19.8816 187.367 20.1177 186.35C20.3943 185.159 20.671 183.969 20.9476 182.779C21.2341 181.548 21.5191 180.315 21.8055 179.084C22.0668 177.961 22.3267 176.839 22.5879 175.716C22.7933 174.834 22.9973 173.952 23.2027 173.071C23.3201 172.568 23.4361 172.065 23.5534 171.562C23.5688 171.495 23.5842 171.429 23.5995 171.362C23.6736 171.042 23.5003 170.666 23.1608 170.588C22.8394 170.515 22.4664 170.684 22.3867 171.027C22.2247 171.722 22.064 172.418 21.9019 173.115C21.5135 174.786 21.1265 176.458 20.738 178.127C20.27 180.141 19.8019 182.155 19.3352 184.169C18.9315 185.908 18.5277 187.648 18.1225 189.387C17.9269 190.228 17.6935 191.071 17.5342 191.92C17.5315 191.932 17.5287 191.944 17.5259 191.955C17.5804 191.863 17.6334 191.771 17.6879 191.677C17.5901 191.763 17.4909 191.846 17.3903 191.927C17.3638 191.948 17.3372 191.971 17.3107 191.992C17.2953 192.004 17.2101 192.071 17.2744 192.021C17.3386 191.971 17.2534 192.036 17.238 192.049C17.2045 192.074 17.171 192.099 17.1388 192.123C16.9376 192.271 16.7309 192.414 16.5185 192.546C16.3089 192.678 16.0951 192.801 15.8758 192.914C15.7766 192.966 15.676 193.014 15.574 193.062C15.5279 193.084 15.4804 193.105 15.4328 193.126C15.4063 193.139 15.3784 193.149 15.3518 193.161C15.2806 193.195 15.4706 193.114 15.3616 193.157C14.9494 193.322 14.5289 193.46 14.0957 193.558C13.9965 193.58 13.8959 193.601 13.7953 193.619C13.6933 193.638 13.5732 193.638 13.4754 193.671C13.6346 193.617 13.5103 193.667 13.4432 193.674C13.3901 193.68 13.337 193.685 13.2839 193.691C13.1778 193.7 13.073 193.709 12.9668 193.713C12.5546 193.734 12.1424 193.723 11.7316 193.682C11.6869 193.678 11.6408 193.673 11.5961 193.667C11.571 193.664 11.5444 193.66 11.5193 193.657C11.4103 193.645 11.5598 193.661 11.571 193.664C11.4732 193.638 11.3642 193.633 11.2636 193.615C11.0596 193.579 10.857 193.536 10.6558 193.487C10.2604 193.389 9.87056 193.266 9.49052 193.122C9.3997 193.087 9.30889 193.052 9.21946 193.016C9.19711 193.006 9.17056 192.992 9.14821 192.987C9.15939 192.989 9.28933 193.047 9.19152 193.005C9.14402 192.984 9.09651 192.964 9.04901 192.943C8.86038 192.859 8.67316 192.77 8.48873 192.676C7.76916 192.312 7.08453 191.88 6.43762 191.399C6.39711 191.37 6.35659 191.339 6.31746 191.308C6.2979 191.293 6.17774 191.199 6.26158 191.267C6.34541 191.334 6.22665 191.239 6.20709 191.223C6.16237 191.188 6.11906 191.153 6.07575 191.118C5.92206 190.995 5.77116 190.868 5.62166 190.74C5.33663 190.494 5.05998 190.24 4.79171 189.976C4.30549 189.496 3.8486 188.988 3.42525 188.453C3.3456 188.353 3.45319 188.489 3.44201 188.475C3.41826 188.444 3.39451 188.413 3.37215 188.383C3.32604 188.323 3.28133 188.261 3.23662 188.201C3.15419 188.088 3.07455 187.975 2.9963 187.859C2.85379 187.646 2.71826 187.43 2.5953 187.205C2.54361 187.111 2.4947 187.016 2.44999 186.92C2.42904 186.877 2.41087 186.833 2.39131 186.791C2.36057 186.727 2.46117 186.969 2.41926 186.858C2.41087 186.837 2.40249 186.815 2.39411 186.794C2.36476 186.716 2.33682 186.638 2.31586 186.557C2.30748 186.523 2.2991 186.49 2.29211 186.456C2.25438 186.291 2.2991 186.583 2.2963 186.508C2.2949 186.459 2.29071 186.41 2.29351 186.36C2.2949 186.337 2.2977 186.313 2.2991 186.291C2.31027 186.144 2.27255 186.459 2.28792 186.365C2.31167 186.221 2.33961 186.077 2.37315 185.935C2.60229 184.946 2.92784 183.977 3.24501 183.015C3.71726 181.58 4.21746 180.155 4.72325 178.731C5.29191 177.128 5.87176 175.53 6.45299 173.931C6.99651 172.439 7.54142 170.947 8.08214 169.455C8.48034 168.355 8.87994 167.256 9.25579 166.149C9.31727 165.969 9.37735 165.787 9.43603 165.605C9.53803 165.292 9.31727 164.905 8.99731 164.831C8.65639 164.756 8.33643 164.938 8.22745 165.273Z" fill="#05194C"/>
<path d="M17.5273 191.955C17.2995 193.456 17.076 194.958 16.8426 196.459C16.8343 196.516 16.8245 196.572 16.8119 196.629C16.791 196.725 16.763 196.822 16.7295 196.915C16.7281 196.921 16.6638 197.066 16.7071 196.977C16.7462 196.896 16.6624 197.064 16.654 197.079C16.6079 197.166 16.5534 197.245 16.5003 197.328C16.4123 197.462 16.5884 197.237 16.4794 197.354C16.4458 197.39 16.4151 197.427 16.3816 197.463C16.3257 197.522 16.2642 197.575 16.2041 197.629C16.0854 197.737 16.3117 197.564 16.1762 197.65C16.1217 197.687 16.0672 197.723 16.0113 197.757C15.9401 197.798 15.866 197.835 15.7906 197.87C15.9289 197.805 15.7375 197.887 15.6955 197.9C15.6131 197.928 15.5307 197.956 15.4482 197.983C15.268 198.042 15.085 198.097 14.9019 198.149C14.4925 198.267 14.079 198.37 13.6612 198.455C13.4307 198.503 13.1987 198.545 12.9668 198.582C12.8494 198.602 12.7279 198.61 12.6119 198.635C12.8313 198.589 12.6468 198.63 12.5895 198.638C12.5155 198.648 12.44 198.656 12.366 198.665C11.8434 198.722 11.3167 198.75 10.7899 198.747C10.5077 198.746 10.2269 198.735 9.94603 198.715C9.81469 198.705 9.68336 198.694 9.55202 198.68C9.47936 198.673 9.40811 198.665 9.33545 198.655C9.3117 198.652 9.28795 198.649 9.2628 198.645C9.14823 198.631 9.42627 198.669 9.24883 198.642C8.66619 198.557 8.09054 198.429 7.52886 198.251C7.38076 198.205 7.23405 198.155 7.08735 198.102C6.94343 198.049 6.79533 197.965 6.64722 197.93C6.80651 197.968 6.69752 197.951 6.65142 197.931C6.62766 197.92 6.60251 197.91 6.57876 197.899C6.50471 197.867 6.43205 197.832 6.3594 197.798C6.21269 197.729 6.06599 197.655 5.92347 197.578C5.62726 197.42 5.33944 197.247 5.06 197.059C4.92866 196.971 4.79872 196.881 4.67018 196.786C4.63245 196.758 4.40471 196.601 4.55141 196.697C4.47736 196.649 4.4103 196.586 4.34183 196.53C3.76618 196.056 3.24083 195.524 2.76578 194.951C2.70151 194.873 2.63724 194.793 2.57437 194.713C2.56179 194.697 2.457 194.56 2.54642 194.677C2.51429 194.635 2.48355 194.595 2.45141 194.553C2.32426 194.382 2.19991 194.208 2.08115 194.032C1.82965 193.661 1.57117 193.279 1.37696 192.876C1.38814 192.9 1.41468 192.98 1.37137 192.864C1.35181 192.808 1.33225 192.753 1.31688 192.696C1.30151 192.639 1.29033 192.581 1.27636 192.524C1.23165 192.349 1.27636 192.639 1.26518 192.458C1.25959 192.349 1.254 192.243 1.26099 192.134C1.26239 192.103 1.27915 191.975 1.26099 192.095C1.26378 192.077 1.26798 192.055 1.27077 192.034C1.28335 191.969 1.29452 191.905 1.3057 191.842C1.61868 190.138 1.93165 188.434 2.24462 186.73C2.25301 186.682 2.26279 186.635 2.27117 186.587C2.32985 186.265 2.18315 185.894 1.83245 185.813C1.52367 185.743 1.12267 185.907 1.05839 186.252C0.756598 187.898 0.453404 189.544 0.151607 191.19C0.0999106 191.472 0.0370362 191.757 0.0104893 192.043C-0.085918 193.072 0.499512 193.945 1.057 194.753C1.97077 196.077 3.08574 197.247 4.42706 198.142C6.53405 199.551 9.09653 200.119 11.6101 199.98C12.6454 199.922 13.678 199.759 14.6826 199.507C15.0668 199.411 15.4482 199.3 15.8255 199.178C16.1231 199.08 16.4221 198.976 16.689 198.813C17.0858 198.568 17.4225 198.232 17.6684 197.836C17.9157 197.437 18.0247 197.001 18.0945 196.545C18.1588 196.122 18.2231 195.7 18.2874 195.277C18.4299 194.342 18.5724 193.406 18.7149 192.471C18.7247 192.409 18.7331 192.348 18.7428 192.287C18.7918 191.962 18.6618 191.595 18.3041 191.512C18.0009 191.448 17.5804 191.607 17.5273 191.955Z" fill="#05194C"/>
<path d="M38.1734 37.9953L38.369 38.4549C38.369 38.4549 37.458 38.1336 36.3765 39.2765C35.664 40.0296 36.8656 37.9086 38.1734 37.9953Z" fill="#05194C"/>
<path d="M37.8119 38.2082C37.8776 38.3619 37.9418 38.5142 38.0075 38.6679C38.1654 38.4625 38.3233 38.2571 38.4812 38.0517C38.2464 37.9693 37.9712 37.9888 37.7309 38.0238C37.1818 38.1034 36.6871 38.4136 36.2834 38.7824C36.1883 38.8691 36.1031 38.9655 36.0095 39.0535C35.9983 39.0647 35.9578 39.0884 35.9536 39.1038C35.9536 39.1024 36.0584 39.0297 36.0123 39.0577C36.0081 39.0605 35.9913 39.0675 35.9899 39.0717C36.0081 39.0395 36.152 39.02 36.1814 39.0214C36.3574 39.0297 36.5139 39.1527 36.5712 39.319C36.5865 39.3623 36.5935 39.4768 36.5712 39.5202C36.574 39.5146 36.5754 39.5062 36.5768 39.5006C36.5949 39.4307 36.5195 39.6166 36.5558 39.5509C36.567 39.5299 36.5782 39.509 36.5893 39.488C36.6201 39.4349 36.655 39.3846 36.6913 39.3343C36.7011 39.3204 36.7123 39.3064 36.7221 39.2924C36.7584 39.2421 36.6522 39.3804 36.6997 39.3218C36.7263 39.2882 36.7528 39.2561 36.7808 39.224C36.9037 39.0814 37.0364 38.9473 37.1804 38.8244C37.2013 38.8062 37.2237 38.788 37.2446 38.7713C37.3215 38.7098 37.1915 38.8104 37.2432 38.7713C37.2893 38.7377 37.3354 38.7042 37.383 38.6735C37.478 38.6106 37.5772 38.5547 37.6806 38.5058C37.7756 38.4625 37.6219 38.5267 37.6778 38.5058C37.7043 38.496 37.7295 38.4862 37.756 38.4764C37.8119 38.4569 37.8692 38.4415 37.9265 38.4289C37.953 38.4234 37.981 38.4192 38.0075 38.4136C38.0508 38.4038 37.9404 38.422 37.9474 38.422C37.9642 38.422 37.9824 38.4178 37.9991 38.4164C38.0578 38.4122 38.1165 38.4122 38.1752 38.415C38.3945 38.4275 38.6041 38.2138 38.5943 37.9958C38.5832 37.7583 38.4099 37.5906 38.1752 37.5766C37.6792 37.5487 37.1901 37.7653 36.8031 38.0601C36.458 38.3228 36.1492 38.6315 35.9089 38.9948C35.8265 39.1206 35.7468 39.2659 35.7468 39.4196C35.7468 39.7842 36.1604 39.9687 36.4482 39.7717C36.5251 39.72 36.5935 39.6571 36.6578 39.5914C36.7822 39.4629 36.9093 39.3413 37.0476 39.2281C37.1091 39.1778 37.049 39.224 37.0406 39.2337C37.0546 39.2198 37.077 39.2072 37.0923 39.196C37.1217 39.1751 37.151 39.1555 37.1804 39.1359C37.2432 39.094 37.3089 39.0549 37.376 39.0186C37.4305 38.9892 37.4989 38.9683 37.5506 38.9333C37.545 38.9375 37.4528 38.9711 37.5171 38.9473C37.5311 38.9417 37.5464 38.9361 37.5604 38.9305C37.5883 38.9208 37.6177 38.911 37.6456 38.9012C37.7043 38.8816 37.7658 38.8663 37.8259 38.8537C37.851 38.8481 37.8762 38.8439 37.8999 38.8397C38.0005 38.8216 37.8049 38.8481 37.8846 38.8411C37.9698 38.8341 38.055 38.8299 38.1402 38.8355C38.2003 38.8397 38.2869 38.8621 38.1305 38.8313C38.1528 38.8355 38.1752 38.8383 38.1975 38.8439C38.2171 38.8481 38.238 38.8537 38.2576 38.8593C38.4155 38.9138 38.6027 38.8327 38.6977 38.7084C38.8095 38.5631 38.7983 38.4038 38.7299 38.2431C38.6642 38.0894 38.5999 37.9371 38.5343 37.7834C38.4476 37.5808 38.1347 37.5208 37.9614 37.6325C37.7518 37.7695 37.7197 37.9916 37.8119 38.2082Z" fill="#05194C"/>
<path d="M42.4442 55.386C40.7913 54.5966 39.109 53.8645 37.4142 53.1686C36.0729 52.6181 34.7162 52.0928 33.3358 51.6471C32.2236 51.288 31.0541 50.9289 29.8777 50.8758C29.4599 50.8563 29.0072 50.8912 28.6342 51.0966C28.4204 51.214 28.2318 51.3928 28.0515 51.5563C27.4046 52.1459 26.8066 52.79 26.2086 53.4285C24.0331 55.7465 21.9276 58.1343 19.8262 60.5194C17.1924 63.508 14.581 66.5148 11.9766 69.5286C9.28702 72.6401 6.58622 75.7433 3.96785 78.915C3.05967 80.0146 2.15009 81.1184 1.2936 82.2599C0.750084 82.9837 0.336511 83.8653 0.379824 84.7916C0.427329 85.8354 0.998787 86.6737 1.73372 87.3751C3.43272 88.9972 5.20857 90.5412 6.96905 92.0949C9.25209 94.111 11.5449 96.1146 13.8433 98.114C15.3006 99.3827 16.7607 100.649 18.2222 101.913C18.2948 101.976 18.3689 102.039 18.4415 102.103C18.7098 102.335 19.2589 102.377 19.4293 101.976C19.8443 100.992 20.2607 100.01 20.6757 99.0264C21.3435 97.4448 22.0128 95.8631 22.6807 94.2829C22.8385 93.9084 22.9964 93.534 23.1557 93.1609C23.2647 92.9038 23.2535 92.6747 23.1306 92.433C23.0523 92.2807 22.9713 92.1298 22.8916 91.9775C22.1497 90.5649 21.4064 89.1509 20.6645 87.7384C20.2775 87.0006 19.889 86.2629 19.502 85.5252C19.291 85.1228 19.0954 84.705 18.8649 84.3124C18.8537 84.2928 18.8439 84.2719 18.8341 84.2523C18.802 84.5066 18.7685 84.7609 18.7363 85.0138C19.2002 84.6254 19.6641 84.237 20.1294 83.8485C21.2443 82.9152 22.3593 81.9819 23.4729 81.0499C24.8212 79.921 26.1695 78.792 27.5178 77.6645C28.6831 76.6892 29.8483 75.714 31.0136 74.7387C31.5753 74.2693 32.1761 73.8236 32.7084 73.3206C32.7168 73.3136 32.7252 73.3066 32.7336 73.2996C32.9934 73.0817 32.9585 72.6359 32.7336 72.411C32.4751 72.1525 32.1062 72.193 31.8449 72.411C31.3811 72.7994 30.9172 73.1878 30.4519 73.5763C29.3369 74.5096 28.222 75.4429 27.1084 76.3749C25.7601 77.5038 24.4118 78.6328 23.0635 79.7603C21.8982 80.7356 20.7329 81.7108 19.5677 82.6861C19.1862 83.0046 18.8062 83.3246 18.4248 83.6431C18.2431 83.7954 18.0433 83.9394 17.8729 84.1042C17.8645 84.1112 17.8561 84.1182 17.8477 84.1252C17.6297 84.3082 17.627 84.6547 17.7499 84.8867C18.2361 85.8116 18.7224 86.738 19.2086 87.6643C19.9882 89.1481 20.7679 90.6334 21.5475 92.1172C21.7264 92.4567 21.9038 92.7962 22.0826 93.1358C22.0826 92.9248 22.0826 92.7124 22.0826 92.5014C21.6607 93.499 21.2387 94.4967 20.8168 95.4943C20.1475 97.0773 19.4783 98.6589 18.8104 100.242C18.6553 100.608 18.5002 100.976 18.3451 101.342C18.6749 101.3 19.0032 101.256 19.3329 101.214C18.3032 100.324 17.2749 99.433 16.2465 98.5402C14.0585 96.64 11.8747 94.7356 9.6978 92.8242C7.68163 91.0525 5.66406 89.2809 3.68282 87.4701C3.36566 87.1795 3.04989 86.8889 2.73831 86.594C2.53152 86.397 2.31635 86.2028 2.13751 85.9793C2.00897 85.8186 1.85947 85.5755 1.79659 85.4316C1.74909 85.324 1.71555 85.2066 1.68761 85.092C1.67364 85.0362 1.66246 84.9803 1.65268 84.9244C1.64569 84.8797 1.6443 84.8797 1.65268 84.9244C1.64849 84.8811 1.6443 84.8364 1.6429 84.7916C1.63731 84.6827 1.6429 84.5751 1.64989 84.4661C1.65128 84.4493 1.66665 84.3431 1.65128 84.4409C1.66106 84.3781 1.67364 84.3138 1.68901 84.2523C1.71276 84.1489 1.7435 84.0455 1.77843 83.9449C1.7924 83.9044 1.80777 83.8639 1.82314 83.8248C1.78821 83.9156 1.86645 83.7312 1.87623 83.7102C2.02853 83.3944 2.22693 83.108 2.43791 82.8286C2.50079 82.7447 2.56506 82.6609 2.62933 82.5785C2.50079 82.7461 2.63771 82.5673 2.66426 82.5338C2.71316 82.4709 2.76206 82.4094 2.81097 82.3465C3.00937 82.0936 3.20917 81.8421 3.41037 81.5906C5.90159 78.4846 8.51157 75.4765 11.1104 72.4613C13.6784 69.481 16.2549 66.5078 18.8467 63.5471C21.1172 60.9539 23.3932 58.3663 25.7182 55.8205C26.5034 54.9599 27.2942 54.102 28.1088 53.2692C28.3659 53.0066 28.6258 52.7453 28.8968 52.4952C28.9904 52.4086 29.0854 52.3261 29.1819 52.2437C29.3146 52.1305 29.0505 52.3275 29.1707 52.2521C29.2014 52.2325 29.2322 52.213 29.2615 52.192C29.3621 52.1207 29.316 52.2395 29.2112 52.2074C29.2294 52.213 29.2852 52.1794 29.3048 52.1752C29.3411 52.1655 29.5018 52.1515 29.52 52.1291C29.4837 52.1738 29.3356 52.1459 29.4487 52.1403C29.4655 52.1389 29.4823 52.1375 29.499 52.1361C29.5423 52.1333 29.5857 52.1305 29.6304 52.1305C29.7352 52.1277 29.8413 52.1305 29.9461 52.1375C30.0523 52.1445 30.1585 52.1557 30.2647 52.1669C30.4393 52.185 30.125 52.1445 30.3024 52.1724C30.3737 52.1836 30.4449 52.1948 30.5162 52.2074C30.7831 52.2535 31.0471 52.3108 31.3098 52.375C32.6134 52.6908 33.8863 53.1407 35.1395 53.6144C35.8256 53.8728 36.506 54.1439 37.1837 54.4233C37.3318 54.4848 37.4813 54.5463 37.6294 54.6078C37.7062 54.6399 37.7831 54.672 37.8599 54.7042C37.9535 54.7433 37.7216 54.6455 37.8697 54.7084C37.9144 54.7279 37.9605 54.7461 38.0052 54.7657C38.3084 54.8942 38.6102 55.0241 38.912 55.1569C39.7657 55.5285 40.6152 55.9114 41.4591 56.3054C41.5793 56.3613 41.6994 56.4172 41.8182 56.4744C42.1242 56.6211 42.4972 56.5583 42.6789 56.2495C42.8312 55.9714 42.7529 55.5327 42.4442 55.386Z" fill="#05194C"/>
<path d="M39.116 95.5485C41.1419 95.2998 43.1581 94.9365 45.1561 94.5216C48.8573 93.7531 52.5823 92.7778 56.018 91.1725C57.6681 90.4012 59.3489 89.4357 60.5505 88.0371C60.7545 87.801 60.7685 87.5523 60.6483 87.2756C59.518 84.6559 58.3877 82.0347 57.2573 79.415C55.4563 75.2401 53.6553 71.0652 51.8543 66.889C51.4421 65.9319 51.0286 64.9762 50.6164 64.0191C50.6443 64.1253 50.6737 64.2301 50.7016 64.3363C50.5298 61.4036 50.8497 58.4471 51.2591 55.5451C51.7705 51.9179 52.4523 48.3159 53.1132 44.7139C53.4821 42.6977 53.8495 40.6816 54.196 38.6612C54.4364 37.257 54.5691 35.9297 54.4084 34.5073C54.0773 31.5732 53.1174 28.7396 52.1086 25.9788C51.0859 23.1802 49.8228 20.4123 49.113 17.5117C48.9719 16.9318 48.0162 16.8927 47.9002 17.5117C47.889 17.569 47.8304 17.6877 47.9379 17.4348C47.9268 17.46 47.9128 17.4851 47.8974 17.5075C47.8876 17.5229 47.8765 17.5354 47.8681 17.5508C48.0637 17.2141 47.8988 17.5187 47.9002 17.5033C47.8988 17.5257 47.8234 17.5746 47.8094 17.5885C47.734 17.6668 47.9449 17.5061 47.8429 17.562C47.8136 17.5774 47.7884 17.6011 47.7591 17.6151C47.6906 17.65 47.625 17.6877 47.5551 17.7199C47.7158 17.6458 47.4056 17.766 47.3455 17.7827C45.8771 18.1907 44.0621 17.7296 42.5098 17.5089C41.7819 17.4055 41.0497 17.3063 40.3162 17.2672C39.9683 17.249 39.6036 17.235 39.2613 17.3063C38.8072 17.4013 38.504 17.7338 38.6046 18.2131C38.8938 19.5837 39.306 20.939 39.6553 22.2957C40.2505 24.6081 40.8457 26.9219 41.4423 29.2343C41.8182 30.6957 42.194 32.1558 42.5713 33.6173C42.5713 33.5055 42.5713 33.3937 42.5713 33.2834C41.9551 35.1794 41.3375 37.0754 40.7214 38.9714C40.632 39.2438 40.5439 39.5163 40.4545 39.7902C40.203 40.5614 41.4172 40.8926 41.6673 40.1241C42.3575 38.0003 43.1106 35.8864 43.7421 33.7444C43.8805 33.2736 43.6401 32.7287 43.5214 32.269C43.2294 31.1359 42.9373 30.0013 42.6453 28.8682C41.9118 26.0179 41.1783 23.169 40.4447 20.3187C40.2449 19.5432 40.0591 18.765 39.8453 17.9923C39.8425 17.9811 39.8202 17.854 39.809 17.8526C39.8635 17.8652 39.8146 18.1572 39.809 18.1782C39.7657 18.3332 39.6763 18.4422 39.5491 18.5205C39.6539 18.4562 39.4206 18.5847 39.4723 18.5498C39.5086 18.5261 39.5659 18.5344 39.605 18.5191C39.6106 18.5177 39.4248 18.5302 39.5477 18.5275C39.5882 18.5261 39.6288 18.5205 39.6693 18.5191C39.7769 18.5135 39.8858 18.5135 39.9934 18.5149C42.1018 18.5456 44.1529 19.2316 46.2655 19.1813C47.189 19.159 48.5234 19.0109 49.0194 18.0831C49.0557 18.0147 49.0976 17.9294 49.113 17.8498C48.7092 17.8498 48.304 17.8498 47.9002 17.8498C48.5835 20.6428 49.7892 23.3115 50.7813 26.0039C51.8529 28.9129 52.9693 31.963 53.204 35.0774C53.3326 36.7708 52.9791 38.3762 52.6843 40.0389C52.3126 42.1444 51.9228 44.2472 51.5386 46.35C50.8441 50.1491 50.1455 53.955 49.7152 57.7946C49.5391 59.3706 49.412 60.9537 49.3994 62.5395C49.3938 63.2772 49.3016 64.1309 49.5978 64.8183C50.0226 65.8034 50.4473 66.7898 50.8735 67.7748C52.5557 71.6744 54.238 75.5754 55.9216 79.475C56.7012 81.2816 57.4809 83.0896 58.2605 84.8962C58.6741 85.8547 59.0611 86.8313 59.504 87.7772C59.525 87.822 59.5432 87.8681 59.5627 87.9128C59.5948 87.6585 59.6284 87.4042 59.6605 87.1513C58.6559 88.3208 57.3607 89.106 55.9705 89.8046C54.3148 90.6359 52.5613 91.2619 50.7924 91.804C47.611 92.7792 44.3401 93.4751 41.0567 94.006C40.5509 94.0884 40.0437 94.1653 39.5365 94.2365C39.4569 94.2477 39.3773 94.2589 39.2962 94.2701C39.197 94.284 39.4709 94.2477 39.2669 94.2743C39.2166 94.2812 39.1663 94.2868 39.1146 94.2938C38.7779 94.3357 38.4858 94.5537 38.4858 94.9226C38.4872 95.2285 38.7765 95.5904 39.116 95.5485Z" fill="#05194C"/>
<path d="M25.5982 78.4274C26.2102 79.242 26.7635 80.1013 27.2553 80.9927C27.5431 81.5153 27.8114 82.049 28.0587 82.5925C28.1216 82.7294 28.1817 82.8664 28.2417 83.0047C28.2571 83.0396 28.2711 83.0745 28.2865 83.1095C28.3256 83.2003 28.2515 83.0256 28.2906 83.1179C28.3242 83.1989 28.3577 83.2785 28.3898 83.3596C28.5156 83.6711 28.6358 83.9855 28.7475 84.3027C29.0144 85.0544 29.2421 85.82 29.4322 86.5955C29.5104 86.9155 29.889 87.1376 30.2062 87.0342C30.5374 86.9266 30.7288 86.6039 30.6449 86.2602C30.0316 83.7564 29.0172 81.3364 27.6326 79.1596C27.335 78.6915 27.0192 78.2346 26.6853 77.7903C26.4882 77.5276 26.1334 77.3655 25.8246 77.5653C25.5647 77.7344 25.3872 78.1466 25.5982 78.4274Z" fill="#05194C"/>
<path d="M35.4536 1.29235C35.7749 2.02309 36.0949 2.75244 36.4163 3.48318C36.9276 4.64705 37.439 5.81092 37.9504 6.9748C38.0677 7.24166 38.1851 7.50853 38.3025 7.7754C38.4352 8.07719 38.9005 8.17081 39.1632 8.00035C39.4761 7.79915 39.5306 7.46382 39.3881 7.13967C39.0668 6.40893 38.7468 5.67959 38.4254 4.94885C37.9141 3.78497 37.4027 2.6211 36.8913 1.45722C36.7739 1.19036 36.6566 0.923491 36.5392 0.656625C36.4065 0.354828 35.9412 0.261215 35.6785 0.431674C35.3669 0.634269 35.3125 0.969599 35.4536 1.29235Z" fill="#05194C"/>
<path d="M37.4834 1.48767C37.8047 2.21841 38.1247 2.94775 38.446 3.67849C38.9574 4.84236 39.4688 6.00624 39.9802 7.17011C40.0975 7.43698 40.2149 7.70384 40.3323 7.97071C40.465 8.27251 40.9303 8.36612 41.1929 8.19566C41.5059 7.99446 41.5604 7.65913 41.4179 7.33498C41.0965 6.60424 40.7766 5.8749 40.4552 5.14416C39.9438 3.98028 39.4325 2.81641 38.9211 1.65254C38.8037 1.38567 38.6864 1.1188 38.569 0.851937C38.4363 0.55014 37.971 0.456528 37.7083 0.626987C37.3967 0.829582 37.3422 1.16351 37.4834 1.48767Z" fill="#05194C"/>
<path d="M39.7695 2.04528C40.0908 2.77602 40.4108 3.50537 40.7321 4.23611C41.2435 5.39998 41.7549 6.56385 42.2663 7.72773C42.3836 7.99459 42.501 8.26146 42.6184 8.52833C42.7511 8.83012 43.2164 8.92374 43.479 8.75328C43.792 8.55208 43.8465 8.21675 43.704 7.8926C43.3826 7.16186 43.0627 6.43252 42.7413 5.70178C42.2299 4.5379 41.7186 3.37403 41.2072 2.21015C41.0898 1.94329 40.9725 1.67642 40.8551 1.40955C40.7224 1.10776 40.2571 1.01414 39.9944 1.1846C39.6814 1.3858 39.6269 1.72113 39.7695 2.04528Z" fill="#05194C"/>
<path d="M30.868 97.2344C31.6644 97.2819 32.4608 97.3294 33.2558 97.3769C34.5245 97.4524 35.7931 97.5292 37.0618 97.6047C37.3524 97.6214 37.6444 97.6396 37.935 97.6564C38.2634 97.6759 38.5778 97.3532 38.5638 97.0276C38.5484 96.6699 38.2871 96.4198 37.935 96.3989C37.1386 96.3514 36.3422 96.3039 35.5472 96.2564C34.2785 96.1809 33.0099 96.1041 31.7412 96.0286C31.4506 96.0119 31.1586 95.9937 30.868 95.9769C30.5396 95.9574 30.2252 96.2801 30.2392 96.6057C30.2546 96.9633 30.5145 97.2134 30.868 97.2344Z" fill="#05194C"/>
<path d="M32.4214 95.1368C33.2178 95.1843 34.0142 95.2318 34.8093 95.2793C36.0779 95.3547 37.3466 95.4316 38.6152 95.507C38.9059 95.5238 39.1979 95.5419 39.4885 95.5587C39.8168 95.5783 40.1312 95.2555 40.1172 94.93C40.1019 94.5723 39.8406 94.3222 39.4885 94.3012C38.6921 94.2537 37.8957 94.2062 37.1007 94.1587C35.832 94.0833 34.5633 94.0064 33.2947 93.931C33.0041 93.9142 32.712 93.896 32.4214 93.8793C32.0931 93.8597 31.7787 94.1825 31.7927 94.508C31.8095 94.8657 32.0693 95.1158 32.4214 95.1368Z" fill="#05194C"/>
<path d="M33.9485 93.294C34.7449 93.3415 35.5413 93.389 36.3364 93.4365C37.605 93.5119 38.8737 93.5888 40.1423 93.6642C40.433 93.681 40.725 93.6992 41.0156 93.7159C41.3439 93.7355 41.6583 93.4127 41.6443 93.0872C41.629 92.7295 41.3677 92.4794 41.0156 92.4585C40.2192 92.4109 39.4228 92.3634 38.6278 92.3159C37.3591 92.2405 36.0904 92.1636 34.8218 92.0882C34.5312 92.0714 34.2391 92.0533 33.9485 92.0365C33.6202 92.0169 33.3058 92.3397 33.3198 92.6652C33.3352 93.0229 33.5964 93.273 33.9485 93.294Z" fill="#05194C"/>
<path d="M8.67324 175.626C8.82693 175.58 8.98482 175.547 9.1427 175.516C9.22793 175.499 9.31316 175.484 9.39979 175.47C9.44031 175.463 9.48083 175.457 9.52134 175.45C9.54649 175.446 9.57304 175.443 9.59819 175.439C9.70298 175.424 9.40817 175.463 9.56606 175.443C9.80498 175.415 10.0439 175.393 10.2828 175.381C10.5818 175.365 10.8822 175.362 11.1826 175.372C11.4984 175.383 11.8575 175.374 12.1649 175.452C11.9972 175.41 12.1397 175.449 12.1788 175.455C12.2249 175.462 12.271 175.469 12.3172 175.476C12.3954 175.488 12.4722 175.501 12.5491 175.516C12.7573 175.554 12.9655 175.598 13.1709 175.65C13.5607 175.747 13.9449 175.867 14.3221 176.008C14.3738 176.027 14.4255 176.047 14.4758 176.067C14.4982 176.075 14.7106 176.163 14.5834 176.108C14.6882 176.153 14.7916 176.199 14.895 176.247C15.1269 176.354 15.3533 176.47 15.5768 176.595C15.8102 176.725 16.0393 176.864 16.2629 177.012C16.3886 177.095 16.5116 177.18 16.6331 177.268C16.6862 177.306 16.7393 177.345 16.7924 177.384C16.8273 177.411 16.8637 177.437 16.8986 177.464C16.8595 177.433 16.8693 177.441 16.9293 177.489C17.1864 177.693 17.5707 177.759 17.818 177.489C18.0261 177.263 18.0932 176.817 17.818 176.6C16.323 175.42 14.5834 174.578 12.6958 174.27C11.4593 174.067 10.2088 174.057 8.97224 174.271C8.75987 174.307 8.5447 174.348 8.33651 174.412C8.02214 174.507 7.7902 174.857 7.89779 175.186C8.00258 175.503 8.33512 175.728 8.67324 175.626Z" fill="#05194C"/>
<path d="M7.65883 179.934C7.81253 179.887 7.97041 179.854 8.1283 179.823C8.21353 179.806 8.29876 179.791 8.38538 179.777C8.4259 179.77 8.46642 179.764 8.50694 179.757C8.53209 179.753 8.55864 179.751 8.58379 179.746C8.68858 179.731 8.39377 179.77 8.55165 179.75C8.79057 179.723 9.0295 179.7 9.26842 179.688C9.56742 179.672 9.86782 179.669 10.1682 179.679C10.484 179.69 10.8431 179.681 11.1505 179.759C10.9828 179.717 11.1253 179.756 11.1644 179.762C11.2105 179.769 11.2566 179.776 11.3028 179.783C11.381 179.795 11.4578 179.808 11.5347 179.823C11.7429 179.861 11.9511 179.906 12.1564 179.957C12.5463 180.054 12.9305 180.174 13.3077 180.315C13.3594 180.335 13.4111 180.354 13.4614 180.374C13.4838 180.382 13.6962 180.47 13.569 180.416C13.6738 180.46 13.7772 180.506 13.8806 180.554C14.1125 180.661 14.3389 180.777 14.5624 180.902C14.7958 181.032 15.0249 181.171 15.2485 181.32C15.3742 181.402 15.4972 181.487 15.6187 181.575C15.6718 181.613 15.7249 181.652 15.778 181.691C15.8129 181.718 15.8493 181.744 15.8842 181.771C15.8451 181.74 15.8549 181.748 15.9149 181.796C16.172 182 16.5563 182.066 16.8036 181.796C17.0117 181.57 17.0788 181.124 16.8036 180.907C15.3085 179.727 13.569 178.886 11.6814 178.577C10.4449 178.374 9.19437 178.364 7.95784 178.578C7.74546 178.615 7.53029 178.655 7.32211 178.719C7.00774 178.814 6.7758 179.164 6.88338 179.493C6.98818 179.811 7.32211 180.036 7.65883 179.934Z" fill="#05194C"/>
<path d="M6.6459 184.367C6.79959 184.321 6.95747 184.287 7.11536 184.257C7.20059 184.24 7.28582 184.225 7.37244 184.211C7.41296 184.204 7.45348 184.198 7.494 184.191C7.51915 184.187 7.5457 184.184 7.57085 184.18C7.67564 184.165 7.38083 184.204 7.53871 184.184C7.77763 184.156 8.01656 184.134 8.25548 184.121C8.55448 184.106 8.85488 184.103 9.15528 184.113C9.47105 184.124 9.83013 184.114 10.1375 184.192C9.96985 184.151 10.1124 184.19 10.1515 184.195C10.1976 184.202 10.2437 184.209 10.2898 184.216C10.3681 184.229 10.4449 184.241 10.5217 184.257C10.7299 184.294 10.9381 184.339 11.1435 184.391C11.5333 184.487 11.9176 184.607 12.2948 184.749C12.3465 184.768 12.3982 184.788 12.4485 184.807C12.4709 184.816 12.6832 184.904 12.5561 184.849C12.6609 184.894 12.7643 184.94 12.8677 184.987C13.0996 185.095 13.3259 185.211 13.5495 185.335C13.7828 185.465 14.012 185.605 14.2355 185.753C14.3613 185.836 14.4842 185.921 14.6058 186.009C14.6589 186.047 14.712 186.086 14.7651 186.125C14.8 186.151 14.8363 186.178 14.8713 186.204C14.8321 186.174 14.8419 186.182 14.902 186.23C15.1591 186.434 15.5433 186.499 15.7906 186.23C15.9988 186.003 16.0659 185.558 15.7906 185.341C14.2956 184.16 12.5561 183.319 10.6685 183.01C9.43193 182.808 8.18143 182.798 6.9449 183.012C6.73252 183.048 6.51735 183.089 6.30917 183.153C5.9948 183.248 5.76286 183.597 5.87045 183.927C5.97524 184.246 6.30917 184.469 6.6459 184.367Z" fill="#05194C"/>
<path d="M25.4564 36.7C25.4103 36.883 25.4131 37.087 25.4243 37.2742C25.448 37.6976 25.5263 38.1195 25.6311 38.5289C25.6716 38.6868 25.7135 38.8433 25.7484 39.0026C25.7638 39.0696 25.775 39.1381 25.7876 39.2052C25.8029 39.282 25.7848 39.1409 25.7918 39.2401C25.7945 39.2764 25.7973 39.3127 25.7987 39.3491C25.8001 39.3784 25.7987 39.4092 25.7973 39.4385C25.7973 39.4567 25.7931 39.4776 25.7931 39.4958C25.7931 39.4874 25.8155 39.4189 25.7987 39.4539C25.789 39.4734 25.7834 39.5112 25.7792 39.5321C25.7624 39.6187 25.7736 39.4804 25.7764 39.5405C25.7764 39.5503 25.7554 39.574 25.7498 39.5852C25.7512 39.5824 25.8071 39.5237 25.775 39.5517C25.7638 39.5615 25.6995 39.6215 25.7484 39.5824C25.7959 39.5433 25.7205 39.5964 25.7065 39.6048C25.6339 39.6509 25.747 39.6006 25.6562 39.6229C25.6199 39.6327 25.5836 39.6411 25.5472 39.6495C25.5011 39.6593 25.5486 39.6509 25.557 39.6495C25.5347 39.6523 25.5123 39.6537 25.4914 39.6551C25.3866 39.6621 25.2832 39.6593 25.1798 39.6565C25.0652 39.6523 24.9506 39.6523 24.8361 39.6551C24.5357 39.6634 24.2367 39.697 23.9405 39.7431C23.2614 39.8465 22.6061 40.0505 21.9816 40.3341C21.2788 40.6541 20.6249 41.1026 20.0842 41.6531C19.4456 42.3028 18.9915 43.081 18.6632 43.9263C18.0442 45.515 17.9115 47.2168 17.579 48.8738C17.5161 49.1896 17.4434 49.5068 17.3372 49.8114C17.3163 49.8714 17.2939 49.9301 17.2702 49.9888C17.2995 49.9134 17.2772 49.9734 17.259 50.0126C17.245 50.0433 17.2297 50.0726 17.2143 50.1034C17.1864 50.1565 17.157 50.2082 17.1249 50.2571C17.1109 50.2794 17.0941 50.299 17.0816 50.3213C17.0578 50.3605 17.1095 50.2864 17.1095 50.2878C17.0983 50.3004 17.0885 50.3144 17.0788 50.3255C17.0438 50.3647 17.0061 50.3996 16.9698 50.4359C16.9167 50.4904 16.9991 50.4219 16.9824 50.4275C16.9558 50.4373 16.9307 50.4625 16.9055 50.4764C16.8873 50.4862 16.8608 50.4946 16.8454 50.5072C16.8343 50.517 16.9335 50.482 16.8608 50.4988C16.8343 50.5044 16.8091 50.5142 16.784 50.5211C16.7644 50.5253 16.6736 50.5351 16.7462 50.5295C16.8217 50.5239 16.7337 50.5281 16.7169 50.5281C16.6875 50.5281 16.6568 50.5281 16.6275 50.5267C16.6009 50.5253 16.5744 50.5225 16.5478 50.5198C16.6708 50.5309 16.5017 50.5086 16.4598 50.4988C16.239 50.4499 16.0686 50.3898 15.8883 50.2585C15.9289 50.2878 15.852 50.2263 15.8408 50.2166C15.8115 50.1886 15.7836 50.1593 15.757 50.1285C15.8031 50.183 15.7347 50.0922 15.7235 50.0726C15.6746 49.9944 15.7207 50.0852 15.6983 50.0237C15.6215 49.8114 15.4133 49.6675 15.1828 49.7303C14.9774 49.7862 14.8125 50.0321 14.8893 50.2459C15.173 51.0367 16.1887 51.5048 16.9949 51.3287C17.5929 51.1988 17.9213 50.6343 18.1183 50.1048C18.367 49.4341 18.4648 48.7076 18.578 48.0048C18.7205 47.1245 18.8588 46.2415 19.081 45.3766C19.3101 44.4894 19.6049 43.6553 20.1275 42.8994C20.5732 42.2553 21.174 41.7271 21.8544 41.3345C22.0151 41.2423 22.1814 41.1557 22.3504 41.0774C22.3937 41.0579 22.4371 41.0383 22.479 41.0187C22.4971 41.0104 22.588 40.9726 22.5265 40.9978C22.6117 40.9629 22.6983 40.9293 22.785 40.8972C23.1077 40.7798 23.4375 40.6862 23.7742 40.6149C23.9251 40.5828 24.0774 40.5577 24.2311 40.5353C24.3079 40.5241 24.1654 40.5423 24.266 40.5311C24.2981 40.5269 24.3289 40.5241 24.361 40.5199C24.4379 40.5116 24.5147 40.5046 24.5915 40.499C24.8696 40.4794 25.1462 40.5004 25.4243 40.4906C25.8281 40.4752 26.2584 40.3551 26.4834 39.9904C26.672 39.683 26.6538 39.3183 26.5993 38.976C26.4876 38.2844 26.2165 37.6473 26.2654 36.9473C26.2668 36.9291 26.2696 36.911 26.2696 36.8928C26.2724 36.8145 26.2724 36.9878 26.2626 36.9473C26.2612 36.9389 26.2668 36.9235 26.2682 36.9151C26.3967 36.3996 25.5878 36.176 25.4564 36.7Z" fill="#05194C"/>
<path d="M21.6812 94.7385C22.0891 94.9258 22.4971 95.1116 22.9037 95.2988C23.1343 95.405 23.485 95.4302 23.6652 95.201C24.4113 94.2565 25.1574 93.312 25.9035 92.3689C27.0883 90.8697 28.2718 89.3719 29.4566 87.8727C29.7277 87.529 30.0001 87.1852 30.2712 86.8415C29.975 86.8415 29.6788 86.8415 29.3826 86.8415C29.641 87.1293 29.9023 87.4158 30.1566 87.7078C30.1734 87.726 30.281 87.8657 30.1999 87.7539C30.2628 87.8405 30.3201 87.93 30.3704 88.0236C30.3955 88.0697 30.4179 88.1172 30.4402 88.1661C30.3788 88.0305 30.4458 88.1898 30.4528 88.2108C30.4919 88.3268 30.5185 88.4455 30.5408 88.5657C30.5367 88.5419 30.5297 88.4329 30.5381 88.5531C30.5422 88.6048 30.5464 88.6565 30.5478 88.7096C30.5506 88.8144 30.545 88.9192 30.5339 89.024C30.552 88.8661 30.5269 89.0393 30.5213 89.0645C30.5101 89.1162 30.4975 89.1679 30.4822 89.2196C30.4668 89.2713 30.4486 89.3216 30.4319 89.3719C30.3872 89.5074 30.4347 89.3691 30.4333 89.3733C30.0937 90.1361 29.7416 90.8948 29.3965 91.6549C29.2554 91.9637 29.1157 92.2739 28.9746 92.5827C28.8614 92.8314 28.8544 93.1443 29.0724 93.3441C29.2862 93.5397 29.5768 93.5761 29.8339 93.4419C31.157 92.7503 32.4802 92.0587 33.8047 91.3671C33.9947 91.2679 34.1848 91.1687 34.3748 91.0681C34.2686 91.096 34.1638 91.1254 34.0576 91.1533C35.1055 91.2441 36.1534 91.3349 37.1999 91.4244C38.646 91.5487 40.0922 91.6745 41.5383 91.7988C41.664 91.81 41.7898 91.824 41.9155 91.831C41.9686 91.8338 41.9574 91.8603 41.8079 91.817C41.6598 91.7737 41.5522 91.6312 41.5494 91.4789C41.5453 91.184 41.65 91.2427 41.5802 91.3196C41.5634 91.3377 41.5494 91.3601 41.5355 91.3797C41.2896 91.7066 41.0423 92.0349 40.7964 92.3619C39.8435 93.6264 38.8906 94.8922 37.9377 96.1567C37.267 97.0481 36.5726 97.927 35.9215 98.8324C35.9117 98.8463 35.9005 98.8617 35.8894 98.8757C36.071 98.7723 36.2512 98.6675 36.4329 98.5641C35.4031 98.6354 34.372 98.7066 33.3422 98.7793C31.987 98.8729 30.6331 98.9679 29.2778 99.0615C29.187 99.0685 29.0947 99.0713 29.0039 99.0811C28.6337 99.1174 28.4967 99.3381 28.2816 99.5882C27.7981 100.153 27.3147 100.717 26.8313 101.28C26.6915 101.444 26.556 101.617 26.4023 101.766C26.352 101.814 26.3003 101.86 26.2472 101.903C26.3534 101.815 26.1774 101.947 26.1438 101.968C26.0782 102.008 26.0111 102.04 25.944 102.078C25.9189 102.092 25.8337 102.123 25.9552 102.075C25.9077 102.093 25.8616 102.112 25.8127 102.127C25.7484 102.148 25.6842 102.166 25.6185 102.18C25.564 102.193 25.3963 102.212 25.5374 102.2C25.3838 102.214 25.2357 102.212 25.082 102.205C24.9199 102.198 25.17 102.228 25.0722 102.205C25.0386 102.198 25.0051 102.193 24.9716 102.186C24.8961 102.169 24.8207 102.149 24.7466 102.124C24.7159 102.114 24.572 102.056 24.7005 102.113C24.6977 102.112 24.6935 102.11 24.6907 102.109C24.6418 102.086 24.5943 102.064 24.5468 102.042C24.3233 101.937 24.0983 101.832 23.8748 101.727C22.648 101.155 21.4199 100.582 20.1931 100.009C20.1652 99.9962 20.1372 99.9823 20.1093 99.9697C19.8117 99.8314 19.4177 99.8761 19.2486 100.195C19.1019 100.473 19.1564 100.906 19.4736 101.055C20.745 101.649 22.0179 102.242 23.2893 102.835C23.9782 103.157 24.6474 103.521 25.4382 103.467C26.2025 103.414 26.9305 103.081 27.439 102.5C27.6025 102.313 27.7618 102.124 27.9225 101.936C28.4311 101.342 28.941 100.748 29.4496 100.153C29.3015 100.214 29.1534 100.276 29.0053 100.337C29.8828 100.276 30.7602 100.216 31.6377 100.154C32.9874 100.061 34.3357 99.9669 35.6854 99.8733C35.983 99.8523 36.3099 99.8649 36.6033 99.7992C36.8912 99.7336 37.1552 99.2753 37.3299 99.0447C38.0676 98.0653 38.8053 97.0859 39.5431 96.1064C40.3562 95.0278 41.1694 93.9477 41.9812 92.8691C42.1922 92.5896 42.4017 92.3102 42.6127 92.0308C42.7762 91.8142 42.853 91.5431 42.7874 91.2707C42.6784 90.818 42.3039 90.6084 41.8722 90.5679C40.8578 90.4757 39.8421 90.3918 38.8277 90.3052C37.4906 90.1892 36.1534 90.0747 34.8163 89.9587C34.5676 89.9377 34.3133 89.8972 34.0632 89.893C33.8746 89.8902 33.6943 90.0048 33.5323 90.0914C33.3213 90.2018 33.1103 90.3122 32.8993 90.4226C31.7508 91.022 30.6037 91.6228 29.4552 92.2222C29.3714 92.2655 29.2876 92.3088 29.2051 92.3535C29.4915 92.6399 29.778 92.9264 30.0658 93.2142C30.4207 92.4345 30.7756 91.6535 31.1291 90.8739C31.2604 90.5846 31.3945 90.2954 31.5245 90.0048C31.9353 89.0813 31.9101 87.9816 31.3065 87.1391C31.0019 86.7144 30.6233 86.3385 30.2768 85.9501C30.0686 85.7182 29.5907 85.693 29.3882 85.9501C28.642 86.8946 27.8959 87.8391 27.1498 88.7822C25.965 90.2815 24.7816 91.7793 23.5967 93.2785C23.3257 93.6222 23.0532 93.9659 22.7822 94.3096C23.0364 94.2775 23.2907 94.2439 23.5436 94.2118C23.1356 94.0246 22.7277 93.8387 22.3211 93.6515C22.0221 93.5146 21.6295 93.5565 21.4604 93.8765C21.3095 94.1545 21.3626 94.5918 21.6812 94.7385Z" fill="#05194C"/>
<defs>
<linearGradient id="paint0_linear" x1="44.7784" y1="18.7254" x2="50.0324" y2="3.32943" gradientUnits="userSpaceOnUse">
<stop stop-color="#005EB8" stop-opacity="0.98"/>
<stop offset="0.385417" stop-color="#6DCDD3" stop-opacity="0.989062"/>
<stop offset="1" stop-color="#D5F79D"/>
</linearGradient>
<linearGradient id="paint1_linear" x1="-30.5" y1="45.5" x2="57.3102" y2="234.564" gradientUnits="userSpaceOnUse">
<stop stop-color="#D5F79D"/>
<stop offset="0.463271" stop-color="#6DCDD3" stop-opacity="0.989062"/>
<stop offset="1" stop-color="#005EB8" stop-opacity="0.98"/>
</linearGradient>
<linearGradient id="paint2_linear" x1="30.138" y1="81.8622" x2="30.1508" y2="81.8622" gradientUnits="userSpaceOnUse">
<stop stop-color="white"/>
<stop offset="1" stop-color="#05194C"/>
</linearGradient>
<linearGradient id="paint3_linear" x1="32.1682" y1="85.6952" x2="32.1777" y2="85.6952" gradientUnits="userSpaceOnUse">
<stop stop-color="white"/>
<stop offset="1" stop-color="#05194C"/>
</linearGradient>
</defs>
</svg>
