<svg width="294" height="298" viewBox="0 0 294 298" fill="none" xmlns="http://www.w3.org/2000/svg">
<g clip-path="url(#clip0)">
<path d="M51.2103 75.4109C44.5307 85.7441 40.5054 86.7469 34.208 136.028C27.9107 185.31 21.6168 189.023 14.3762 201.173C14.3762 201.173 15.2598 202.754 18.3664 204.837L17.9141 204.932C17.9141 204.932 16.48 212.982 14.9618 225.335C13.3874 238.154 16.2135 251.205 23.1105 261.811C37.4724 283.894 66.8345 304.056 106.817 290.234C109.3 289.375 111.502 287.765 113.118 285.574C114.24 284.055 115.615 281.941 117.168 279.059L129.384 271.643C131.747 270.23 133.879 266.503 135.166 261.675C136.277 257.506 142.662 233.799 144.388 227.397L145.264 224.406C152.862 244.602 156.316 250.493 160.135 249.371L161.25 250.195C162.298 260.367 164.283 284.616 165.243 294.266C165.243 294.266 252.737 297.471 266.895 297.99C268.126 298.035 269.353 297.814 270.5 297.337C279.553 293.568 281.829 294.452 281.043 277.709C280.689 277.415 279.978 276.913 278.968 276.233L278.547 267.428L278.109 266.969C279.627 264.862 279.802 262.218 276.86 260.118C262.667 248.357 252.726 239.15 245.773 232.071L236.31 221.622L230.615 213.217L230.286 211.899C233.375 211.057 233.101 207.971 229.57 196.997L237.933 185.615L239.22 150.433C229.928 141.186 218.88 138.223 207.105 137.967L207.07 137.887L206.085 131.46C201.323 102.406 196.117 90.7932 187.379 85.4215C182.926 82.6831 139.994 81.4068 133.988 81.9503C132.228 82.108 130.457 82.5604 129.174 83.8016C127.105 85.8037 124.927 88.7315 123.556 90.646L116.4 88.9629C116.4 88.9629 93.1741 90.5127 79.5835 80.3724C70.467 73.5701 79.2329 63.1914 80.6354 60.6843C82.038 58.1773 87.024 48.8855 91.1544 46.0103C94.8852 43.4121 101.323 41.715 101.323 41.715C98.8684 31.6939 97.4167 25.5017 85.8949 5.92236C85.9054 5.92236 57.8863 65.0813 51.2103 75.4109Z" fill="url(#paint0_linear)"/>
<path d="M83.8257 6.77793C85.2738 10.1896 86.9603 27.311 80.6489 36.5713C70.5998 51.3154 49.425 63.542 46.4622 74.4713C18.948 20.2107 21.9284 39.464 36.8899 29.783C45.5821 24.1553 51.1817 13.5417 52.8718 11.2205C54.8879 8.44694 56.8444 6.50093 59.0149 5.0493C59.7302 4.56893 63.794 2.92096 68.482 2.06892C74.4603 0.978445 81.4554 1.18883 83.8257 6.77793Z" fill="#05194C"/>
<path d="M82.304 7.19526C82.5389 7.75627 82.6827 8.35235 82.8124 8.94492C82.9001 9.34464 82.9737 9.74437 83.0438 10.1476C83.0824 10.372 83.1175 10.5999 83.1525 10.8243C83.1701 10.9435 83.1876 11.0627 83.2051 11.1785C83.2367 11.3888 83.149 10.7402 83.1876 11.0417C83.1981 11.1259 83.2086 11.2065 83.2192 11.2907C83.5172 13.689 83.6294 16.1119 83.5943 18.5277C83.5733 19.9338 83.4997 21.3363 83.3664 22.7353C83.3349 23.0825 83.2963 23.4331 83.2542 23.7802C83.2367 23.9345 83.2156 24.0888 83.1981 24.2466C83.1876 24.3237 83.1806 24.4009 83.1666 24.478C83.2297 24.0572 83.1736 24.4254 83.1595 24.5236C83.0579 25.2389 82.9351 25.9542 82.7949 26.666C82.5214 28.051 82.1708 29.4254 81.722 30.7649C81.6133 31.0874 81.4975 31.41 81.3783 31.7326C81.3187 31.8904 81.2556 32.0482 81.1925 32.206C81.1574 32.2901 81.1294 32.3883 81.0873 32.4654C81.2065 32.2516 81.1504 32.3217 81.0698 32.5005C80.8033 33.1106 80.5123 33.7067 80.1932 34.2887C79.4989 35.544 78.6504 36.7116 77.7808 37.8512C77.7317 37.9178 77.6791 37.9809 77.6301 38.0475C77.8299 37.7846 77.6932 37.9669 77.6476 38.023C77.5179 38.1878 77.3916 38.3491 77.2619 38.5139C77.027 38.8084 76.7885 39.0994 76.5501 39.3905C76.0522 39.9935 75.5403 40.5861 75.0249 41.1717C72.9105 43.563 70.649 45.8211 68.3313 48.016C63.8116 52.3008 59.0465 56.3261 54.5794 60.6669C50.9925 64.1522 47.2687 67.9811 45.3858 72.7042C45.2105 73.1425 45.0597 73.5913 44.9335 74.0471C45.8942 73.9209 46.855 73.7946 47.8157 73.6719C44.5022 67.1361 41.1081 60.6389 37.6088 54.2012C35.4419 50.211 33.2224 46.2524 30.9958 42.2937C29.8352 40.225 28.6045 38.1667 27.6263 36.0033C27.5912 35.9262 27.5561 35.8456 27.5211 35.7684C27.3843 35.4599 27.7069 36.2277 27.5666 35.8736C27.5105 35.7298 27.4544 35.5896 27.4018 35.4458C27.3212 35.2109 27.2581 34.9725 27.202 34.7305C27.1354 34.4255 27.2335 35.0251 27.2335 34.983C27.2335 34.9374 27.223 34.8883 27.223 34.8427C27.223 34.7586 27.2335 34.6674 27.23 34.5833C27.2476 35.0882 27.181 35.0321 27.2265 34.7726C27.2651 34.5377 27.0091 35.239 27.1143 35.0426C27.1319 35.011 27.1494 34.9795 27.1669 34.9479C27.2686 34.7866 26.7882 35.3582 27.0617 35.0987C27.3142 34.8603 26.6515 35.3476 26.925 35.2004C26.9951 35.1618 27.0687 35.1232 27.1389 35.0812C27.4124 34.9304 26.6234 35.267 27.0267 35.1303C27.4755 34.9795 27.9348 34.8813 28.3976 34.7831C29.8668 34.4781 31.3184 34.1415 32.7245 33.619C35.9748 32.4128 38.857 30.5334 41.4763 28.2648C45.9644 24.3763 49.4707 19.485 52.6229 14.4919C53.0577 13.8047 53.482 13.1069 53.9343 12.4302C54.0114 12.3145 54.0885 12.2023 54.1692 12.0866C54.2533 11.9709 54.3375 11.8552 54.4216 11.7395C54.4883 11.6518 54.5549 11.5642 54.618 11.473C54.6846 11.3853 54.7477 11.3012 54.8144 11.2135C54.7477 11.2977 54.7477 11.3012 54.8144 11.217C55.4069 10.4667 56.0275 9.74086 56.6902 9.05362C57.3074 8.41196 57.963 7.80185 58.6538 7.24084C58.7414 7.17071 59.1096 6.8867 58.8501 7.08306C59.022 6.95332 59.1973 6.82359 59.3726 6.69736C59.576 6.5536 59.7758 6.40633 59.9932 6.28712C60.144 6.20296 60.3018 6.12933 60.4595 6.0557C60.5612 6.01012 60.6629 5.96453 60.7646 5.91895C60.8663 5.87337 61.0802 5.80324 60.6559 5.96453C60.7401 5.93298 60.8242 5.89441 60.9084 5.86285C61.564 5.59637 62.2302 5.35794 62.9 5.13353C64.6987 4.53044 66.536 4.03955 68.3979 3.67489C68.7941 3.59775 69.1903 3.52763 69.59 3.46101C69.7864 3.42945 69.9828 3.39789 70.1826 3.36984C70.2598 3.35932 70.3404 3.3453 70.421 3.33478C70.0073 3.38036 70.3825 3.34179 70.4771 3.32777C71.252 3.2331 72.034 3.16647 72.8159 3.13492C73.5662 3.10687 74.3166 3.11037 75.0634 3.15596C75.407 3.17699 75.8243 3.16297 76.1574 3.25764C76.1188 3.24712 75.7892 3.20154 76.0768 3.24712C76.1504 3.25764 76.2275 3.26816 76.3012 3.28218C76.5045 3.31374 76.7079 3.35231 76.9113 3.39439C77.2549 3.46451 77.595 3.54867 77.9316 3.65035C78.0719 3.69243 78.2086 3.7345 78.3454 3.78008C78.4821 3.82567 78.8468 3.89579 78.952 4.00449C78.9379 3.98696 78.6048 3.8467 78.8678 3.96943C78.9309 3.99748 78.9975 4.02903 79.0606 4.05709C79.2184 4.13072 79.3762 4.21136 79.5305 4.29552C79.8355 4.46382 80.1336 4.64615 80.4176 4.84952C80.4597 4.88107 80.5578 4.93367 80.5859 4.97224C80.4211 4.7303 80.4316 4.84601 80.5508 4.95471C80.6665 5.0599 80.7893 5.15808 80.9015 5.26677C81.1329 5.48767 81.3433 5.7226 81.5501 5.96453C81.7816 6.23101 81.4204 5.74714 81.5326 5.94349C81.5782 6.02063 81.6413 6.09076 81.6904 6.16439C81.7745 6.28712 81.8517 6.40984 81.9288 6.53607C82.1252 6.86566 82.297 7.20578 82.4478 7.55641C82.7774 8.31729 83.9485 8.5452 84.6077 8.12093C85.3966 7.61251 85.5263 6.7745 85.1722 5.96103C82.3917 -0.473105 74.3306 -0.550244 68.4575 0.452569C65.1545 1.01358 61.7849 1.93575 58.7485 3.37335C58.3032 3.58373 57.914 3.85372 57.5177 4.14474C56.7463 4.70926 56.003 5.31235 55.3052 5.96804C53.8676 7.31798 52.5913 8.85726 51.4518 10.4632C50.3999 11.9428 49.4988 13.5347 48.4995 15.0495C47.7281 16.2171 46.9321 17.3671 46.0976 18.4892C45.8872 18.7732 45.6733 19.0537 45.4595 19.3342C45.214 19.6568 45.6663 19.0712 45.4139 19.3938C45.3648 19.4569 45.3157 19.52 45.2666 19.5832C45.1299 19.7585 44.9896 19.9338 44.8494 20.1091C44.3409 20.7437 43.8185 21.3644 43.282 21.9745C42.167 23.2403 40.9889 24.4535 39.7336 25.579C39.4391 25.842 39.141 26.1014 38.8395 26.3574C38.6712 26.4977 38.4994 26.6379 38.3311 26.7782C38.261 26.8343 38.1943 26.8904 38.1242 26.943C38.0927 26.9675 37.742 27.241 38.026 27.0236C37.3774 27.5215 36.7077 27.9984 36.0204 28.4402C35.0211 29.0818 33.9797 29.6569 32.8963 30.1478C32.7841 30.1968 32.6719 30.2459 32.5597 30.295C32.2511 30.4318 32.8297 30.1863 32.7174 30.2284C32.6508 30.2564 32.5842 30.2845 32.5176 30.309C32.2897 30.4002 32.0618 30.4914 31.8303 30.5755C31.4061 30.7298 30.9783 30.8736 30.5435 31.0033C29.8282 31.2172 29.1059 31.3925 28.3766 31.5503C27.3563 31.7677 26.1887 31.8939 25.291 32.4795C23.9972 33.321 23.864 34.8182 24.3233 36.1786C24.9685 38.1001 26.0519 39.8989 27.0337 41.6626C28.9516 45.1163 30.9082 48.549 32.8191 52.0098C36.0274 57.8268 39.1481 63.6929 42.1986 69.5976C43.1698 71.477 44.1306 73.3599 45.0878 75.2463C45.7154 76.484 47.6264 76.1264 47.97 74.8711C48.1032 74.3907 48.268 73.9174 48.4504 73.4545C48.5906 73.0969 48.3452 73.6789 48.4504 73.4545C48.503 73.3423 48.552 73.2266 48.6046 73.1144C48.7168 72.8725 48.8361 72.634 48.9623 72.3956C49.4847 71.4068 50.0948 70.4671 50.7505 69.5625C50.9188 69.3311 51.1222 69.1067 51.273 68.8647C51.0345 69.2504 51.2835 68.8507 51.3606 68.756C51.4658 68.6263 51.571 68.4931 51.6762 68.3633C52.0794 67.8689 52.4932 67.3851 52.9174 66.9047C53.8221 65.8843 54.7653 64.9026 55.726 63.9383C60.1124 59.5484 64.8635 55.5442 69.4007 51.312C74.022 47.0027 78.6083 42.4515 82.1182 37.1639C85.344 32.3041 86.3889 26.14 86.6729 20.4177C86.8026 17.837 86.75 15.2458 86.5116 12.6757C86.3363 10.7998 86.1189 8.86778 85.5859 7.055C85.5123 6.80956 85.4352 6.56762 85.337 6.3327C85.0179 5.57533 84.2781 4.94419 83.3945 5.23171C82.6757 5.49118 81.9604 6.38179 82.304 7.19526Z" fill="#05194C"/>
<path d="M40.6088 64.7661C40.0688 65.2991 39.6235 65.9443 39.1852 66.5579C38.0036 68.2129 37.0042 69.9976 36.0856 71.8104C34.3745 75.1905 32.9439 78.7179 31.6711 82.2873C29.7777 87.5959 28.2454 93.0342 26.92 98.5111C25.0371 106.302 23.582 114.199 22.3863 122.123C21.0785 130.79 19.9459 139.469 18.319 148.087C17.2005 154.013 15.9172 159.925 14.2201 165.714C13.596 167.845 12.9122 169.963 12.1408 172.05C11.8077 172.951 11.4606 173.848 11.0924 174.735C11.0539 174.83 11.0118 174.925 10.9732 175.023C10.861 175.296 11.0889 174.753 10.9732 175.023C10.8785 175.237 10.7874 175.454 10.6927 175.668C10.5174 176.068 10.3386 176.468 10.1527 176.864C8.91149 179.539 7.45987 182.106 5.85397 184.578C4.39884 186.815 2.83502 188.978 1.35184 191.194C0.966139 191.769 0.587455 192.348 0.215784 192.93C-0.0822549 193.396 -0.0647232 194.055 0.215784 194.522C0.552392 195.086 1.04328 195.598 1.51313 196.054C2.78943 197.295 4.29014 198.33 5.82241 199.231C12.6457 203.238 20.6893 205.185 28.4067 206.531C36.4538 207.937 44.613 208.624 52.7687 208.943C54.7989 209.024 54.7954 205.868 52.7687 205.788C40.6508 205.314 28.3085 204.203 16.6956 200.49C15.8049 200.205 14.9214 199.904 14.0448 199.581C13.6591 199.441 13.2769 199.294 12.8947 199.143C12.6948 199.066 12.495 198.985 12.2986 198.905C12.1864 198.859 11.5553 198.593 12.0041 198.785C10.7102 198.231 9.43394 197.632 8.19971 196.955C7.27053 196.443 6.36589 195.889 5.49983 195.279C5.33503 195.163 5.17374 195.041 5.00894 194.921C4.67935 194.679 5.08959 194.988 5.04401 194.949C4.97037 194.886 4.88973 194.83 4.81609 194.767C4.54961 194.553 4.28664 194.329 4.03418 194.097C3.66602 193.761 3.32941 193.403 3.00332 193.028C2.77541 192.769 3.0454 193.056 3.105 193.165C3.08046 193.123 3.03137 193.088 3.01384 193.039C2.99981 193 2.96124 192.965 2.94371 192.93C2.94371 193.459 2.94371 193.992 2.94371 194.522C4.40235 192.243 5.97669 190.041 7.49493 187.8C9.06928 185.475 10.5525 183.095 11.8358 180.595C13.5609 177.235 14.9634 173.712 16.1521 170.132C17.8597 164.988 19.15 159.714 20.272 154.416C21.9235 146.601 23.1963 138.708 24.3183 130.805C25.5455 122.172 26.8429 113.564 28.6732 105.033C29.9846 98.9319 31.5168 92.8729 33.4313 86.9297C34.1466 84.7102 34.918 82.5047 35.7595 80.3273C35.9383 79.8644 36.1242 79.3981 36.31 78.9388C36.4012 78.7179 36.4888 78.497 36.58 78.2761C36.6221 78.1779 36.6641 78.0762 36.7027 77.978C36.7237 77.9289 36.7448 77.8798 36.7658 77.8308C36.878 77.5608 36.6711 78.0481 36.7518 77.8693C37.0884 77.0874 37.4285 76.3055 37.7862 75.5306C38.81 73.3216 39.932 71.1442 41.2679 69.1035C41.4713 68.7914 41.6782 68.4864 41.8956 68.1813C41.9832 68.0586 42.0709 67.9359 42.1586 67.8167C42.1971 67.7641 42.2392 67.708 42.2813 67.6554C42.4776 67.3889 42.113 67.8657 42.1726 67.7956C42.3724 67.5572 42.5653 67.3152 42.7687 67.0803C42.7932 67.0523 42.8213 67.0242 42.8458 66.9997C44.2869 65.5656 42.0569 63.3356 40.6088 64.7661Z" fill="#05194C"/>
<path d="M187.969 161.513C190.781 175.145 194.417 188.634 199.744 201.516C201.349 205.405 203.092 209.23 204.986 212.986C205.301 212.214 205.613 211.439 205.929 210.668C197.002 212.803 188.429 216.478 180.985 221.881C175.767 225.668 171.269 230.188 166.963 234.96C165.529 236.552 164.112 238.189 162.513 239.62C162.363 239.756 162.208 239.89 162.05 240.019C161.97 240.086 161.889 240.149 161.809 240.216C161.521 240.454 162.114 239.998 161.812 240.216C161.518 240.426 161.227 240.636 160.911 240.815C160.771 240.896 160.623 240.963 160.483 241.043C160.076 241.271 160.809 240.97 160.336 241.103C160.196 241.141 160.055 241.187 159.919 241.229C159.849 241.25 159.768 241.254 159.698 241.275C159.365 241.387 160.073 241.282 159.824 241.257C159.694 241.247 159.543 241.268 159.41 241.271C159.337 241.275 159.263 241.254 159.189 241.257C158.979 241.268 159.635 241.387 159.316 241.271C159.186 241.225 159.035 241.201 158.898 241.166C158.832 241.148 158.769 241.117 158.702 241.096C158.4 241.015 159.042 241.303 158.783 241.127C158.488 240.931 158.172 240.777 157.878 240.573C158.365 240.91 157.818 240.514 157.685 240.394C157.524 240.247 157.366 240.093 157.215 239.935C157.05 239.763 156.889 239.585 156.735 239.402C156.623 239.272 156.142 238.655 156.433 239.045C156.076 238.568 155.732 238.08 155.41 237.582C154.589 236.32 153.86 234.998 153.165 233.666C151.146 229.777 149.41 225.738 147.727 221.692C145.129 215.447 142.674 209.146 140.241 202.835C139.48 200.864 138.723 198.897 137.969 196.923C137.475 195.633 135.224 195.226 134.925 196.923C131.591 216.036 127.425 235.202 120.725 253.449C117.671 261.769 114.091 270.258 108.751 277.53C108.568 277.775 108.386 278.021 108.2 278.263C108.025 278.494 108.449 277.947 108.27 278.172C108.228 278.228 108.186 278.284 108.141 278.336C107.706 278.859 107.271 279.367 106.78 279.837C104.782 281.745 102.359 282.618 99.764 283.396C94.3747 285.005 88.8453 286.201 83.2491 286.797C73.5226 287.839 63.6558 287.176 54.2272 284.529C38.347 280.069 24.1499 270.111 14.22 256.969C7.76128 248.424 3.84471 238.364 3.38538 227.617C3.13994 221.906 4.03405 216.274 4.87207 210.643C5.42607 206.916 6.01864 203.196 6.68133 199.49C6.7725 198.978 6.86366 198.466 6.96184 197.954C7.34053 195.969 4.30053 195.121 3.91834 197.116C2.49828 204.563 1.27457 212.126 0.478629 219.662C-0.720537 231.033 1.7374 242.751 7.4948 252.635C11.7059 259.862 17.5334 266.341 23.8939 271.741C30.6296 277.46 38.2383 282.053 46.4747 285.265C55.5737 288.813 65.3668 290.521 75.1285 290.433C80.6054 290.384 86.0788 289.774 91.4505 288.715C94.4133 288.13 97.3446 287.404 100.241 286.548C102.944 285.749 105.521 284.872 107.772 283.123C110.89 280.703 113.116 276.941 115.062 273.557C117.615 269.118 119.747 264.441 121.675 259.7C128.551 242.8 132.825 224.84 136.275 206.965C136.868 203.901 137.426 200.833 137.962 197.761C136.949 197.761 135.932 197.761 134.918 197.761C139.435 209.553 143.772 221.53 149.266 232.915C150.627 235.731 152.071 238.557 154.007 241.026C155.118 242.446 156.535 243.855 158.355 244.283C162.093 245.16 165.185 241.566 167.426 239.132C171.461 234.753 175.392 230.324 180.031 226.555C181.419 225.426 182.84 224.371 184.495 223.259C186.202 222.112 187.962 221.047 189.772 220.068C193.962 217.803 198.302 216.068 202.885 214.728C204.172 214.353 205.466 214.013 206.767 213.701C207.812 213.452 208.152 212.256 207.71 211.383C201.339 198.76 196.819 185.324 193.464 171.607C192.577 167.975 191.767 164.325 191.009 160.661C190.603 158.687 187.559 159.528 187.969 161.513Z" fill="#05194C"/>
<path d="M101.006 112.536C104.593 106.828 108.303 101.193 112.153 95.6605C114.12 92.8309 116.122 90.0258 118.166 87.2453C119.187 85.8568 120.214 84.4788 121.252 83.1043C121.399 82.9079 121.55 82.7116 121.701 82.5152C121.785 82.403 121.869 82.2943 121.953 82.1821C122.034 82.0769 122.258 81.7859 122.051 82.0559C122.441 81.5545 122.833 81.0566 123.23 80.5622C124.131 79.4472 125.06 78.3532 126.042 77.3083C126.525 76.7894 127.027 76.2845 127.546 75.8006C127.679 75.6744 127.816 75.5552 127.953 75.4324C127.967 75.4219 128.145 75.2746 128.012 75.3798C127.865 75.4955 128.1 75.3202 128.135 75.2957C128.422 75.0993 128.727 74.9345 129.043 74.7803C129.313 74.647 129.113 74.7487 129.05 74.7732C129.138 74.7382 129.225 74.7031 129.313 74.6716C129.467 74.6155 129.625 74.5629 129.783 74.5173C130.126 74.4156 130.474 74.3314 130.824 74.2648C131.014 74.2298 131.203 74.1982 131.392 74.1701C131.084 74.2192 131.522 74.1561 131.617 74.1456C131.971 74.107 132.325 74.0825 132.676 74.0544C133.906 73.9598 135.141 73.8931 136.378 73.8581C138.647 73.7915 140.919 73.8335 143.181 74.0124C143.724 74.0544 144.271 74.107 144.815 74.1666C145.056 74.1947 145.295 74.2227 145.537 74.2508C145.61 74.2613 145.993 74.3069 145.733 74.2753C145.47 74.2438 145.954 74.3069 146.028 74.3174C147.009 74.4612 147.984 74.633 148.952 74.8434C150.765 75.2326 152.549 75.741 154.285 76.3932C154.692 76.5474 155.127 76.6877 155.516 76.8805C155.067 76.6561 155.435 76.8455 155.54 76.8946C155.635 76.9367 155.726 76.9752 155.817 77.0173C156.014 77.105 156.21 77.1961 156.406 77.2873C157.188 77.6554 157.956 78.0552 158.707 78.4864C159.429 78.9002 160.134 79.3455 160.821 79.8189C161.161 80.0538 161.494 80.2922 161.824 80.5412C161.901 80.5973 161.978 80.6569 162.052 80.7165C162.23 80.8497 161.747 80.4745 162.055 80.72C162.216 80.8462 162.378 80.9759 162.536 81.1057C163.815 82.1541 165.007 83.3042 166.112 84.5349C166.666 85.152 167.15 85.8287 167.704 86.4423C167.693 86.4318 167.458 86.1197 167.609 86.3196C167.634 86.3512 167.658 86.3862 167.686 86.4178C167.746 86.4949 167.806 86.5721 167.862 86.6527C167.995 86.8315 168.128 87.0104 168.258 87.1927C168.503 87.5363 168.745 87.8799 168.984 88.2306C169.951 89.6647 170.828 91.1619 171.627 92.6976C172.048 93.5076 172.448 94.3281 172.83 95.1556C173.019 95.5693 173.209 95.9901 173.388 96.4073C173.43 96.5055 173.472 96.6037 173.514 96.7054C173.538 96.7615 173.559 96.8211 173.587 96.8772C173.594 96.8912 173.451 96.5546 173.517 96.7124C173.612 96.9403 173.707 97.1717 173.801 97.3996C174.524 99.1773 175.172 100.983 175.768 102.806C177.059 106.772 178.097 110.822 179.012 114.889C180.018 119.367 180.874 123.876 181.684 128.392C181.894 129.556 182.097 130.72 182.301 131.884C182.444 132.698 183.486 133.231 184.243 132.985C185.12 132.701 185.498 131.92 185.344 131.043C184.524 126.355 183.679 121.671 182.7 117.011C181.813 112.785 180.818 108.574 179.583 104.433C178.44 100.594 177.083 96.8141 175.383 93.185C173.843 89.8961 171.982 86.786 169.727 83.9388C167.581 81.2284 165.036 78.8546 162.167 76.9191C159.138 74.8749 155.733 73.3812 152.22 72.3924C148.103 71.2318 143.794 70.7445 139.527 70.6673C137.069 70.6252 134.608 70.7234 132.16 70.9233C130.519 71.0565 128.938 71.337 127.437 72.0418C126.045 72.6975 124.944 73.8546 123.899 74.9591C122.02 76.9472 120.33 79.1106 118.678 81.2915C116.589 84.0545 114.534 86.8456 112.521 89.6647C108.524 95.2538 104.67 100.948 100.954 106.73C100.056 108.126 99.1655 109.528 98.2819 110.934C97.8436 111.635 98.1101 112.705 98.8465 113.094C99.6214 113.515 100.537 113.283 101.006 112.536Z" fill="#05194C"/>
<path d="M49.3825 221.106C49.698 220.114 50.0311 219.132 50.3678 218.147C51.318 215.359 52.3138 212.586 53.3341 209.823C54.919 205.531 56.567 201.267 58.2675 197.021C59.3194 194.402 60.3889 191.793 61.4793 189.191C61.6196 188.855 61.7599 188.522 61.9036 188.185C62.0228 187.904 61.9282 188.125 61.9036 188.181C61.9387 188.097 61.9737 188.013 62.0123 187.926C62.1035 187.712 62.1946 187.498 62.2823 187.287C62.5768 186.593 62.8714 185.902 63.1694 185.208C63.8146 183.707 64.4632 182.21 65.1224 180.713C67.9836 174.205 70.964 167.747 74.0671 161.351C74.4844 160.488 74.9051 159.629 75.3259 158.77C75.6906 158.031 75.5503 157.028 74.7614 156.61C74.0496 156.235 72.9907 156.386 72.6015 157.175C69.3897 163.714 66.3006 170.317 63.3412 176.975C60.8096 182.673 58.3692 188.409 56.027 194.188C54.2282 198.623 52.4856 203.083 50.8131 207.568C49.7015 210.548 48.6216 213.539 47.5837 216.544C47.1665 217.757 46.6931 218.978 46.353 220.215C46.3495 220.233 46.3425 220.247 46.339 220.264C46.09 221.05 46.6335 222.021 47.44 222.207C48.3025 222.403 49.116 221.947 49.3825 221.106Z" fill="#05194C"/>
<path d="M160.063 243.301C160.691 248.936 161.213 254.584 161.746 260.23C162.367 266.797 162.974 273.368 163.605 279.935C163.875 282.744 164.148 285.552 164.446 288.357C164.541 289.231 165.095 289.9 166.024 289.935C167.072 289.974 168.124 290.005 169.173 290.044C172.023 290.142 174.871 290.24 177.721 290.335C181.922 290.479 186.122 290.623 190.323 290.766C195.425 290.942 200.53 291.113 205.632 291.289C211.189 291.478 216.743 291.667 222.301 291.857C227.862 292.046 233.423 292.235 238.984 292.428C244.1 292.604 249.219 292.779 254.335 292.954C258.56 293.098 262.781 293.242 267.006 293.386C269.889 293.484 272.771 293.582 275.653 293.68C276.4 293.705 277.15 293.754 277.894 293.701C279.77 293.564 281.428 292.898 283.167 292.253C285.162 291.513 287.252 290.85 289.089 289.767C290.639 288.852 291.929 287.555 292.662 285.896C293.697 283.547 293.904 280.931 293.97 278.392C294.016 276.58 293.97 274.767 293.897 272.954C293.876 272.414 293.89 271.853 293.802 271.32C293.711 270.752 293.413 270.44 292.978 270.114C292.883 270.044 292.789 269.977 292.694 269.911C292.056 269.462 291.39 269.048 290.727 268.634C288.318 267.127 285.874 265.675 283.437 264.22C279.868 262.091 276.291 259.974 272.718 257.849C268.416 255.293 264.121 252.726 259.833 250.142C255.222 247.361 250.621 244.563 246.042 241.727C241.536 238.936 237.052 236.113 232.609 233.227C228.626 230.643 224.671 228.01 220.793 225.271C219.138 224.104 217.501 222.915 215.884 221.691C215.709 221.558 215.537 221.425 215.362 221.292C215.278 221.225 215.19 221.158 215.106 221.095C214.944 220.973 215.365 221.299 215.207 221.172C215.148 221.127 215.088 221.081 215.029 221.032C214.692 220.769 214.355 220.506 214.019 220.24C213.377 219.728 212.739 219.209 212.115 218.676C211.084 217.799 210.074 216.898 209.138 215.923C208.773 215.545 208.43 215.152 208.097 214.749C207.823 214.419 208.321 215.064 208.1 214.756C208.037 214.668 207.97 214.581 207.907 214.489C207.795 214.325 207.683 214.156 207.585 213.984C207.504 213.848 207.451 213.679 207.36 213.55C207.665 213.995 207.451 213.757 207.364 213.483C207.346 213.427 207.35 213.353 207.325 213.297C207.318 213.283 207.367 213.834 207.36 213.515C207.353 213.048 207.252 213.918 207.343 213.567C207.862 211.604 204.818 210.762 204.299 212.729C203.833 214.496 205.155 216.183 206.235 217.424C207.876 219.311 209.839 220.924 211.789 222.473C214.66 224.763 217.637 226.916 220.649 229.013C224.222 231.499 227.851 233.904 231.505 236.267C235.502 238.858 239.534 241.397 243.581 243.911C247.708 246.474 251.852 249.006 256.011 251.52C259.955 253.908 263.914 256.274 267.876 258.638C271.351 260.706 274.826 262.772 278.304 264.837C280.965 266.418 283.626 268 286.274 269.602C287.841 270.552 289.426 271.485 290.937 272.523C291.113 272.642 291.288 272.765 291.46 272.895C291.2 272.439 290.937 271.986 290.678 271.531C290.783 273.655 290.864 275.784 290.825 277.912C290.811 278.712 290.783 279.511 290.72 280.307C290.692 280.658 290.66 281.005 290.622 281.355C290.611 281.439 290.601 281.52 290.59 281.604C290.59 281.597 290.632 281.303 290.608 281.485C290.583 281.66 290.555 281.832 290.527 282.007C290.429 282.576 290.306 283.144 290.138 283.694C290.071 283.918 289.99 284.136 289.91 284.357C289.77 284.746 290.015 284.16 289.899 284.388C289.833 284.515 289.78 284.644 289.713 284.77C289.619 284.953 289.517 285.128 289.408 285.303C289.352 285.395 289.289 285.479 289.233 285.566C288.995 285.924 289.366 285.437 289.219 285.591C288.932 285.893 288.669 286.194 288.353 286.471C288.178 286.622 288.136 286.629 288.367 286.468C288.279 286.527 288.199 286.594 288.111 286.653C287.922 286.787 287.729 286.909 287.529 287.029C287.115 287.274 286.688 287.491 286.253 287.691C286.141 287.744 286.028 287.793 285.913 287.846C285.857 287.87 285.502 288.024 285.748 287.919C286 287.81 285.576 287.989 285.527 288.01C285.387 288.066 285.243 288.126 285.103 288.182C284.559 288.396 284.009 288.599 283.458 288.803C281.919 289.371 280.362 290.107 278.756 290.437C277.757 290.644 276.74 290.573 275.727 290.538C272.525 290.43 269.321 290.321 266.119 290.209C261.358 290.048 256.6 289.883 251.838 289.721C246.081 289.525 240.323 289.329 234.566 289.132C228.444 288.922 222.322 288.715 216.2 288.505C210.278 288.301 204.355 288.102 198.43 287.898C193.289 287.723 188.153 287.548 183.012 287.372C179.243 287.242 175.474 287.116 171.704 286.986C169.892 286.923 168.072 286.811 166.259 286.801C166.178 286.801 166.098 286.794 166.021 286.794C166.547 287.32 167.072 287.846 167.598 288.371C167.002 282.803 166.494 277.228 165.971 271.657C165.351 265.068 164.741 258.476 164.096 251.892C163.815 249.03 163.531 246.173 163.216 243.315C163.121 242.466 162.556 241.737 161.638 241.737C160.863 241.723 159.969 242.449 160.063 243.301Z" fill="#05194C"/>
<path d="M165.042 274.102C165.179 274.067 165.315 274.042 165.452 274.018C165.526 274.004 165.61 274.004 165.684 273.983C165.403 274.063 165.242 274.035 165.564 274C165.982 273.958 166.395 273.927 166.813 273.909C167.942 273.86 169.071 273.867 170.2 273.892C173.517 273.962 176.834 274.168 180.144 274.386C184.593 274.68 189.043 275.028 193.489 275.375C198.678 275.778 203.871 276.192 209.06 276.581C214.678 277.002 220.298 277.401 225.919 277.748C231.585 278.099 237.258 278.401 242.932 278.607C248.272 278.804 253.619 278.923 258.963 278.888C263.672 278.86 268.384 278.723 273.076 278.33C276.883 278.011 280.723 277.559 284.436 276.633C287.118 275.964 289.867 275.031 292.034 273.257C292.388 272.966 292.718 272.647 293.009 272.289C293.545 271.626 293.658 270.704 293.009 270.059C292.455 269.505 291.315 269.393 290.779 270.059C290.477 270.434 290.127 270.739 289.769 271.058C289.559 271.244 290.144 270.795 289.773 271.051C289.66 271.129 289.552 271.209 289.436 271.286C289.205 271.441 288.966 271.584 288.724 271.721C288.465 271.865 288.202 272.002 287.935 272.131C287.809 272.191 287.683 272.251 287.557 272.307C287.483 272.342 287.406 272.373 287.332 272.405C287.017 272.545 287.609 272.296 287.423 272.366C286.778 272.612 286.137 272.857 285.477 273.064C283.952 273.541 282.392 273.895 280.824 274.186C279.937 274.351 279.05 274.495 278.156 274.621C278.033 274.638 277.911 274.656 277.792 274.673C277.728 274.68 277.669 274.691 277.606 274.698C277.588 274.701 277.97 274.652 277.792 274.673C277.539 274.705 277.29 274.74 277.041 274.768C276.543 274.831 276.045 274.887 275.544 274.94C271.052 275.42 266.529 275.617 262.013 275.697C256.796 275.792 251.578 275.722 246.361 275.568C240.744 275.399 235.13 275.133 229.52 274.81C223.878 274.484 218.244 274.102 212.605 273.688C207.297 273.299 201.988 272.885 196.68 272.468C192.072 272.107 187.465 271.742 182.854 271.416C179.264 271.16 175.67 270.922 172.069 270.788C169.877 270.708 167.633 270.596 165.449 270.852C165.028 270.901 164.6 270.95 164.19 271.051C162.233 271.546 163.068 274.589 165.042 274.102Z" fill="#05194C"/>
<path d="M96.3534 83.6682C93.8569 82.8583 91.3779 81.9852 88.927 81.0455C87.5314 80.5125 86.1464 79.9585 84.7684 79.3835C84.6948 79.3519 84.0917 79.0995 84.4669 79.2573C84.2951 79.1836 84.1268 79.1135 83.955 79.0399C83.5903 78.8856 83.2292 78.7278 82.8645 78.57C82.1247 78.2474 81.3848 77.9178 80.652 77.5812C74.2424 74.6499 68.0362 71.2453 62.2297 67.2481C61.3426 66.638 60.4625 66.0139 59.5964 65.3722C59.2002 65.0812 58.804 64.7831 58.4113 64.4851C58.3131 64.4115 58.2149 64.3343 58.1168 64.2607C58.0572 64.2151 57.9976 64.1695 57.9415 64.1239C58.0466 64.2046 58.0537 64.2116 57.966 64.145C57.7521 63.9767 57.5382 63.8084 57.3243 63.6401C55.6448 62.3112 54.0108 60.9227 52.433 59.4745C51.8229 58.917 50.7955 58.8294 50.203 59.4745C49.6455 60.0811 49.5543 61.1085 50.203 61.7046C55.8096 66.8449 62.0789 71.2418 68.6814 75.0006C74.544 78.3421 80.6836 81.1892 86.9669 83.6472C89.786 84.7517 92.6402 85.7685 95.5189 86.7047C96.3043 86.9607 97.2755 86.4067 97.4614 85.6037C97.6507 84.7412 97.1949 83.9382 96.3534 83.6682Z" fill="#05194C"/>
<path d="M56.7077 89.3345C62.9559 92.7847 69.1516 96.3296 75.3403 99.8851C90.6665 108.696 105.88 117.711 120.965 126.929C124.243 128.932 127.448 130.909 131.014 132.364C134.033 133.595 137.189 134.482 140.393 135.078C147.052 136.319 153.861 136.411 160.6 135.99C174.826 135.103 188.823 132.087 203.052 131.242C216.491 130.443 230.355 131.849 241.565 139.966C242.964 140.979 244.283 142.087 245.552 143.258C245.398 142.887 245.243 142.515 245.089 142.143C244.98 146.176 244.773 150.205 244.616 154.233C244.363 160.653 244.111 167.077 243.862 173.497C243.806 174.966 243.746 176.439 243.69 177.908C243.844 177.536 243.999 177.165 244.153 176.793C241.113 180.65 238.076 184.507 235.036 188.364C235.916 188.595 236.793 188.827 237.673 189.062C236.856 185.79 236.036 182.515 235.219 179.244C235.166 179.651 235.113 180.054 235.061 180.461C235.878 178.942 236.698 177.421 237.515 175.902C237.82 175.338 237.817 174.437 237.27 173.992C232.035 169.724 226.803 165.457 221.568 161.19C219.275 159.321 216.993 157.442 214.693 155.583C214.111 155.113 213.518 154.91 212.768 155.036C212.357 155.103 211.947 155.18 211.54 155.254C206.642 156.116 201.74 156.982 196.842 157.845C188.619 159.293 180.397 160.745 172.178 162.193C163.251 163.767 154.324 165.338 145.4 166.912C138.297 168.164 131.193 169.416 124.089 170.667C122.013 171.032 119.937 171.4 117.862 171.765C116.466 172.01 115.007 172.382 113.605 172.498C110.085 172.789 106.953 171.779 103.854 170.306C101.336 169.111 98.8187 167.915 96.3012 166.719C88.4435 162.985 80.5858 159.254 72.7281 155.52C66.8795 152.743 61.031 149.963 55.1859 147.186C54.8809 147.042 54.5758 146.895 54.2707 146.751C52.4475 145.885 50.8416 148.602 52.6789 149.475C55.8521 150.983 59.0253 152.491 62.1986 153.998C68.8606 157.165 75.5226 160.327 82.1882 163.494C88.0578 166.281 93.9274 169.069 99.797 171.86C101.098 172.477 102.399 173.097 103.7 173.714C105.33 174.486 107.017 175.1 108.794 175.405C111.505 175.871 114.068 175.685 116.75 175.156C119.177 174.679 121.624 174.297 124.057 173.869C129.703 172.873 135.348 171.877 140.993 170.885C148.384 169.581 155.776 168.28 163.167 166.975C170.642 165.657 178.114 164.342 185.59 163.024C191.712 161.944 197.838 160.864 203.96 159.787C207.094 159.233 210.233 158.683 213.367 158.129C213.507 158.104 213.648 158.08 213.788 158.055C213.276 157.918 212.764 157.785 212.252 157.648C218.921 163.087 225.59 168.525 232.259 173.96C233.188 174.717 234.118 175.475 235.043 176.232C234.963 175.594 234.879 174.956 234.798 174.321C234.104 175.615 233.406 176.905 232.712 178.199C232.372 178.83 232.042 179.346 232.189 180.114C232.27 180.52 232.393 180.924 232.494 181.327C233.21 184.188 233.925 187.049 234.64 189.91C234.907 190.969 236.53 191.555 237.277 190.608C238.935 188.504 240.594 186.4 242.252 184.297C243.318 182.947 244.381 181.593 245.447 180.243C245.983 179.56 246.786 178.785 246.86 177.898C246.993 176.243 246.989 174.563 247.056 172.905C247.193 169.388 247.333 165.871 247.47 162.354C247.719 155.986 247.971 149.615 248.217 143.248C248.238 142.69 248.336 142.084 248.122 141.554C247.866 140.923 247.119 140.425 246.614 139.987C246.092 139.535 245.559 139.093 245.015 138.662C243.981 137.845 242.922 137.059 241.828 136.326C237.656 133.535 232.999 131.474 228.164 130.134C218.413 127.431 208.101 127.571 198.104 128.486C187.582 129.451 177.168 131.305 166.656 132.357C156.943 133.329 146.887 133.721 137.367 131.183C135.102 130.58 132.872 129.822 130.737 128.854C128.16 127.687 125.786 126.193 123.377 124.72C117.083 120.871 110.765 117.056 104.425 113.276C94.3447 107.266 84.2113 101.337 74.0254 95.5057C69.0289 92.6445 64.0184 89.7973 58.9833 87.0028C58.7589 86.8766 58.5345 86.7538 58.31 86.6311C56.5218 85.6248 54.9299 88.3492 56.7077 89.3345Z" fill="#05194C"/>
<path d="M205.538 210.461C208.248 209.514 211.011 208.708 213.816 208.08C215.051 207.803 216.295 207.561 217.547 207.354C218.122 207.26 218.697 207.172 219.276 207.091C219.679 207.035 218.964 207.13 219.367 207.081C219.5 207.063 219.637 207.046 219.77 207.028C220.051 206.993 220.331 206.961 220.612 206.93C224.181 206.534 227.765 206.474 231.352 206.506C232.572 206.516 233.792 206.537 235.009 206.467C235.983 206.411 237.007 206.32 237.926 205.969C238.883 205.601 239.749 205.012 240.244 204.083C240.752 203.133 240.885 202.032 240.829 200.969C240.752 199.535 240.44 198.111 240.082 196.726C239.57 194.749 238.939 192.803 238.287 190.867C238.084 190.264 237.88 189.665 237.674 189.062C237.404 188.283 236.58 187.687 235.731 187.961C234.96 188.209 234.343 189.065 234.63 189.903C235.352 192 236.061 194.1 236.674 196.232C236.899 197.017 237.113 197.806 237.291 198.602C237.368 198.942 237.442 199.286 237.505 199.63C237.533 199.773 237.558 199.917 237.579 200.061C237.589 200.135 237.6 200.208 237.614 200.282C237.67 200.625 237.561 199.844 237.6 200.184C237.656 200.678 237.698 201.169 237.681 201.667C237.677 201.772 237.67 201.877 237.66 201.982C237.628 202.403 237.747 201.537 237.67 201.912C237.635 202.095 237.596 202.273 237.537 202.449C237.523 202.487 237.505 202.526 237.495 202.568C237.428 202.796 237.667 202.217 237.596 202.333C237.554 202.4 237.53 202.477 237.491 202.547C237.453 202.614 237.407 202.677 237.368 202.743C237.235 202.968 237.695 202.386 237.449 202.635C237.397 202.687 237.347 202.743 237.291 202.796C237.263 202.82 237.232 202.845 237.207 202.87C237.032 203.041 237.502 202.673 237.404 202.719C237.263 202.785 237.141 202.894 237 202.964C236.695 203.118 237.011 202.957 237.123 202.922C237.035 202.95 236.951 202.989 236.864 203.017C236.681 203.076 236.495 203.126 236.306 203.168C236.106 203.21 235.903 203.238 235.699 203.273C236.38 203.154 235.92 203.245 235.749 203.262C235.626 203.276 235.503 203.287 235.38 203.297C234.23 203.388 233.073 203.374 231.92 203.364C228.533 203.339 225.152 203.346 221.776 203.665C216.692 204.142 211.674 205.173 206.807 206.727C206.106 206.951 205.405 207.186 204.71 207.428C203.932 207.698 203.332 208.518 203.609 209.37C203.844 210.128 204.703 210.752 205.538 210.461Z" fill="#05194C"/>
<path d="M211.997 155.723C210.069 159.777 208.112 163.848 206.566 168.062C205.682 170.471 204.883 173.055 204.936 175.65C205.03 180.377 208.41 184.051 211.086 187.631C213.824 191.295 216.366 195.086 218.663 199.041C219.301 200.138 220.718 199.977 221.387 199.041C222.899 196.93 224.462 194.858 226.002 192.768C228.456 189.433 230.91 186.099 233.365 182.764C233.929 181.997 234.497 181.225 235.062 180.457C235.553 179.791 235.195 178.669 234.497 178.297C233.673 177.863 232.864 178.15 232.338 178.862C230.798 180.952 229.263 183.041 227.723 185.135C225.269 188.469 222.814 191.804 220.36 195.138C219.795 195.906 219.217 196.671 218.663 197.445C219.571 197.445 220.479 197.445 221.387 197.445C219.305 193.855 217.025 190.391 214.564 187.049C213.021 184.952 211.359 182.929 209.946 180.741C209.68 180.327 209.42 179.907 209.185 179.475C209.073 179.272 208.968 179.065 208.866 178.855C208.824 178.771 208.786 178.683 208.747 178.599C208.722 178.546 208.701 178.497 208.677 178.445C208.572 178.22 208.852 178.89 208.729 178.564C208.572 178.154 208.424 177.743 208.316 177.319C208.263 177.109 208.214 176.895 208.175 176.681C208.158 176.572 208.147 176.46 208.123 176.355C208.263 176.975 208.144 176.506 208.126 176.33C208.084 175.864 208.077 175.398 208.098 174.931C208.109 174.682 208.13 174.43 208.158 174.181C208.175 174.034 208.256 173.627 208.151 174.212C208.179 174.058 208.196 173.9 208.225 173.746C208.442 172.463 208.81 171.211 209.227 169.98C209.515 169.128 209.834 168.287 210.164 167.452C210.356 166.961 210.56 166.474 210.763 165.99C210.872 165.727 210.76 165.994 210.742 166.039C210.805 165.892 210.868 165.741 210.931 165.594C211.047 165.324 211.163 165.057 211.279 164.791C212.376 162.277 213.544 159.794 214.722 157.319C215.076 156.576 214.953 155.58 214.157 155.159C213.452 154.784 212.376 154.928 211.997 155.723Z" fill="#05194C"/>
<path d="M235.128 205.665C235.331 206.131 235.573 206.583 235.829 207.025C236.306 207.853 236.836 208.652 237.39 209.434C238.315 210.745 239.304 212.011 240.321 213.252C241.66 214.883 243.059 216.461 244.493 218.007C246.432 220.097 248.435 222.127 250.475 224.115C253.102 226.678 255.794 229.175 258.526 231.626C261.951 234.701 265.444 237.702 268.978 240.654C273.308 244.273 277.702 247.814 282.141 251.303C283.41 252.299 284.683 253.295 285.959 254.284C286.303 254.55 286.643 254.823 286.997 255.076C287.06 255.121 287.383 255.335 287.201 255.216C287.018 255.093 287.362 255.353 287.411 255.395C287.572 255.535 287.73 255.683 287.877 255.84C287.951 255.921 288.021 256.002 288.095 256.082C288.33 256.345 287.926 255.823 288.119 256.114C288.221 256.265 288.319 256.415 288.407 256.577C288.452 256.661 288.487 256.748 288.529 256.829C288.603 256.966 288.445 256.622 288.445 256.633C288.449 256.689 288.494 256.759 288.512 256.815C288.564 256.969 288.6 257.127 288.638 257.288C288.712 257.608 288.631 257.155 288.631 257.197C288.635 257.295 288.649 257.39 288.649 257.488C288.652 257.646 288.638 257.804 288.631 257.962C288.617 258.221 288.712 257.551 288.642 257.867C288.621 257.962 288.603 258.06 288.579 258.154C288.54 258.312 288.487 258.463 288.435 258.617C288.33 258.922 288.484 258.519 288.463 258.558C288.414 258.649 288.375 258.744 288.33 258.835C288.252 258.985 288.168 259.133 288.077 259.277C288.028 259.357 287.975 259.434 287.923 259.511C287.877 259.578 287.66 259.866 287.832 259.648C288.01 259.42 287.786 259.701 287.748 259.746C287.695 259.809 287.639 259.873 287.583 259.936C287.442 260.094 287.295 260.244 287.141 260.392C287.008 260.521 286.867 260.648 286.724 260.767C286.647 260.833 286.566 260.896 286.489 260.963C286.226 261.18 286.741 260.788 286.461 260.984C286.121 261.223 285.777 261.454 285.416 261.661C285.247 261.756 285.076 261.847 284.904 261.934C284.809 261.98 284.718 262.025 284.623 262.071C284.571 262.096 284.185 262.267 284.445 262.155C284.69 262.047 284.371 262.183 284.304 262.208C284.22 262.239 284.139 262.271 284.055 262.299C283.848 262.373 283.638 262.439 283.428 262.495C283.249 262.544 283.067 262.59 282.881 262.629C282.783 262.65 282.684 262.667 282.586 262.685C282.523 262.695 282.116 262.762 282.421 262.713C282.709 262.667 282.376 262.713 282.299 262.72C282.204 262.727 282.106 262.734 282.011 262.737C281.822 262.744 281.632 262.748 281.443 262.741C281.352 262.737 281.257 262.73 281.166 262.723C281.096 262.716 280.752 262.681 281.064 262.716C281.359 262.751 281.075 262.713 281.005 262.699C280.917 262.681 280.83 262.664 280.742 262.639C280.57 262.597 280.402 262.534 280.233 262.481C279.988 262.404 280.56 262.643 280.332 262.527C280.24 262.481 280.153 262.439 280.062 262.394C279.332 262.004 278.312 262.187 277.902 262.958C277.516 263.691 277.691 264.704 278.466 265.118C281.874 266.931 286.138 265.36 288.891 263.053C290.184 261.966 291.352 260.434 291.678 258.74C292.064 256.727 291.373 254.813 289.904 253.396C289.732 253.228 289.546 253.074 289.36 252.923C289.185 252.783 289.006 252.643 288.824 252.509C288.778 252.478 288.733 252.443 288.687 252.411C288.375 252.211 288.859 252.537 288.61 252.369C287.926 251.899 287.285 251.342 286.632 250.833C285.381 249.858 284.136 248.88 282.891 247.898C280.577 246.068 278.273 244.224 275.987 242.358C272.053 239.154 268.161 235.893 264.339 232.555C261.275 229.879 258.252 227.158 255.296 224.364C252.993 222.186 250.731 219.967 248.533 217.684C246.878 215.963 245.258 214.206 243.705 212.39C243.101 211.685 242.509 210.973 241.934 210.251C241.808 210.093 241.681 209.935 241.555 209.774C241.496 209.697 241.436 209.62 241.373 209.543C241.345 209.504 241.313 209.465 241.285 209.43C241.131 209.231 241.562 209.792 241.408 209.588C241.187 209.301 240.966 209.01 240.749 208.719C240.09 207.828 239.455 206.916 238.876 205.97C238.55 205.433 238.235 204.89 237.968 204.322C237.93 204.241 237.891 204.157 237.856 204.073C237.526 203.312 236.355 203.084 235.696 203.508C234.907 204.017 234.774 204.855 235.128 205.665Z" fill="#05194C"/>
<path d="M291.815 270.322C291.815 266.749 291.815 263.176 291.815 259.603C291.815 259.101 291.815 258.6 291.815 258.102C291.815 257.278 291.089 256.486 290.237 256.524C289.382 256.563 288.659 257.219 288.659 258.102C288.659 261.675 288.659 265.248 288.659 268.821C288.659 269.322 288.659 269.824 288.659 270.322C288.659 271.146 289.385 271.938 290.237 271.9C291.093 271.861 291.815 271.205 291.815 270.322Z" fill="#05194C"/>
<path d="M142.24 218.336C141.482 220.952 140.729 223.571 139.971 226.187C138.456 231.429 136.945 236.671 135.43 241.916C134.256 245.99 133.078 250.068 131.907 254.146C131.829 254.416 131.752 254.69 131.675 254.96C131.514 255.514 131.339 256.064 131.146 256.608C131.044 256.895 130.939 257.179 130.827 257.463C130.792 257.558 130.753 257.649 130.718 257.74C130.679 257.831 130.644 257.922 130.606 258.014C130.669 257.863 130.665 257.873 130.592 258.042C130.164 259.006 129.694 259.949 129.133 260.847C128.912 261.201 128.67 261.541 128.432 261.881C128.197 262.214 128.642 261.629 128.39 261.941C128.316 262.032 128.243 262.123 128.169 262.211C128.025 262.383 127.874 262.554 127.717 262.716C127.45 263 127.166 263.27 126.865 263.515C126.591 263.739 126.805 263.491 126.868 263.515C126.861 263.512 126.731 263.613 126.707 263.631C126.524 263.757 126.335 263.876 126.142 263.985C126.058 264.034 125.97 264.083 125.883 264.132C125.266 264.483 124.649 264.83 124.031 265.181C120.259 267.316 116.486 269.451 112.716 271.587C112.629 271.636 112.545 271.685 112.457 271.734C111.738 272.141 111.433 273.182 111.892 273.894C112.362 274.62 113.281 274.897 114.052 274.458C117.475 272.519 120.9 270.58 124.322 268.641C125.539 267.951 126.791 267.302 127.98 266.566C129.568 265.584 130.799 264.101 131.791 262.54C133.022 260.605 133.909 258.431 134.582 256.246C135.736 252.488 136.763 248.687 137.85 244.91C139.396 239.549 140.942 234.188 142.492 228.827C143.407 225.654 144.372 222.491 145.241 219.307C145.255 219.262 145.269 219.213 145.283 219.167C145.511 218.375 145.006 217.414 144.182 217.225C143.337 217.042 142.482 217.487 142.24 218.336Z" fill="#05194C"/>
<path d="M88.7789 65.6499C88.9051 65.6288 89.0278 65.6043 89.154 65.5832C89.2031 65.5762 89.6554 65.5131 89.4416 65.5377C89.2312 65.5622 89.6029 65.5201 89.6625 65.5131C89.8237 65.4956 89.9885 65.4816 90.1498 65.4675C90.6688 65.429 91.1912 65.4114 91.7102 65.4255C92.2396 65.436 92.7656 65.4781 93.2915 65.5377C93.6036 65.5727 93.025 65.4921 93.3336 65.5447C93.4668 65.5657 93.6001 65.5867 93.7368 65.6113C93.9858 65.6534 94.2312 65.7025 94.4767 65.7586C95.511 65.99 96.5068 66.3231 97.4921 66.7123C97.7761 66.8245 97.2747 66.6141 97.5552 66.7368C97.6639 66.7859 97.7761 66.8315 97.8848 66.8806C98.1408 66.9963 98.3967 67.1155 98.6492 67.2417C99.1471 67.4872 99.6345 67.7467 100.115 68.0237C101.1 68.5847 102.05 69.1983 102.98 69.8434C103.474 70.1871 103.961 70.5412 104.445 70.8989C104.684 71.0742 104.919 71.253 105.153 71.4353C105.388 71.6141 105.034 71.3407 105.273 71.5265C105.402 71.6247 105.529 71.7263 105.655 71.828C107.717 73.448 109.705 75.1555 111.707 76.8491C114.224 78.981 116.763 81.0848 119.389 83.0799C120.048 83.5813 121.181 83.2061 121.549 82.5154C121.987 81.6844 121.689 80.8919 120.985 80.3555C120.83 80.2362 120.676 80.1205 120.518 80.0013C120.452 79.9522 120.385 79.8996 120.322 79.8505C120.35 79.8716 120.455 79.9522 120.311 79.8435C120.006 79.6086 119.705 79.3702 119.403 79.1317C118.828 78.6759 118.26 78.2166 117.692 77.7537C116.57 76.8351 115.459 75.9059 114.354 74.9697C112.303 73.2376 110.269 71.4844 108.165 69.8154C104.47 66.8841 100.469 64.0264 95.8301 62.8448C93.2319 62.1821 90.5776 62.1365 87.9444 62.6134C87.1309 62.7606 86.5944 63.795 86.8434 64.5559C87.1204 65.4219 87.9058 65.8076 88.7789 65.6499Z" fill="#05194C"/>
<path d="M220.305 162.498C218.931 164.612 217.556 166.726 216.182 168.84C213.983 172.224 211.781 175.608 209.583 178.995C209.081 179.77 208.576 180.541 208.075 181.316C207.623 182.01 207.914 183.09 208.639 183.476C209.425 183.89 210.319 183.651 210.799 182.911C212.174 180.797 213.548 178.683 214.923 176.568C217.121 173.185 219.323 169.801 221.522 166.414C222.023 165.639 222.528 164.868 223.03 164.093C223.482 163.399 223.191 162.319 222.465 161.933C221.68 161.516 220.789 161.758 220.305 162.498Z" fill="#05194C"/>
<path d="M227.6 168.522C226.019 170.853 224.441 173.181 222.86 175.513C220.342 179.226 217.825 182.94 215.307 186.653C214.729 187.505 214.153 188.357 213.575 189.209C213.112 189.893 213.421 190.987 214.139 191.369C214.939 191.79 215.801 191.534 216.299 190.804C217.881 188.473 219.459 186.144 221.04 183.813C223.557 180.099 226.075 176.386 228.592 172.673C229.171 171.821 229.746 170.969 230.325 170.117C230.787 169.433 230.479 168.339 229.76 167.957C228.961 167.533 228.095 167.789 227.6 168.522Z" fill="#05194C"/>
<path d="M21.9873 28.149C25.3499 29.243 29.0105 29.5936 32.4081 28.4436C35.4727 27.4057 38.0463 25.3755 40.3325 23.1385C42.864 20.663 45.1326 17.928 47.573 15.3649C48.9195 13.9519 50.3115 12.5809 51.7842 11.3011C52.1593 10.975 52.5415 10.6559 52.9272 10.3438C53.1236 10.1861 53.3199 10.0283 53.5163 9.87399C53.7126 9.71972 53.4567 9.91958 53.6565 9.7653C53.7617 9.68465 53.8704 9.60401 53.9791 9.52336C54.8171 8.89573 55.6832 8.30316 56.5738 7.74565C57.496 7.17061 58.4497 6.63765 59.4245 6.15027C59.9224 5.90132 60.4238 5.66639 60.9322 5.44549C60.9672 5.43147 61.3179 5.2807 61.1391 5.35433C61.2793 5.29472 61.4161 5.23862 61.5563 5.18252C61.8228 5.07382 62.0893 4.97214 62.3593 4.87045C64.7155 3.98686 67.1699 3.37325 69.6595 2.99807C70.0171 2.94548 70.1118 2.93145 70.4414 2.88937C70.806 2.84379 71.1672 2.80522 71.5318 2.77016C72.0964 2.71406 72.5837 2.32836 72.5837 1.71826C72.5837 1.19231 72.0999 0.610256 71.5318 0.666358C66.5353 1.15724 61.672 2.50017 57.2505 4.90902C53.6215 6.8866 50.3991 9.53037 47.4819 12.4406C44.9152 15.0038 42.5835 17.7878 40.073 20.4035C38.951 21.5711 37.7904 22.7072 36.5281 23.724C36.4474 23.7871 36.3703 23.8502 36.2896 23.9134C36.0863 24.0747 36.3457 23.8713 36.2371 23.9554C36.0758 24.0747 35.9145 24.1974 35.7532 24.3166C35.4481 24.5375 35.1396 24.7479 34.824 24.9477C34.2034 25.3439 33.5582 25.7016 32.8885 26.0066C32.8114 26.0417 32.7307 26.0768 32.6536 26.1118C32.5238 26.1714 32.8499 26.0347 32.608 26.1294C32.4292 26.203 32.2468 26.2731 32.0645 26.3362C31.7174 26.459 31.3668 26.5712 31.0091 26.6658C30.6374 26.764 30.2588 26.8482 29.8801 26.9113C29.7924 26.9253 29.7048 26.9393 29.6171 26.9534C29.3681 26.9954 29.8415 26.9288 29.5294 26.9674C29.3366 26.9884 29.1437 27.0095 28.9509 27.0235C28.1269 27.0866 27.2959 27.0726 26.4719 26.9954C26.3702 26.9849 26.2685 26.9744 26.1704 26.9639C26.0652 26.9534 25.8302 26.9183 26.0687 26.9534C25.8338 26.9183 25.5988 26.8832 25.3674 26.8412C24.9046 26.757 24.4488 26.6553 23.9929 26.5396C23.5091 26.4169 23.0287 26.2731 22.5518 26.1188C22.0118 25.9435 21.4017 26.3222 21.258 26.8552C21.0932 27.4267 21.4438 27.9737 21.9873 28.149Z" fill="#05194C"/>
<path d="M193.79 242.488C194.604 241.836 195.417 241.187 196.231 240.535C198.184 238.971 200.137 237.411 202.09 235.847C204.453 233.957 206.816 232.067 209.18 230.173C211.224 228.54 213.268 226.902 215.309 225.268C216.297 224.476 217.346 223.725 218.289 222.884C218.303 222.873 218.317 222.863 218.331 222.849C218.98 222.33 218.913 221.152 218.331 220.619C217.644 219.988 216.792 220.065 216.101 220.619C215.288 221.271 214.474 221.92 213.661 222.572C211.708 224.136 209.755 225.696 207.802 227.26C205.438 229.15 203.075 231.04 200.712 232.933C198.668 234.567 196.624 236.204 194.583 237.838C193.594 238.631 192.546 239.381 191.602 240.223C191.588 240.233 191.574 240.244 191.56 240.258C190.912 240.777 190.978 241.955 191.56 242.488C192.244 243.119 193.1 243.042 193.79 242.488Z" fill="#05194C"/>
<path d="M203.257 249.15C204.071 248.497 204.884 247.849 205.698 247.197C207.651 245.633 209.604 244.073 211.557 242.509C213.92 240.619 216.283 238.729 218.647 236.836C220.691 235.202 222.735 233.564 224.776 231.93C225.765 231.138 226.813 230.387 227.756 229.546C227.77 229.535 227.784 229.525 227.798 229.511C228.447 228.992 228.38 227.814 227.798 227.281C227.111 226.65 226.259 226.727 225.568 227.281C224.755 227.933 223.941 228.582 223.128 229.234C221.175 230.798 219.222 232.358 217.269 233.922C214.905 235.812 212.542 237.702 210.179 239.595C208.135 241.229 206.09 242.866 204.05 244.5C203.061 245.293 202.013 246.043 201.069 246.885C201.055 246.895 201.041 246.906 201.027 246.92C200.379 247.439 200.445 248.617 201.027 249.15C201.711 249.781 202.567 249.704 203.257 249.15Z" fill="#05194C"/>
<path d="M214.127 255.111C214.94 254.458 215.754 253.81 216.567 253.158C218.52 251.594 220.473 250.033 222.426 248.47C224.79 246.58 227.153 244.69 229.516 242.796C231.56 241.163 233.605 239.525 235.645 237.891C236.634 237.099 237.683 236.348 238.626 235.507C238.64 235.496 238.654 235.486 238.668 235.472C239.317 234.953 239.25 233.775 238.668 233.242C237.981 232.611 237.129 232.688 236.438 233.242C235.624 233.894 234.811 234.543 233.997 235.195C232.044 236.759 230.091 238.319 228.138 239.883C225.775 241.773 223.412 243.663 221.048 245.556C219.004 247.19 216.96 248.827 214.919 250.461C213.93 251.254 212.882 252.004 211.939 252.846C211.925 252.856 211.911 252.867 211.897 252.881C211.248 253.4 211.315 254.578 211.897 255.111C212.581 255.742 213.436 255.665 214.127 255.111Z" fill="#05194C"/>
<path d="M222.387 219.462C224.761 218.494 227.138 217.523 229.512 216.555C233.282 215.016 237.051 213.48 240.82 211.941C241.686 211.587 242.556 211.233 243.422 210.878C244.183 210.566 244.807 209.816 244.523 208.936C244.285 208.203 243.401 207.498 242.58 207.835C240.207 208.803 237.829 209.774 235.456 210.742C231.686 212.281 227.917 213.817 224.148 215.356C223.281 215.71 222.412 216.064 221.546 216.418C220.785 216.73 220.161 217.481 220.445 218.361C220.683 219.097 221.567 219.799 222.387 219.462Z" fill="#05194C"/>
<path d="M228.26 224.374C230.445 223.484 232.626 222.593 234.81 221.703C238.292 220.282 241.774 218.862 245.255 217.439C246.058 217.113 246.858 216.783 247.661 216.457C248.422 216.145 249.046 215.395 248.762 214.515C248.523 213.782 247.64 213.077 246.819 213.414C244.635 214.304 242.454 215.195 240.269 216.085C236.788 217.505 233.306 218.926 229.824 220.349C229.021 220.675 228.222 221.005 227.419 221.331C226.658 221.643 226.034 222.393 226.318 223.273C226.556 224.006 227.443 224.707 228.26 224.374Z" fill="#05194C"/>
<path d="M234.229 230.181C236.414 229.29 238.595 228.4 240.779 227.509C244.261 226.089 247.743 224.669 251.224 223.246C252.027 222.919 252.827 222.59 253.63 222.264C254.391 221.952 255.015 221.201 254.731 220.321C254.492 219.588 253.609 218.884 252.788 219.22C250.604 220.111 248.423 221.001 246.238 221.892C242.757 223.312 239.275 224.732 235.793 226.156C234.99 226.482 234.191 226.811 233.388 227.138C232.627 227.45 232.003 228.2 232.287 229.08C232.525 229.813 233.409 230.514 234.229 230.181Z" fill="#05194C"/>
<path d="M91.6927 15.6914L93.0811 16.4488C93.0811 16.4488 90.185 17.4411 89.7467 22.413C89.4592 25.6809 88.2705 18.0477 91.6927 15.6914Z" fill="#05194C"/>
<path d="M91.4243 16.1435C91.8871 16.3959 92.35 16.6484 92.8128 16.9008C92.8549 16.5817 92.897 16.2592 92.939 15.9401C92.378 16.1329 91.8731 16.5256 91.4558 16.9324C90.4004 17.9597 89.7728 19.3693 89.4607 20.7893C89.345 21.3223 89.2714 21.8658 89.2188 22.4093C89.2118 22.4654 89.2083 22.525 89.2012 22.5811C89.1872 22.7108 89.2083 22.5425 89.1942 22.6302C89.1802 22.7143 89.1627 22.795 89.1451 22.8791C89.1381 22.9037 89.1276 22.9282 89.1206 22.9527C89.1171 22.9773 89.1907 22.8265 89.1416 22.8966C89.3029 22.6652 89.7097 22.6302 89.906 22.8581C89.913 22.8651 89.9586 23.0089 89.9411 22.9037C89.9306 22.8441 89.9095 22.7809 89.899 22.7213C89.892 22.6863 89.8885 22.6512 89.8815 22.6161C89.8639 22.525 89.892 22.7283 89.878 22.6021C89.8675 22.4969 89.8569 22.3882 89.8499 22.283C89.8359 22.0481 89.8324 21.8132 89.8359 21.5783C89.8464 20.9787 89.899 20.4072 90.0007 19.8461C90.2532 18.4822 90.7756 16.9709 91.9537 16.1435C92.5042 15.7578 91.9783 14.8461 91.4243 15.2353C90.1725 16.1154 89.4712 17.5214 89.1136 18.9801C88.8296 20.1442 88.6928 21.4065 88.8296 22.6021C88.8716 22.9598 88.9102 23.4506 89.2538 23.6575C89.7658 23.9591 90.1164 23.4331 90.1936 22.9983C90.3513 22.1358 90.3864 21.2732 90.6353 20.4247C90.8562 19.6638 91.1859 18.9485 91.6452 18.3034C91.7995 18.0895 92.0239 17.8335 92.2483 17.6231C92.3465 17.532 92.4481 17.4443 92.5533 17.3566C92.5709 17.3426 92.634 17.297 92.5428 17.3637C92.5674 17.3426 92.5954 17.3251 92.62 17.3076C92.6655 17.276 92.7076 17.2444 92.7532 17.2164C92.8864 17.1287 93.0197 17.0516 93.1599 16.978C93.2195 16.9464 93.3773 16.8938 93.1705 16.9709C93.1845 16.9639 93.202 16.9604 93.216 16.9534C93.6228 16.8132 93.763 16.2206 93.3423 15.9927C92.8794 15.7402 92.4166 15.4878 91.9537 15.2353C91.3612 14.9127 90.8282 15.8209 91.4243 16.1435Z" fill="#05194C"/>
<path d="M150.37 74.0432C150.45 73.8609 150.545 73.6855 150.647 73.5172C150.713 73.4085 150.784 73.3069 150.854 73.2017C150.878 73.1666 150.994 73.0228 150.861 73.1876C150.703 73.384 150.927 73.1105 150.941 73.0965C151.096 72.9177 151.26 72.7529 151.436 72.5916C151.516 72.5179 151.601 72.4478 151.681 72.3777C151.723 72.3426 151.916 72.1953 151.737 72.3286C151.558 72.4618 151.762 72.3111 151.797 72.2865C152.207 72.0025 152.631 71.7465 153.08 71.5256C153.196 71.4695 153.312 71.4169 153.427 71.3608C153.764 71.2066 153.245 71.4275 153.504 71.3293C153.739 71.2416 153.971 71.154 154.209 71.0768C154.641 70.9366 155.082 70.8244 155.528 70.7367C155.636 70.7157 155.742 70.6946 155.85 70.6771C155.896 70.6701 155.941 70.6631 155.983 70.6561C156.155 70.6245 155.766 70.6806 155.784 70.6806C155.973 70.6981 156.204 70.635 156.397 70.6245C156.902 70.6 157.407 70.6315 157.912 70.6631C159.227 70.7472 160.535 70.9015 161.839 71.0733C161.937 71.0873 162.039 71.0979 162.137 71.1119C162.418 71.1505 161.779 71.0628 162.063 71.1014C162.284 71.1329 162.505 71.161 162.726 71.1925C163.14 71.2521 163.554 71.3118 163.967 71.3749C164.861 71.5081 165.756 71.6519 166.65 71.7991C170.493 72.4373 174.318 73.1771 178.119 74.0327C181.299 74.7515 184.511 75.5053 187.579 76.6203C187.849 76.7185 188.115 76.8202 188.378 76.9254C188.442 76.9499 188.505 76.978 188.568 77.0025C188.491 76.9745 188.168 76.8307 188.399 76.9324C188.522 76.9885 188.645 77.0411 188.764 77.0972C189.213 77.3076 189.637 77.56 190.061 77.8195C190.538 78.114 191.005 78.4261 191.457 78.7557C191.576 78.8399 191.692 78.9275 191.811 79.0152C191.86 79.0537 191.909 79.0923 191.962 79.1274C192.12 79.2466 191.618 78.8574 191.892 79.0748C192.116 79.2536 192.337 79.4324 192.554 79.6148C193.47 80.3932 194.325 81.2417 195.118 82.1428C195.321 82.3742 195.521 82.6092 195.714 82.8476C195.815 82.9738 195.917 83.1001 196.019 83.2263C196.061 83.2824 196.103 83.3385 196.148 83.3911C196.173 83.4191 195.91 83.079 196.008 83.2123C196.043 83.2578 196.078 83.3069 196.117 83.3525C196.52 83.8855 196.906 84.4325 197.274 84.99C198.07 86.1926 198.785 87.4444 199.441 88.7277C199.802 89.436 200.149 90.1548 200.475 90.8806C200.651 91.2698 200.822 91.659 200.987 92.0517C201.11 92.3392 200.935 91.9255 200.973 92.0167C201.015 92.1183 201.057 92.22 201.099 92.3217C201.184 92.5286 201.268 92.732 201.352 92.9388C202.853 96.6871 204.027 100.565 205.051 104.468C206.376 109.517 207.442 114.629 208.4 119.759C208.968 122.816 209.462 125.884 209.967 128.952C210.016 129.261 210.069 129.566 210.118 129.875C210.251 130.692 211.306 131.221 212.06 130.976C212.944 130.688 213.305 129.91 213.161 129.033C212.8 126.835 212.449 124.633 212.078 122.438C211.173 117.094 210.097 111.768 208.82 106.505C207.804 102.308 206.639 98.1352 205.153 94.0819C203.978 90.8841 202.618 87.7249 200.871 84.7936C199.472 82.4479 197.807 80.2214 195.833 78.3279C194.167 76.7325 192.218 75.1898 190.097 74.2466C187.263 72.9913 184.209 72.2339 181.208 71.5081C177.365 70.5789 173.484 69.797 169.592 69.1098C166.169 68.5032 162.723 67.9492 159.262 67.6126C158.115 67.5004 156.941 67.3776 155.791 67.5179C153.536 67.7949 151.369 68.6014 149.584 70.0284C148.788 70.6666 148.073 71.4976 147.652 72.4338C147.316 73.1841 147.41 74.1659 148.217 74.5937C148.901 74.9724 150.009 74.8461 150.37 74.0432Z" fill="#05194C"/>
<path d="M90.7648 82.4271C90.5965 81.9257 90.5089 81.3893 90.4177 80.8703C90.3616 80.5547 90.3125 80.2357 90.2634 79.9201C90.2494 79.8324 90.2389 79.7483 90.2249 79.6606C90.1863 79.3836 90.2108 79.5169 90.2319 79.7237C90.2073 79.4923 90.1723 79.2609 90.1442 79.0295C90.0075 77.8899 89.9058 76.7434 89.8251 75.5968C89.4745 70.6634 89.5236 65.7335 89.8742 60.8036C89.9619 59.5483 90.0706 58.2965 90.2003 57.0483C90.2634 56.4452 90.33 55.8421 90.4037 55.239C90.4387 54.962 90.4703 54.685 90.5089 54.4115C90.5194 54.3344 90.5264 54.2537 90.5404 54.1766C90.4808 54.5518 90.5194 54.3274 90.5299 54.2467C90.5509 54.0924 90.572 53.9382 90.593 53.7839C90.8911 51.6836 91.2522 49.5833 91.8097 47.5356C92.0201 46.7572 92.2901 46.0103 92.5671 45.253C92.3672 45.8 92.5706 45.253 92.6407 45.1092C92.7073 44.969 92.7775 44.8322 92.8511 44.699C92.9212 44.5762 92.9914 44.457 93.0685 44.3378C93.1036 44.2887 93.1421 44.2396 93.1737 44.187C93.2473 44.0643 92.8581 44.4886 93.086 44.3098C93.1001 44.2957 92.6898 44.5377 92.9318 44.436C92.9914 44.4114 93.058 44.3764 93.1141 44.3448C93.0825 44.3624 92.7354 44.4921 93.065 44.3764C93.1702 44.3413 93.2719 44.3063 93.3771 44.2747C93.8785 44.1239 94.3904 44.0117 94.9023 43.91C95.9717 43.6926 97.0517 43.5243 98.1316 43.356C99.1204 43.2018 100.148 43.0966 101.094 42.7494C102.392 42.2691 103.377 41.424 103.857 40.0987C104.324 38.8048 104.17 37.2375 104.145 35.8805C104.12 34.5867 104.057 33.2929 103.942 32.006C103.535 27.4233 102.55 22.9457 100.74 18.71C99.3694 15.5052 97.4865 12.5283 95.1477 9.93716C93.2894 7.87543 91.1155 6.08019 88.7592 4.61454C86.9955 3.51706 85.1021 2.61593 83.1491 1.91116C82.2269 1.57806 81.2802 1.28002 80.316 1.09769C80.2739 1.09068 80.2283 1.08016 80.1862 1.07314C79.3763 0.939903 78.4471 1.28352 78.2437 2.17413C78.0719 2.93501 78.4751 3.97288 79.3447 4.11664C80.0074 4.22534 80.6596 4.41819 81.2977 4.61805C82.027 4.84596 82.7423 5.10894 83.4506 5.39996C83.4997 5.421 83.5453 5.44204 83.5944 5.45957C83.661 5.48411 83.1491 5.27023 83.4015 5.37892C83.5137 5.42801 83.6259 5.4771 83.7381 5.52619C83.9555 5.62437 84.1729 5.72254 84.3903 5.82423C84.8531 6.04513 85.3125 6.28005 85.7648 6.5255C86.7851 7.083 87.7739 7.70012 88.7171 8.37684C88.9731 8.56268 89.2256 8.75552 89.478 8.94136C88.9941 8.58722 89.471 8.93785 89.5937 9.03603C89.7305 9.14473 89.8672 9.25693 90.004 9.36913C90.5299 9.80742 91.0418 10.2632 91.5327 10.7401C92.0552 11.2415 92.5566 11.7675 93.0404 12.3074C93.2929 12.5879 93.5383 12.8755 93.7768 13.17C93.8995 13.3173 94.0187 13.468 94.1379 13.6223C94.18 13.6749 94.3869 13.9414 94.2081 13.71C94.0327 13.4856 94.2501 13.7696 94.2992 13.8327C95.3126 15.1826 96.2102 16.6202 96.9851 18.1174C97.1919 18.5172 97.3918 18.9239 97.5811 19.3306C97.6723 19.527 97.76 19.7233 97.8476 19.9197C97.8967 20.0319 97.9458 20.1476 97.9949 20.2633C98.0159 20.3089 98.0826 20.4667 97.9879 20.2493C97.8827 20.0038 97.9949 20.2668 98.0159 20.3229C98.3876 21.2276 98.7242 22.1497 99.0187 23.0859C99.6849 25.1792 100.162 27.3286 100.488 29.499C100.509 29.6357 100.526 29.769 100.548 29.9057C100.558 29.9829 100.565 30.0635 100.579 30.1407C100.579 30.1337 100.54 29.8321 100.562 30.0179C100.6 30.337 100.642 30.6561 100.677 30.9752C100.744 31.5923 100.8 32.2094 100.846 32.83C100.94 34.1414 100.989 35.4598 100.993 36.7747C100.993 37.1218 100.993 37.4654 100.989 37.8125C100.986 37.9773 100.986 38.1386 100.982 38.3034C100.982 38.37 100.979 38.4402 100.975 38.5068C100.975 38.5138 100.954 38.9275 100.972 38.6751C100.986 38.4542 100.937 38.8539 100.919 38.9205C100.912 38.9521 100.782 39.3027 100.793 39.3167C100.779 39.2957 100.944 39.0362 100.853 39.1625C100.817 39.2116 100.789 39.2712 100.761 39.3273C100.604 39.6253 100.975 39.1379 100.74 39.3658C100.723 39.3834 100.555 39.5867 100.523 39.5797C100.509 39.5762 100.832 39.3693 100.635 39.4921C100.586 39.5236 100.537 39.5587 100.488 39.5867C100.4 39.6393 100.306 39.6849 100.214 39.734C99.9164 39.8918 100.53 39.6253 100.123 39.7656C99.6464 39.9268 99.152 40.025 98.6576 40.1092C96.6099 40.4563 94.4956 40.6527 92.5005 41.2593C91.5292 41.5538 90.856 41.964 90.3055 42.8266C89.8953 43.4682 89.6042 44.1905 89.3413 44.9023C88.6891 46.6555 88.2999 48.5103 87.9703 50.3477C87.539 52.753 87.2304 55.1829 86.992 57.6128C86.5362 62.2482 86.2943 66.9397 86.4626 71.5961C86.5537 74.1872 86.708 76.7819 87.0306 79.3556C87.1814 80.5548 87.3321 81.7714 87.6302 82.9426C87.6582 83.0548 87.6863 83.167 87.7248 83.2792C87.9878 84.0576 88.8223 84.6537 89.6673 84.3802C90.4387 84.1172 91.0488 83.2652 90.7648 82.4271Z" fill="#05194C"/>
<path d="M168.733 133.104C168.176 135.092 167.913 137.196 167.699 139.244C167.187 144.114 167.369 149.034 168.134 153.865C168.691 157.379 169.603 160.832 170.858 164.16C171.149 164.931 171.938 165.541 172.801 165.261C173.555 165.019 174.214 164.146 173.902 163.318C172.801 160.394 171.959 157.372 171.395 154.297C171.261 153.578 171.146 152.859 171.044 152.137C171.034 152.063 171.023 151.989 171.013 151.916C171.055 152.207 171.016 151.954 171.009 151.898C170.988 151.73 170.967 151.562 170.946 151.393C170.904 151.036 170.865 150.682 170.83 150.324C170.704 149.044 170.62 147.757 170.585 146.47C170.522 144.296 170.588 142.123 170.785 139.956C170.823 139.517 170.869 139.083 170.921 138.648C170.946 138.444 170.97 138.245 170.995 138.041C171.037 137.698 170.949 138.36 170.988 138.09C171.002 137.985 171.016 137.876 171.034 137.771C171.128 137.126 171.233 136.481 171.356 135.839C171.475 135.205 171.605 134.563 171.78 133.939C172.001 133.143 171.507 132.186 170.679 131.996C169.834 131.814 168.972 132.256 168.733 133.104Z" fill="#05194C"/>
</g>
<defs>
<linearGradient id="paint0_linear" x1="43.7255" y1="297.996" x2="345.938" y2="246.909" gradientUnits="userSpaceOnUse">
<stop stop-color="#74D0D0"/>
<stop offset="0.824833" stop-color="#CFFFC6"/>
</linearGradient>
<clipPath id="clip0">
<rect width="293.989" height="298" fill="white"/>
</clipPath>
</defs>
</svg>
